<svg xmlns="http://www.w3.org/2000/svg" xmlns:xlink="http://www.w3.org/1999/xlink" width="1000" zoomAndPan="magnify" viewBox="0 0 750 225" height="300" preserveAspectRatio="xMidYMid meet" version="1.0"><defs><g/></defs><rect x="-75" width="900" fill="#ffffff" y="-22.5" height="270" fill-opacity="1"/><rect x="-75" width="900" fill="#000000" y="-22.5" height="270" fill-opacity="1"/><g fill="#ff3131" fill-opacity="1"><g transform="translate(33.555541, 137.988288)"><g><path d="M 20.234375 0.28125 C 18.765625 0.09375 15.941406 0 11.765625 0 L 8.109375 0 L 8.109375 -61.0625 C 10.054688 -60.9375 12.203125 -60.875 14.546875 -60.875 C 16.898438 -60.875 18.566406 -61 19.546875 -61.25 L 34.921875 -35.109375 L 49.71875 -61.25 C 50.6875 -61 52.546875 -60.875 55.296875 -60.875 C 58.046875 -60.875 60.394531 -60.9375 62.34375 -61.0625 L 62.34375 0 L 58.6875 0 C 54.5 0 51.675781 0.09375 50.21875 0.28125 L 50.21875 -40.734375 L 35.25 -13.96875 L 20.234375 -38.59375 Z M 20.234375 0.28125 "/></g></g></g><g fill="#ffffff" fill-opacity="1"><g transform="translate(117.417847, 137.988288)"><g><path d="M 12.3125 0.359375 C 9.6875 0.117188 6.617188 0 3.109375 0 L -0.5 0 L 19.40625 -55.796875 C 20.289062 -58.304688 20.734375 -59.765625 20.734375 -60.171875 C 20.734375 -60.585938 20.71875 -60.835938 20.6875 -60.921875 L 20.734375 -61.015625 C 22.722656 -60.921875 24.828125 -60.875 27.046875 -60.875 C 28.878906 -60.875 31.078125 -60.90625 33.640625 -60.96875 L 33.6875 -60.875 C 33.625 -60.757812 33.59375 -60.59375 33.59375 -60.375 C 33.59375 -59.800781 34.050781 -58.257812 34.96875 -55.75 L 55.296875 0.140625 C 54.679688 0.109375 53.960938 0.09375 53.140625 0.09375 C 53.140625 0.09375 52.347656 0.0625 50.765625 0 C 50.003906 0 49.316406 0 48.703125 0 L 41.609375 0 L 37.3125 -13.1875 L 16.609375 -13.1875 Z M 33.734375 -24.171875 L 26.828125 -45.453125 L 20.09375 -24.171875 Z M 33.734375 -24.171875 "/></g></g></g><g fill="#ffffff" fill-opacity="1"><g transform="translate(185.618405, 137.988288)"><g><path d="M 22.703125 1.140625 C 17.765625 1.140625 13.113281 0.742188 8.75 -0.046875 L 8.75 -61.296875 C 12.769531 -61.785156 17.441406 -62.03125 22.765625 -62.03125 C 28.097656 -62.03125 32.921875 -61.300781 37.234375 -59.84375 C 41.554688 -58.394531 45.164062 -56.332031 48.0625 -53.65625 C 53.925781 -48.28125 56.859375 -40.753906 56.859375 -31.078125 C 56.859375 -20.242188 53.59375 -12.019531 47.0625 -6.40625 C 41.195312 -1.375 33.078125 1.140625 22.703125 1.140625 Z M 20.640625 -10.03125 C 22.628906 -9.65625 24.613281 -9.46875 26.59375 -9.46875 C 28.582031 -9.46875 30.71875 -9.859375 33 -10.640625 C 35.289062 -11.421875 37.273438 -12.632812 38.953125 -14.28125 C 42.554688 -17.757812 44.359375 -22.828125 44.359375 -29.484375 C 44.359375 -40.410156 40.375 -47.125 32.40625 -49.625 C 29.78125 -50.445312 26.742188 -50.859375 23.296875 -50.859375 L 22.0625 -50.859375 C 21.601562 -50.859375 21.128906 -50.84375 20.640625 -50.8125 Z M 20.640625 -10.03125 "/></g></g></g><g fill="#ffffff" fill-opacity="1"><g transform="translate(261.463622, 137.988288)"><g><path d="M 20.234375 0.28125 C 17.304688 0.09375 13.828125 0 9.796875 0 L 8.328125 0 L 8.328125 -61.109375 C 10.222656 -60.953125 11.566406 -60.875 12.359375 -60.875 L 14.234375 -60.875 C 16.648438 -60.875 18.648438 -61 20.234375 -61.25 L 20.234375 -36.84375 L 41.75 -36.84375 L 41.75 -61.109375 C 44.28125 -60.953125 46.742188 -60.875 49.140625 -60.875 C 51.535156 -60.875 53.039062 -61 53.65625 -61.25 L 53.65625 0.28125 C 52.1875 0.09375 49.285156 0 44.953125 0 L 41.75 0 L 41.75 -25.859375 L 20.234375 -25.859375 Z M 20.234375 0.28125 "/></g></g></g><g fill="#ffffff" fill-opacity="1"><g transform="translate(337.308838, 137.988288)"><g><path d="M 12.3125 0.359375 C 9.6875 0.117188 6.617188 0 3.109375 0 L -0.5 0 L 19.40625 -55.796875 C 20.289062 -58.304688 20.734375 -59.765625 20.734375 -60.171875 C 20.734375 -60.585938 20.71875 -60.835938 20.6875 -60.921875 L 20.734375 -61.015625 C 22.722656 -60.921875 24.828125 -60.875 27.046875 -60.875 C 28.878906 -60.875 31.078125 -60.90625 33.640625 -60.96875 L 33.6875 -60.875 C 33.625 -60.757812 33.59375 -60.59375 33.59375 -60.375 C 33.59375 -59.800781 34.050781 -58.257812 34.96875 -55.75 L 55.296875 0.140625 C 54.679688 0.109375 53.960938 0.09375 53.140625 0.09375 C 53.140625 0.09375 52.347656 0.0625 50.765625 0 C 50.003906 0 49.316406 0 48.703125 0 L 41.609375 0 L 37.3125 -13.1875 L 16.609375 -13.1875 Z M 33.734375 -24.171875 L 26.828125 -45.453125 L 20.09375 -24.171875 Z M 33.734375 -24.171875 "/></g></g></g><g fill="#ffffff" fill-opacity="1"><g transform="translate(405.509401, 137.988288)"><g><path d="M 33.921875 0.1875 C 32.941406 0.0625 31.335938 0 29.109375 0 L 24.078125 0 C 23.253906 0 22.503906 0.03125 21.828125 0.09375 L 21.796875 0 C 21.910156 -0.21875 21.96875 -0.460938 21.96875 -0.734375 C 21.96875 -1.003906 21.941406 -1.289062 21.890625 -1.59375 C 21.847656 -1.90625 21.71875 -2.457031 21.5 -3.25 C 21.289062 -4.039062 20.960938 -5.1875 20.515625 -6.6875 L 18.578125 -12.8125 L 1.5625 -61.0625 C 3.445312 -60.9375 5.851562 -60.875 8.78125 -60.875 C 11.71875 -60.875 13.597656 -61 14.421875 -61.25 L 28.203125 -19.640625 L 40.28125 -61.0625 C 42.113281 -60.9375 44.375 -60.875 47.0625 -60.875 C 50.71875 -60.875 52.851562 -61 53.46875 -61.25 L 36.765625 -12.953125 C 36.765625 -12.953125 36.226562 -11.164062 35.15625 -7.59375 C 34.269531 -4.539062 33.828125 -2.566406 33.828125 -1.671875 C 33.828125 -0.773438 33.890625 -0.203125 34.015625 0.046875 Z M 33.921875 0.1875 "/></g></g></g><g fill="#ffffff" fill-opacity="1"><g transform="translate(473.526858, 137.988288)"><g><path d="M 12.3125 0.359375 C 9.6875 0.117188 6.617188 0 3.109375 0 L -0.5 0 L 19.40625 -55.796875 C 20.289062 -58.304688 20.734375 -59.765625 20.734375 -60.171875 C 20.734375 -60.585938 20.71875 -60.835938 20.6875 -60.921875 L 20.734375 -61.015625 C 22.722656 -60.921875 24.828125 -60.875 27.046875 -60.875 C 28.878906 -60.875 31.078125 -60.90625 33.640625 -60.96875 L 33.6875 -60.875 C 33.625 -60.757812 33.59375 -60.59375 33.59375 -60.375 C 33.59375 -59.800781 34.050781 -58.257812 34.96875 -55.75 L 55.296875 0.140625 C 54.679688 0.109375 53.960938 0.09375 53.140625 0.09375 C 53.140625 0.09375 52.347656 0.0625 50.765625 0 C 50.003906 0 49.316406 0 48.703125 0 L 41.609375 0 L 37.3125 -13.1875 L 16.609375 -13.1875 Z M 33.734375 -24.171875 L 26.828125 -45.453125 L 20.09375 -24.171875 Z M 33.734375 -24.171875 "/></g></g></g><g fill="#ffffff" fill-opacity="1"><g transform="translate(541.727421, 137.988288)"><g><path d="M 8.28125 0 C 8.46875 -1.039062 8.5625 -2.171875 8.5625 -3.390625 L 8.5625 -60.875 L 17.71875 -60.875 L 41.984375 -22.703125 L 41.984375 -57.765625 C 41.984375 -59.441406 41.828125 -60.476562 41.515625 -60.875 L 53.875 -60.875 C 53.726562 -59.65625 53.65625 -58.316406 53.65625 -56.859375 L 53.65625 0 L 44.125 0 L 20.234375 -36.671875 L 20.234375 0 Z M 8.28125 0 "/></g></g></g><g fill="#ffffff" fill-opacity="1"><g transform="translate(617.343756, 137.988288)"><g/></g></g><g fill="#ffffff" fill-opacity="1"><g transform="translate(661.832161, 137.988288)"><g><path d="M 27.5625 -23.671875 C 26.644531 -23.609375 25.664062 -23.578125 24.625 -23.578125 C 23.59375 -23.578125 22.050781 -23.648438 20 -23.796875 L 20 0 L 7.875 0 L 7.875 -61.203125 C 12.144531 -61.753906 17.394531 -62.03125 23.625 -62.03125 C 32.101562 -62.03125 38.425781 -60.460938 42.59375 -57.328125 C 46.757812 -54.203125 48.84375 -49.375 48.84375 -42.84375 C 48.84375 -37.78125 46.9375 -33.445312 43.125 -29.84375 C 41.875 -28.6875 40.4375 -27.679688 38.8125 -26.828125 L 48.15625 -7.140625 C 49.988281 -3.078125 51.394531 -0.664062 52.375 0.09375 L 52.140625 0.328125 C 49.179688 -0.160156 44.523438 -0.148438 38.171875 0.359375 Z M 24.484375 -51.21875 C 22.929688 -51.21875 21.4375 -51.144531 20 -51 L 20 -33.515625 C 21.5 -33.296875 23.253906 -33.1875 25.265625 -33.1875 C 27.285156 -33.1875 28.976562 -33.359375 30.34375 -33.703125 C 31.71875 -34.054688 32.910156 -34.601562 33.921875 -35.34375 C 36.085938 -36.957031 37.171875 -39.378906 37.171875 -42.609375 C 37.171875 -45.847656 36.039062 -48.125 33.78125 -49.4375 C 31.675781 -50.625 28.578125 -51.21875 24.484375 -51.21875 Z M 24.484375 -51.21875 "/></g></g></g></svg>