<svg xmlns="http://www.w3.org/2000/svg" xmlns:xlink="http://www.w3.org/1999/xlink" width="1368" zoomAndPan="magnify" viewBox="0 0 1026 525.000007" height="700" preserveAspectRatio="xMidYMid meet" version="1.0"><defs><clipPath id="95ad571b59"><path d="M 228.492188 301 L 784 301 L 784 524 L 228.492188 524 Z M 228.492188 301 " clip-rule="nonzero"/></clipPath><clipPath id="59a8ae84d9"><path d="M 618 0.167969 L 797.40625 0.167969 L 797.40625 396 L 618 396 Z M 618 0.167969 " clip-rule="nonzero"/></clipPath><clipPath id="4d7c0ea4fc"><path d="M 760.535156 77 L 797.40625 77 L 797.40625 114.046875 L 760.535156 114.046875 Z M 760.535156 77 " clip-rule="nonzero"/></clipPath><clipPath id="38b49b5de3"><path d="M 662 169.75 L 670 169.75 L 670 183 L 662 183 Z M 662 169.75 " clip-rule="nonzero"/></clipPath><clipPath id="613b2f3d0e"><path d="M 716.550781 175.148438 C 716.550781 192.875 702.1875 198.949219 684.464844 188.710938 C 666.746094 178.480469 652.382812 155.8125 652.382812 138.082031 C 652.382812 120.355469 666.746094 114.285156 684.464844 124.519531 C 702.1875 134.75 716.550781 157.417969 716.550781 175.148438 " clip-rule="nonzero"/></clipPath><clipPath id="6795f6f447"><path d="M 661.550781 162 L 678.871094 162 L 678.871094 182 L 661.550781 182 Z M 661.550781 162 " clip-rule="nonzero"/></clipPath><clipPath id="036d0bd7c3"><path d="M 716.550781 175.148438 C 716.550781 192.875 702.1875 198.949219 684.464844 188.710938 C 666.746094 178.480469 652.382812 155.8125 652.382812 138.082031 C 652.382812 120.355469 666.746094 114.285156 684.464844 124.519531 C 702.1875 134.75 716.550781 157.417969 716.550781 175.148438 " clip-rule="nonzero"/></clipPath><clipPath id="355ee59cab"><path d="M 698.667969 189.554688 L 707 189.554688 L 707 194 L 698.667969 194 Z M 698.667969 189.554688 " clip-rule="nonzero"/></clipPath><clipPath id="f6cc2b4f3d"><path d="M 716.550781 175.148438 C 716.550781 192.875 702.1875 198.949219 684.464844 188.710938 C 666.746094 178.480469 652.382812 155.8125 652.382812 138.082031 C 652.382812 120.355469 666.746094 114.285156 684.464844 124.519531 C 702.1875 134.75 716.550781 157.417969 716.550781 175.148438 " clip-rule="nonzero"/></clipPath><clipPath id="354d69bf65"><path d="M 690.007812 171 L 707.332031 171 L 707.332031 194 L 690.007812 194 Z M 690.007812 171 " clip-rule="nonzero"/></clipPath><clipPath id="6ebd78bd12"><path d="M 716.550781 175.148438 C 716.550781 192.875 702.1875 198.949219 684.464844 188.710938 C 666.746094 178.480469 652.382812 155.8125 652.382812 138.082031 C 652.382812 120.355469 666.746094 114.285156 684.464844 124.519531 C 702.1875 134.75 716.550781 157.417969 716.550781 175.148438 " clip-rule="nonzero"/></clipPath><clipPath id="215a3b02be"><path d="M 671.449219 165 L 697.433594 165 L 697.433594 194 L 671.449219 194 Z M 671.449219 165 " clip-rule="nonzero"/></clipPath><clipPath id="003541ecb1"><path d="M 716.550781 175.148438 C 716.550781 192.875 702.1875 198.949219 684.464844 188.710938 C 666.746094 178.480469 652.382812 155.8125 652.382812 138.082031 C 652.382812 120.355469 666.746094 114.285156 684.464844 124.519531 C 702.1875 134.75 716.550781 157.417969 716.550781 175.148438 " clip-rule="nonzero"/></clipPath><clipPath id="3e5b61ad25"><path d="M 673 141.277344 L 678.871094 141.277344 L 678.871094 149 L 673 149 Z M 673 141.277344 " clip-rule="nonzero"/></clipPath><clipPath id="439fcfed66"><path d="M 716.550781 175.148438 C 716.550781 192.875 702.1875 198.949219 684.464844 188.710938 C 666.746094 178.480469 652.382812 155.8125 652.382812 138.082031 C 652.382812 120.355469 666.746094 114.285156 684.464844 124.519531 C 702.1875 134.75 716.550781 157.417969 716.550781 175.148438 " clip-rule="nonzero"/></clipPath><clipPath id="37da31b229"><path d="M 673.921875 142.515625 L 677.636719 142.515625 L 677.636719 147.46875 L 673.921875 147.46875 Z M 673.921875 142.515625 " clip-rule="nonzero"/></clipPath><clipPath id="a24f0fc3a6"><path d="M 716.550781 175.148438 C 716.550781 192.875 702.1875 198.949219 684.464844 188.710938 C 666.746094 178.480469 652.382812 155.8125 652.382812 138.082031 C 652.382812 120.355469 666.746094 114.285156 684.464844 124.519531 C 702.1875 134.75 716.550781 157.417969 716.550781 175.148438 " clip-rule="nonzero"/></clipPath><clipPath id="73e458348c"><path d="M 690.007812 151.179688 L 696 151.179688 L 696 158.609375 L 690.007812 158.609375 Z M 690.007812 151.179688 " clip-rule="nonzero"/></clipPath><clipPath id="5157a1128c"><path d="M 716.550781 175.148438 C 716.550781 192.875 702.1875 198.949219 684.464844 188.710938 C 666.746094 178.480469 652.382812 155.8125 652.382812 138.082031 C 652.382812 120.355469 666.746094 114.285156 684.464844 124.519531 C 702.1875 134.75 716.550781 157.417969 716.550781 175.148438 " clip-rule="nonzero"/></clipPath><clipPath id="a97ac65e26"><path d="M 691.246094 152.417969 L 694.957031 152.417969 L 694.957031 157.371094 L 691.246094 157.371094 Z M 691.246094 152.417969 " clip-rule="nonzero"/></clipPath><clipPath id="f2e4bb508e"><path d="M 716.550781 175.148438 C 716.550781 192.875 702.1875 198.949219 684.464844 188.710938 C 666.746094 178.480469 652.382812 155.8125 652.382812 138.082031 C 652.382812 120.355469 666.746094 114.285156 684.464844 124.519531 C 702.1875 134.75 716.550781 157.417969 716.550781 175.148438 " clip-rule="nonzero"/></clipPath><clipPath id="7c8d83688c"><path d="M 674 136.328125 L 677.636719 136.328125 L 677.636719 147 L 674 147 Z M 674 136.328125 " clip-rule="nonzero"/></clipPath><clipPath id="e19a29c2df"><path d="M 716.550781 175.148438 C 716.550781 192.875 702.1875 198.949219 684.464844 188.710938 C 666.746094 178.480469 652.382812 155.8125 652.382812 138.082031 C 652.382812 120.355469 666.746094 114.285156 684.464844 124.519531 C 702.1875 134.75 716.550781 157.417969 716.550781 175.148438 " clip-rule="nonzero"/></clipPath><clipPath id="9cdcb1d677"><path d="M 691.246094 146.230469 L 694.957031 146.230469 L 694.957031 156 L 691.246094 156 Z M 691.246094 146.230469 " clip-rule="nonzero"/></clipPath><clipPath id="91f7ee8edd"><path d="M 716.550781 175.148438 C 716.550781 192.875 702.1875 198.949219 684.464844 188.710938 C 666.746094 178.480469 652.382812 155.8125 652.382812 138.082031 C 652.382812 120.355469 666.746094 114.285156 684.464844 124.519531 C 702.1875 134.75 716.550781 157.417969 716.550781 175.148438 " clip-rule="nonzero"/></clipPath><clipPath id="2f8fd369ac"><path d="M 680.109375 157 L 688.769531 157 L 688.769531 170.984375 L 680.109375 170.984375 Z M 680.109375 157 " clip-rule="nonzero"/></clipPath><clipPath id="e47ea77363"><path d="M 716.550781 175.148438 C 716.550781 192.875 702.1875 198.949219 684.464844 188.710938 C 666.746094 178.480469 652.382812 155.8125 652.382812 138.082031 C 652.382812 120.355469 666.746094 114.285156 684.464844 124.519531 C 702.1875 134.75 716.550781 157.417969 716.550781 175.148438 " clip-rule="nonzero"/></clipPath><clipPath id="c82e443f5a"><path d="M 680.109375 157 L 688.769531 157 L 688.769531 167 L 680.109375 167 Z M 680.109375 157 " clip-rule="nonzero"/></clipPath><clipPath id="725460528b"><path d="M 716.550781 175.148438 C 716.550781 192.875 702.1875 198.949219 684.464844 188.710938 C 666.746094 178.480469 652.382812 155.8125 652.382812 138.082031 C 652.382812 120.355469 666.746094 114.285156 684.464844 124.519531 C 702.1875 134.75 716.550781 157.417969 716.550781 175.148438 " clip-rule="nonzero"/></clipPath><clipPath id="39ba4c2ddf"><path d="M 675.160156 135.089844 L 693.71875 135.089844 L 693.71875 166 L 675.160156 166 Z M 675.160156 135.089844 " clip-rule="nonzero"/></clipPath><clipPath id="760454bee3"><path d="M 716.550781 175.148438 C 716.550781 192.875 702.1875 198.949219 684.464844 188.710938 C 666.746094 178.480469 652.382812 155.8125 652.382812 138.082031 C 652.382812 120.355469 666.746094 114.285156 684.464844 124.519531 C 702.1875 134.75 716.550781 157.417969 716.550781 175.148438 " clip-rule="nonzero"/></clipPath><clipPath id="7b59c45b69"><path d="M 678 162 L 691 162 L 691 172 L 678 172 Z M 678 162 " clip-rule="nonzero"/></clipPath><clipPath id="ce4f1382a3"><path d="M 716.550781 175.148438 C 716.550781 192.875 702.1875 198.949219 684.464844 188.710938 C 666.746094 178.480469 652.382812 155.8125 652.382812 138.082031 C 652.382812 120.355469 666.746094 114.285156 684.464844 124.519531 C 702.1875 134.75 716.550781 157.417969 716.550781 175.148438 " clip-rule="nonzero"/></clipPath><clipPath id="99aca97033"><path d="M 674 130.136719 L 696 130.136719 L 696 152 L 674 152 Z M 674 130.136719 " clip-rule="nonzero"/></clipPath><clipPath id="4c71353f73"><path d="M 716.550781 175.148438 C 716.550781 192.875 702.1875 198.949219 684.464844 188.710938 C 666.746094 178.480469 652.382812 155.8125 652.382812 138.082031 C 652.382812 120.355469 666.746094 114.285156 684.464844 124.519531 C 702.1875 134.75 716.550781 157.417969 716.550781 175.148438 " clip-rule="nonzero"/></clipPath><clipPath id="8c1a0fce6b"><path d="M 664.023438 406.171875 L 677 406.171875 L 677 415 L 664.023438 415 Z M 664.023438 406.171875 " clip-rule="nonzero"/></clipPath><clipPath id="49d8caaa75"><path d="M 714.003906 387.589844 L 661.132812 418.128906 L 607.507812 387.589844 L 660.339844 356.855469 L 714.003906 387.589844 " clip-rule="nonzero"/></clipPath><clipPath id="82c8c4abe3"><path d="M 659.074219 396 L 677 396 L 677 413.597656 L 659.074219 413.597656 Z M 659.074219 396 " clip-rule="nonzero"/></clipPath><clipPath id="5f407c99eb"><path d="M 714.003906 387.589844 L 661.132812 418.128906 L 607.507812 387.589844 L 660.339844 356.855469 L 714.003906 387.589844 " clip-rule="nonzero"/></clipPath><clipPath id="b0fd66ecc0"><path d="M 693.71875 390 L 708.566406 390 L 708.566406 397 L 693.71875 397 Z M 693.71875 390 " clip-rule="nonzero"/></clipPath><clipPath id="3ebece5544"><path d="M 714.003906 387.589844 L 661.132812 418.128906 L 607.507812 387.589844 L 660.339844 356.855469 L 714.003906 387.589844 " clip-rule="nonzero"/></clipPath><clipPath id="acf602f5ad"><path d="M 675.160156 387 L 706 387 L 706 397 L 675.160156 397 Z M 675.160156 387 " clip-rule="nonzero"/></clipPath><clipPath id="f086a8c56f"><path d="M 714.003906 387.589844 L 661.132812 418.128906 L 607.507812 387.589844 L 660.339844 356.855469 L 714.003906 387.589844 " clip-rule="nonzero"/></clipPath><clipPath id="7392927499"><path d="M 665 390 L 701 390 L 701 411 L 665 411 Z M 665 390 " clip-rule="nonzero"/></clipPath><clipPath id="4c8ef85de6"><path d="M 714.003906 387.589844 L 661.132812 418.128906 L 607.507812 387.589844 L 660.339844 356.855469 L 714.003906 387.589844 " clip-rule="nonzero"/></clipPath><clipPath id="aa271d00de"><path d="M 644.226562 386.367188 L 652 386.367188 L 652 391 L 644.226562 391 Z M 644.226562 386.367188 " clip-rule="nonzero"/></clipPath><clipPath id="a11dcf9c8b"><path d="M 714.003906 387.589844 L 661.132812 418.128906 L 607.507812 387.589844 L 660.339844 356.855469 L 714.003906 387.589844 " clip-rule="nonzero"/></clipPath><clipPath id="1a220eae28"><path d="M 645.464844 387 L 651 387 L 651 390 L 645.464844 390 Z M 645.464844 387 " clip-rule="nonzero"/></clipPath><clipPath id="ea39a4a0f6"><path d="M 714.003906 387.589844 L 661.132812 418.128906 L 607.507812 387.589844 L 660.339844 356.855469 L 714.003906 387.589844 " clip-rule="nonzero"/></clipPath><clipPath id="4604e0082c"><path d="M 659 378 L 666 378 L 666 382.652344 L 659 382.652344 Z M 659 378 " clip-rule="nonzero"/></clipPath><clipPath id="3eb41c14bb"><path d="M 714.003906 387.589844 L 661.132812 418.128906 L 607.507812 387.589844 L 660.339844 356.855469 L 714.003906 387.589844 " clip-rule="nonzero"/></clipPath><clipPath id="be8a7ab0c6"><path d="M 660.3125 378 L 665 378 L 665 382 L 660.3125 382 Z M 660.3125 378 " clip-rule="nonzero"/></clipPath><clipPath id="d2b42460c2"><path d="M 714.003906 387.589844 L 661.132812 418.128906 L 607.507812 387.589844 L 660.339844 356.855469 L 714.003906 387.589844 " clip-rule="nonzero"/></clipPath><clipPath id="a8ec068075"><path d="M 640.515625 384 L 650 384 L 650 388.839844 L 640.515625 388.839844 Z M 640.515625 384 " clip-rule="nonzero"/></clipPath><clipPath id="47d0cf1c41"><path d="M 714.003906 387.589844 L 661.132812 418.128906 L 607.507812 387.589844 L 660.339844 356.855469 L 714.003906 387.589844 " clip-rule="nonzero"/></clipPath><clipPath id="4378582d20"><path d="M 655 376 L 662.785156 376 L 662.785156 381.414062 L 655 381.414062 Z M 655 376 " clip-rule="nonzero"/></clipPath><clipPath id="151efe3333"><path d="M 714.003906 387.589844 L 661.132812 418.128906 L 607.507812 387.589844 L 660.339844 356.855469 L 714.003906 387.589844 " clip-rule="nonzero"/></clipPath><clipPath id="731e590724"><path d="M 659.074219 387 L 673 387 L 673 395 L 659.074219 395 Z M 659.074219 387 " clip-rule="nonzero"/></clipPath><clipPath id="549ed94d2d"><path d="M 714.003906 387.589844 L 661.132812 418.128906 L 607.507812 387.589844 L 660.339844 356.855469 L 714.003906 387.589844 " clip-rule="nonzero"/></clipPath><clipPath id="de6ad7c6fd"><path d="M 659.074219 387 L 670 387 L 670 393 L 659.074219 393 Z M 659.074219 387 " clip-rule="nonzero"/></clipPath><clipPath id="29d12a80e9"><path d="M 714.003906 387.589844 L 661.132812 418.128906 L 607.507812 387.589844 L 660.339844 356.855469 L 714.003906 387.589844 " clip-rule="nonzero"/></clipPath><clipPath id="c37c48da4e"><path d="M 641 376.464844 L 670 376.464844 L 670 393 L 641 393 Z M 641 376.464844 " clip-rule="nonzero"/></clipPath><clipPath id="fd01f6a92f"><path d="M 714.003906 387.589844 L 661.132812 418.128906 L 607.507812 387.589844 L 660.339844 356.855469 L 714.003906 387.589844 " clip-rule="nonzero"/></clipPath><clipPath id="46871c90d1"><path d="M 663 389 L 676 389 L 676 396.269531 L 663 396.269531 Z M 663 389 " clip-rule="nonzero"/></clipPath><clipPath id="967894e7f1"><path d="M 714.003906 387.589844 L 661.132812 418.128906 L 607.507812 387.589844 L 660.339844 356.855469 L 714.003906 387.589844 " clip-rule="nonzero"/></clipPath><clipPath id="e19551bc50"><path d="M 637 371.511719 L 660.3125 371.511719 L 660.3125 387.605469 L 637 387.605469 Z M 637 371.511719 " clip-rule="nonzero"/></clipPath><clipPath id="82677dc1bb"><path d="M 714.003906 387.589844 L 661.132812 418.128906 L 607.507812 387.589844 L 660.339844 356.855469 L 714.003906 387.589844 " clip-rule="nonzero"/></clipPath></defs><g clip-path="url(#95ad571b59)"><path fill="#5b79cc" d="M 543.484375 530.546875 L 783.707031 391.152344 L 624.773438 301.65625 L 228.492188 530.546875 L 543.484375 530.546875 " fill-opacity="1" fill-rule="nonzero"/></g><path fill="#ffffff" d="M 555.34375 442.917969 C 553.46875 440.636719 552.160156 438.171875 551.40625 435.527344 C 550.65625 432.882812 550.285156 429.847656 550.285156 426.433594 L 550.285156 395.605469 L 558.378906 400.285156 L 558.378906 432.070312 C 558.378906 434.695312 558.6875 436.898438 559.308594 438.683594 C 559.925781 440.46875 561.191406 441.910156 563.105469 443.011719 C 565.054688 444.136719 566.339844 444.171875 566.957031 443.097656 C 567.578125 442.035156 567.886719 440.1875 567.886719 437.5625 L 567.886719 405.773438 L 575.929688 410.417969 L 575.929688 441.246094 C 575.929688 444.625 575.550781 447.210938 574.800781 449.011719 C 574.046875 450.808594 572.738281 451.765625 570.863281 451.882812 C 568.988281 452 566.402344 451.105469 563.105469 449.199219 C 559.804688 447.292969 557.21875 445.199219 555.34375 442.917969 " fill-opacity="1" fill-rule="nonzero"/><path fill="#ffffff" d="M 582.675781 414.320312 L 590.882812 419.058594 L 590.882812 464.628906 L 582.675781 459.886719 L 582.675781 414.320312 " fill-opacity="1" fill-rule="nonzero"/><path fill="#d2d2d2" d="M 455.214844 203.867188 C 453.652344 203.769531 452.566406 202.980469 451.941406 201.5 C 451.316406 200.027344 451.007812 197.863281 451.007812 195.03125 L 451.007812 169.414062 L 457.734375 165.527344 L 457.734375 191.9375 C 457.734375 194.121094 457.992188 195.65625 458.503906 196.539062 C 459.023438 197.429688 460.070312 197.414062 461.660156 196.496094 C 463.28125 195.5625 464.347656 194.355469 464.859375 192.871094 C 465.378906 191.390625 465.632812 189.558594 465.632812 187.378906 L 465.632812 160.96875 L 472.3125 157.109375 L 472.3125 182.722656 C 472.3125 185.53125 472.003906 188.039062 471.378906 190.253906 C 470.757812 192.46875 469.664062 194.523438 468.109375 196.417969 C 466.550781 198.316406 464.402344 200.054688 461.660156 201.640625 C 458.921875 203.222656 456.769531 203.96875 455.214844 203.867188 " fill-opacity="1" fill-rule="nonzero"/><path fill="#d2d2d2" d="M 482.972656 168.71875 L 475.585938 155.21875 L 482.03125 151.496094 L 486.9375 160.441406 L 491.242188 146.175781 L 497.171875 142.75 L 489.929688 166.003906 L 497.730469 180.289062 L 491.332031 183.988281 L 485.957031 174.328125 L 481.285156 189.789062 L 475.355469 193.21875 L 482.972656 168.71875 " fill-opacity="1" fill-rule="nonzero"/><path fill="#000000" d="M 551.113281 445.359375 C 549.238281 443.078125 547.929688 440.613281 547.179688 437.96875 C 546.429688 435.324219 546.054688 432.289062 546.054688 428.878906 L 546.054688 398.046875 L 554.15625 402.722656 L 554.15625 434.511719 C 554.15625 437.136719 554.464844 439.339844 555.082031 441.125 C 555.703125 442.910156 556.96875 444.351562 558.878906 445.453125 C 560.824219 446.578125 562.109375 446.609375 562.730469 445.539062 C 563.347656 444.476562 563.65625 442.628906 563.65625 440.003906 L 563.65625 408.214844 L 571.699219 412.859375 L 571.699219 443.691406 C 571.699219 447.066406 571.324219 449.652344 570.574219 451.453125 C 569.824219 453.25 568.515625 454.210938 566.640625 454.324219 C 564.765625 454.441406 562.179688 453.546875 558.878906 451.640625 C 555.574219 449.738281 552.988281 447.644531 551.113281 445.359375 " fill-opacity="1" fill-rule="nonzero"/><path fill="#000000" d="M 578.445312 416.753906 L 586.660156 421.5 L 586.660156 467.070312 L 578.445312 462.328125 L 578.445312 416.753906 " fill-opacity="1" fill-rule="nonzero"/><g clip-path="url(#59a8ae84d9)"><path fill="#5b79cc" d="M 781.023438 77.753906 L 651.140625 2.734375 C 645.957031 -0.257812 641.3125 -0.554688 638.304688 1.414062 C 636.078125 2.867188 618.046875 13.195312 618.046875 13.195312 L 634.746094 283.539062 C 634.746094 292.371094 642.121094 303.851562 651.140625 309.0625 L 775.132812 395.996094 C 775.132812 395.996094 790.074219 387.589844 792.597656 386.050781 C 795.335938 384.386719 797.417969 381.914062 797.417969 377.503906 L 797.417969 103.273438 C 797.417969 94.445312 790.042969 82.960938 781.023438 77.753906 " fill-opacity="1" fill-rule="nonzero"/></g><g clip-path="url(#4d7c0ea4fc)"><path fill="#8094ff" d="M 781.023438 77.753906 L 760.640625 88.78125 L 777.667969 114.007812 L 797.417969 103.273438 C 797.417969 94.445312 790.042969 82.960938 781.023438 77.753906 " fill-opacity="1" fill-rule="nonzero"/></g><path fill="#ffffff" d="M 761.285156 101.300781 L 631.40625 26.289062 C 624.039062 22.027344 618.046875 24.40625 618.046875 31.582031 L 618.046875 296.691406 C 618.046875 303.867188 624.039062 313.164062 631.40625 317.421875 L 761.285156 392.4375 C 768.65625 396.695312 774.644531 394.320312 774.644531 387.144531 L 774.644531 122.03125 C 774.644531 114.855469 768.65625 105.5625 761.285156 101.300781 " fill-opacity="1" fill-rule="nonzero"/><path fill="#1e2059" d="M 771.609375 374.605469 L 621.074219 287.664062 L 621.074219 34.183594 L 771.609375 121.128906 Z M 761.285156 89.15625 L 631.40625 14.136719 C 622.386719 8.925781 615.003906 11.886719 615.003906 20.710938 L 615.003906 294.941406 C 615.003906 303.765625 622.386719 315.25 631.40625 320.457031 L 761.285156 395.476562 C 770.304688 400.6875 777.683594 397.722656 777.683594 388.898438 L 777.683594 114.671875 C 777.683594 105.847656 770.304688 94.363281 761.285156 89.15625 " fill-opacity="1" fill-rule="nonzero"/><path fill="#5b79cc" d="M 712.589844 75.152344 L 680.101562 56.386719 C 679.007812 55.757812 678.128906 54.359375 678.128906 53.273438 C 678.128906 52.179688 679.007812 51.808594 680.101562 52.4375 L 712.589844 71.203125 C 713.675781 71.832031 714.5625 73.226562 714.5625 74.316406 C 714.5625 75.410156 713.675781 75.78125 712.589844 75.152344 " fill-opacity="1" fill-rule="nonzero"/><path fill="#1b295b" d="M 788.300781 226.808594 C 787.046875 227.535156 786.023438 227.105469 786.023438 225.839844 L 786.023438 187.371094 C 786.023438 186.117188 787.046875 184.503906 788.300781 183.78125 C 789.5625 183.054688 790.578125 183.484375 790.578125 184.742188 L 790.578125 223.210938 C 790.578125 224.472656 789.5625 226.078125 788.300781 226.808594 " fill-opacity="1" fill-rule="nonzero"/><path fill="#1b295b" d="M 788.300781 178.261719 C 787.046875 178.992188 786.023438 178.558594 786.023438 177.300781 L 786.023438 138.832031 C 786.023438 137.574219 787.046875 135.964844 788.300781 135.238281 C 789.5625 134.515625 790.578125 134.945312 790.578125 136.203125 L 790.578125 174.671875 C 790.578125 175.925781 789.5625 177.539062 788.300781 178.261719 " fill-opacity="1" fill-rule="nonzero"/><path fill="#d5d9e5" d="M 762.433594 348.71875 L 751.867188 354.820312 L 627.636719 270.859375 L 617.066406 52.238281 L 627.636719 46.132812 L 762.433594 123.992188 L 762.433594 348.71875 " fill-opacity="1" fill-rule="nonzero"/><path fill="#ffffff" d="M 751.867188 354.820312 L 617.066406 276.960938 L 617.066406 52.238281 L 751.867188 130.097656 L 751.867188 354.820312 " fill-opacity="1" fill-rule="nonzero"/><path fill="#dddddd" d="M 721.066406 172.84375 C 721.066406 184.90625 711.558594 193.886719 701.71875 193.6875 C 697.101562 193.589844 694.636719 189.679688 688.984375 186.410156 C 671.257812 176.175781 656.894531 153.507812 656.894531 135.78125 C 656.894531 131.683594 653.875 129.21875 655.269531 126.429688 C 659.921875 117.121094 675.347656 114.339844 688.984375 122.214844 C 706.703125 132.445312 721.066406 155.117188 721.066406 172.84375 " fill-opacity="1" fill-rule="nonzero"/><path fill="#cf433d" d="M 725.117188 292.335938 C 725.117188 297.652344 717.664062 302.484375 712.347656 299.414062 L 639.71875 246.34375 C 639.71875 241.023438 648.128906 238.234375 653.445312 241.308594 L 715.488281 277.144531 C 720.804688 280.214844 725.117188 287.015625 725.117188 292.335938 " fill-opacity="1" fill-rule="nonzero"/><path fill="#ee6a4a" d="M 720.886719 294.777344 C 720.886719 300.097656 716.582031 301.917969 711.257812 298.847656 L 649.21875 263.011719 C 643.898438 259.941406 639.59375 253.136719 639.59375 247.816406 C 639.59375 242.5 643.898438 240.679688 649.21875 243.75 L 711.257812 279.585938 C 716.582031 282.65625 720.886719 289.457031 720.886719 294.777344 " fill-opacity="1" fill-rule="nonzero"/><path fill="#ffffff" d="M 666.40625 266.414062 L 666.40625 257.816406 L 667.542969 258.472656 L 667.542969 266.0625 L 671.777344 268.503906 L 671.777344 269.519531 L 666.40625 266.414062 " fill-opacity="1" fill-rule="nonzero"/><path fill="#ffffff" d="M 673.6875 267.507812 C 673.6875 268.304688 673.859375 269 674.207031 269.601562 C 674.554688 270.195312 674.992188 270.648438 675.523438 270.953125 C 676.042969 271.253906 676.480469 271.308594 676.828125 271.109375 C 677.175781 270.910156 677.351562 270.402344 677.351562 269.585938 C 677.351562 268.816406 677.175781 268.136719 676.828125 267.535156 C 676.476562 266.9375 676.039062 266.488281 675.523438 266.1875 C 674.992188 265.882812 674.554688 265.824219 674.207031 266.015625 C 673.859375 266.214844 673.6875 266.707031 673.6875 267.507812 Z M 672.601562 266.882812 C 672.601562 265.726562 672.921875 265.058594 673.566406 264.875 C 674.101562 264.722656 674.753906 264.867188 675.523438 265.3125 C 676.378906 265.804688 677.078125 266.492188 677.621094 267.367188 C 678.160156 268.242188 678.433594 269.171875 678.433594 270.160156 C 678.433594 270.964844 678.316406 271.523438 678.074219 271.84375 C 677.832031 272.164062 677.484375 272.316406 677.027344 272.308594 C 676.566406 272.296875 676.0625 272.132812 675.523438 271.820312 C 674.652344 271.316406 673.945312 270.628906 673.410156 269.765625 C 672.871094 268.894531 672.601562 267.933594 672.601562 266.882812 " fill-opacity="1" fill-rule="nonzero"/><path fill="#ffffff" d="M 680.351562 271.246094 C 680.351562 272.0625 680.511719 272.753906 680.839844 273.3125 C 681.164062 273.875 681.570312 274.300781 682.058594 274.582031 C 682.539062 274.859375 682.945312 274.910156 683.273438 274.726562 C 683.605469 274.542969 683.769531 274.054688 683.769531 273.253906 C 683.769531 272.492188 683.597656 271.820312 683.261719 271.234375 C 682.921875 270.65625 682.515625 270.222656 682.039062 269.949219 C 681.570312 269.675781 681.171875 269.640625 680.84375 269.832031 C 680.515625 270.027344 680.351562 270.496094 680.351562 271.246094 Z M 679.476562 274.484375 L 680.5 275.230469 C 680.542969 275.566406 680.664062 275.867188 680.859375 276.128906 C 681.125 276.472656 681.480469 276.777344 681.9375 277.035156 C 682.417969 277.316406 682.800781 277.441406 683.066406 277.398438 C 683.328125 277.355469 683.511719 277.1875 683.605469 276.886719 C 683.65625 276.703125 683.6875 276.269531 683.679688 275.578125 C 683.222656 275.855469 682.648438 275.792969 681.957031 275.398438 C 681.101562 274.90625 680.4375 274.214844 679.96875 273.324219 C 679.5 272.4375 679.269531 271.558594 679.269531 270.691406 C 679.269531 270.097656 679.375 269.613281 679.585938 269.238281 C 679.804688 268.855469 680.113281 268.648438 680.523438 268.613281 C 680.929688 268.574219 681.414062 268.714844 681.960938 269.035156 C 682.699219 269.457031 683.304688 270.101562 683.78125 270.972656 L 683.78125 270.222656 L 684.753906 270.785156 L 684.753906 276.167969 C 684.753906 277.136719 684.65625 277.765625 684.460938 278.058594 C 684.261719 278.347656 683.945312 278.488281 683.523438 278.476562 C 683.089844 278.464844 682.566406 278.273438 681.941406 277.917969 C 681.195312 277.488281 680.597656 276.972656 680.136719 276.375 C 679.683594 275.773438 679.460938 275.144531 679.476562 274.484375 " fill-opacity="1" fill-rule="nonzero"/><path fill="#ffffff" d="M 686.355469 277.9375 L 686.355469 271.707031 L 687.40625 272.316406 L 687.40625 278.546875 Z M 686.355469 270.554688 L 686.355469 269.339844 L 687.40625 269.949219 L 687.40625 271.164062 L 686.355469 270.554688 " fill-opacity="1" fill-rule="nonzero"/><path fill="#ffffff" d="M 689.011719 279.472656 L 689.011719 273.246094 L 689.964844 273.796875 L 689.964844 274.683594 C 690.421875 274.261719 691.082031 274.300781 691.945312 274.796875 C 692.316406 275.015625 692.667969 275.28125 692.980469 275.601562 C 693.292969 275.914062 693.53125 276.230469 693.6875 276.539062 C 693.839844 276.847656 693.953125 277.167969 694.015625 277.507812 C 694.054688 277.722656 694.074219 278.078125 694.074219 278.566406 L 694.074219 282.394531 L 693.019531 281.785156 L 693.019531 278 C 693.019531 277.570312 692.976562 277.21875 692.894531 276.964844 C 692.816406 276.703125 692.667969 276.445312 692.457031 276.199219 C 692.25 275.953125 692.003906 275.746094 691.722656 275.585938 C 691.273438 275.324219 690.886719 275.242188 690.558594 275.339844 C 690.234375 275.4375 690.070312 275.886719 690.070312 276.683594 L 690.070312 280.082031 L 689.011719 279.472656 " fill-opacity="1" fill-rule="nonzero"/><path fill="#e7e7e7" d="M 647.792969 175.496094 L 643.566406 177.9375 L 647.792969 193.324219 L 647.792969 195.296875 L 725.367188 244.988281 L 729.597656 242.546875 L 729.597656 222.746094 L 647.792969 175.496094 " fill-opacity="1" fill-rule="nonzero"/><path fill="#e7e7e7" d="M 647.792969 225.550781 L 725.367188 275.242188 L 729.597656 272.800781 L 729.597656 253 L 647.792969 205.75 L 643.566406 208.191406 L 647.792969 225.550781 " fill-opacity="1" fill-rule="nonzero"/><path fill="#ffffff" d="M 725.367188 244.988281 L 643.566406 197.738281 L 643.566406 177.9375 L 725.367188 225.1875 L 725.367188 244.988281 " fill-opacity="1" fill-rule="nonzero"/><path fill="#ffffff" d="M 725.367188 275.242188 L 643.566406 227.992188 L 643.566406 208.191406 L 725.367188 255.441406 L 725.367188 275.242188 " fill-opacity="1" fill-rule="nonzero"/><path fill="#d3d3d3" d="M 725.367188 275.242188 L 643.566406 227.992188 L 643.566406 226.019531 L 725.367188 273.265625 L 725.367188 275.242188 " fill-opacity="1" fill-rule="nonzero"/><path fill="#d3d3d3" d="M 725.367188 244.988281 L 643.566406 197.738281 L 643.566406 195.765625 L 725.367188 243.015625 L 725.367188 244.988281 " fill-opacity="1" fill-rule="nonzero"/><path fill="#d3d3d3" d="M 719.75 234.15625 L 649.1875 193.402344 L 649.1875 188.769531 L 719.75 229.527344 L 719.75 234.15625 " fill-opacity="1" fill-rule="nonzero"/><path fill="#d3d3d3" d="M 652.535156 225.113281 C 652.183594 225.113281 651.777344 224.992188 651.34375 224.738281 C 650.019531 223.976562 648.949219 222.289062 648.949219 220.96875 C 648.949219 220.078125 649.429688 219.585938 650.148438 219.585938 C 650.496094 219.585938 650.90625 219.699219 651.34375 219.953125 C 652.660156 220.714844 653.734375 222.410156 653.734375 223.730469 C 653.734375 224.613281 653.25 225.113281 652.535156 225.113281 " fill-opacity="1" fill-rule="nonzero"/><path fill="#d3d3d3" d="M 661.957031 230.550781 C 661.601562 230.550781 661.195312 230.429688 660.757812 230.179688 C 659.4375 229.417969 658.371094 227.726562 658.371094 226.40625 C 658.371094 225.519531 658.847656 225.023438 659.5625 225.023438 C 659.917969 225.023438 660.328125 225.144531 660.757812 225.390625 C 662.082031 226.15625 663.15625 227.847656 663.15625 229.167969 C 663.15625 230.058594 662.671875 230.550781 661.957031 230.550781 " fill-opacity="1" fill-rule="nonzero"/><path fill="#d3d3d3" d="M 671.375 235.992188 C 671.023438 235.992188 670.613281 235.875 670.183594 235.625 C 668.859375 234.859375 667.785156 233.167969 667.785156 231.847656 C 667.785156 230.957031 668.269531 230.464844 668.984375 230.464844 C 669.335938 230.464844 669.742188 230.585938 670.183594 230.835938 C 671.5 231.601562 672.570312 233.289062 672.570312 234.609375 C 672.570312 235.496094 672.089844 235.992188 671.375 235.992188 " fill-opacity="1" fill-rule="nonzero"/><path fill="#d3d3d3" d="M 680.796875 241.429688 C 680.441406 241.429688 680.03125 241.3125 679.597656 241.0625 C 678.277344 240.300781 677.203125 238.605469 677.203125 237.285156 C 677.203125 236.402344 677.6875 235.902344 678.402344 235.902344 C 678.757812 235.902344 679.164062 236.023438 679.597656 236.277344 C 680.921875 237.039062 681.988281 238.726562 681.988281 240.050781 C 681.988281 240.9375 681.511719 241.429688 680.796875 241.429688 " fill-opacity="1" fill-rule="nonzero"/><path fill="#d3d3d3" d="M 690.210938 246.875 C 689.863281 246.875 689.453125 246.753906 689.015625 246.503906 C 687.699219 245.738281 686.625 244.050781 686.625 242.726562 C 686.625 241.839844 687.109375 241.34375 687.824219 241.34375 C 688.175781 241.34375 688.582031 241.464844 689.015625 241.714844 C 690.339844 242.480469 691.410156 244.167969 691.410156 245.492188 C 691.410156 246.375 690.925781 246.875 690.210938 246.875 " fill-opacity="1" fill-rule="nonzero"/><path fill="#d3d3d3" d="M 699.632812 252.3125 C 699.277344 252.3125 698.871094 252.195312 698.4375 251.941406 C 697.117188 251.179688 696.042969 249.492188 696.042969 248.164062 C 696.042969 247.28125 696.527344 246.78125 697.242188 246.78125 C 697.597656 246.78125 698.003906 246.902344 698.4375 247.15625 C 699.761719 247.917969 700.828125 249.613281 700.828125 250.929688 C 700.828125 251.816406 700.347656 252.3125 699.632812 252.3125 " fill-opacity="1" fill-rule="nonzero"/><path fill="#d3d3d3" d="M 709.050781 257.753906 C 708.699219 257.753906 708.292969 257.632812 707.855469 257.382812 C 706.53125 256.621094 705.464844 254.929688 705.464844 253.605469 C 705.464844 252.71875 705.949219 252.226562 706.664062 252.226562 C 707.011719 252.226562 707.421875 252.34375 707.855469 252.59375 C 709.175781 253.359375 710.25 255.050781 710.25 256.371094 C 710.25 257.257812 709.765625 257.753906 709.050781 257.753906 " fill-opacity="1" fill-rule="nonzero"/><path fill="#d3d3d3" d="M 718.472656 263.195312 C 718.117188 263.195312 717.710938 263.074219 717.277344 262.820312 C 715.953125 262.0625 714.882812 260.371094 714.882812 259.050781 C 714.882812 258.160156 715.363281 257.667969 716.082031 257.667969 C 716.429688 257.667969 716.84375 257.78125 717.277344 258.035156 C 718.597656 258.796875 719.667969 260.492188 719.667969 261.8125 C 719.667969 262.699219 719.1875 263.195312 718.472656 263.195312 " fill-opacity="1" fill-rule="nonzero"/><path fill="#f0f0f0" d="M 716.550781 175.148438 C 716.550781 192.875 702.1875 198.949219 684.464844 188.710938 C 666.746094 178.480469 652.382812 155.8125 652.382812 138.082031 C 652.382812 120.355469 666.746094 114.285156 684.464844 124.519531 C 702.1875 134.75 716.550781 157.417969 716.550781 175.148438 " fill-opacity="1" fill-rule="nonzero"/><g clip-path="url(#38b49b5de3)"><g clip-path="url(#613b2f3d0e)"><path fill="#edab95" d="M 668.6875 182.507812 L 669.925781 176.058594 C 670.273438 174.269531 669.195312 171.796875 667.519531 170.546875 C 665.847656 169.289062 664.210938 169.722656 663.871094 171.511719 L 662.449219 178.902344 L 668.6875 182.507812 " fill-opacity="1" fill-rule="nonzero"/></g></g><g clip-path="url(#6795f6f447)"><g clip-path="url(#036d0bd7c3)"><path fill="#323232" d="M 678.664062 165.121094 C 665.085938 157.503906 663.320312 167.222656 662.773438 170.042969 L 661.847656 174.820312 L 670.644531 181.429688 L 672.039062 174.238281 C 672.527344 171.6875 678.664062 165.121094 678.664062 165.121094 " fill-opacity="1" fill-rule="nonzero"/></g></g><g clip-path="url(#355ee59cab)"><g clip-path="url(#f6cc2b4f3d)"><path fill="#edab95" d="M 700.246094 200.730469 L 706.484375 204.335938 L 705.0625 195.308594 C 704.71875 193.121094 703.085938 190.800781 701.414062 190.125 C 699.742188 189.441406 698.664062 190.664062 699.007812 192.855469 L 700.246094 200.730469 " fill-opacity="1" fill-rule="nonzero"/></g></g><g clip-path="url(#354d69bf65)"><g clip-path="url(#6ebd78bd12)"><path fill="#323232" d="M 690.25 171.808594 C 703.828125 179.875 705.621094 191.65625 706.160156 195.105469 L 707.082031 200.945312 L 698.289062 197.390625 L 696.898438 188.601562 C 696.40625 185.480469 690.25 171.808594 690.25 171.808594 " fill-opacity="1" fill-rule="nonzero"/></g></g><g clip-path="url(#215a3b02be)"><g clip-path="url(#003541ecb1)"><path fill="#323232" d="M 697.359375 199.0625 L 697.359375 187.445312 C 697.359375 180.316406 691.589844 171.207031 684.464844 167.097656 C 677.34375 162.984375 671.574219 165.425781 671.574219 172.546875 L 671.574219 184.171875 L 697.359375 199.0625 " fill-opacity="1" fill-rule="nonzero"/></g></g><g clip-path="url(#3e5b61ad25)"><g clip-path="url(#439fcfed66)"><path fill="#f3b39d" d="M 678.839844 146.785156 C 678.839844 148.484375 677.871094 149.296875 676.175781 148.320312 C 674.484375 147.34375 673.109375 145.175781 673.109375 143.476562 C 673.109375 141.785156 673.832031 140.828125 675.527344 141.804688 C 677.21875 142.785156 678.839844 145.09375 678.839844 146.785156 " fill-opacity="1" fill-rule="nonzero"/></g></g><g clip-path="url(#37da31b229)"><g clip-path="url(#a24f0fc3a6)"><path fill="#e8a896" d="M 677.636719 146.09375 C 677.636719 147.210938 677.132812 147.832031 676.015625 147.1875 C 674.894531 146.539062 673.984375 145.109375 673.984375 143.984375 C 673.984375 142.863281 674.242188 142.105469 675.363281 142.753906 C 676.480469 143.402344 677.636719 144.972656 677.636719 146.09375 " fill-opacity="1" fill-rule="nonzero"/></g></g><g clip-path="url(#73e458348c)"><g clip-path="url(#5157a1128c)"><path fill="#f3b39d" d="M 695.808594 156.589844 C 695.808594 158.285156 694.433594 158.863281 692.742188 157.886719 C 691.050781 156.910156 690.085938 154.976562 690.085938 153.285156 C 690.085938 151.585938 691.699219 151.152344 693.390625 152.128906 C 695.085938 153.105469 695.808594 154.898438 695.808594 156.589844 " fill-opacity="1" fill-rule="nonzero"/></g></g><g clip-path="url(#a97ac65e26)"><g clip-path="url(#f2e4bb508e)"><path fill="#e8a896" d="M 694.933594 156.082031 C 694.933594 157.207031 694.023438 157.585938 692.90625 156.941406 C 691.785156 156.296875 691.285156 155.097656 691.285156 153.980469 C 691.285156 152.859375 692.4375 152.617188 693.554688 153.261719 C 694.675781 153.90625 694.933594 154.96875 694.933594 156.082031 " fill-opacity="1" fill-rule="nonzero"/></g></g><g clip-path="url(#7c8d83688c)"><g clip-path="url(#e19a29c2df)"><path fill="#181818" d="M 674.597656 136.828125 L 674.597656 140.421875 C 674.597656 143.574219 675.691406 145.71875 677.046875 146.496094 L 677.046875 138.242188 L 674.597656 136.828125 " fill-opacity="1" fill-rule="nonzero"/></g></g><g clip-path="url(#9cdcb1d677)"><g clip-path="url(#91f7ee8edd)"><path fill="#181818" d="M 691.875 146.808594 L 691.875 155.0625 C 693.226562 155.84375 694.320312 154.585938 694.320312 151.8125 L 694.320312 148.222656 L 691.875 146.808594 " fill-opacity="1" fill-rule="nonzero"/></g></g><g clip-path="url(#2f8fd369ac)"><g clip-path="url(#e47ea77363)"><path fill="#edab95" d="M 680.6875 157.167969 L 680.6875 163.542969 C 680.6875 165.628906 682.375 168.296875 684.460938 169.5 C 686.542969 170.699219 688.230469 169.988281 688.230469 167.90625 L 688.230469 161.523438 L 680.6875 157.167969 " fill-opacity="1" fill-rule="nonzero"/></g></g><g clip-path="url(#c82e443f5a)"><g clip-path="url(#725460528b)"><path fill="#de897c" d="M 680.6875 157.167969 L 680.6875 161.683594 C 681.828125 162.898438 683.109375 163.941406 684.460938 164.722656 C 685.8125 165.503906 687.09375 165.933594 688.230469 166.042969 L 688.230469 161.523438 L 680.6875 157.167969 " fill-opacity="1" fill-rule="nonzero"/></g></g><g clip-path="url(#39ba4c2ddf)"><g clip-path="url(#760454bee3)"><path fill="#fbb89e" d="M 684.460938 137.183594 C 679.660156 134.40625 675.769531 136.054688 675.769531 140.859375 L 675.769531 150.203125 C 675.769531 155.003906 679.660156 161.140625 684.460938 163.917969 C 689.257812 166.6875 693.148438 165.042969 693.148438 160.242188 L 693.148438 150.894531 C 693.148438 146.09375 689.257812 139.953125 684.460938 137.183594 " fill-opacity="1" fill-rule="nonzero"/></g></g><g clip-path="url(#7b59c45b69)"><g clip-path="url(#ce4f1382a3)"><path fill="#282828" d="M 690.273438 171.890625 L 684.460938 171.265625 L 678.644531 165.175781 L 679.75 162.234375 L 683.019531 165.339844 L 684.460938 167.832031 L 685.898438 167 L 689.167969 167.667969 L 690.273438 171.890625 " fill-opacity="1" fill-rule="nonzero"/></g></g><g clip-path="url(#99aca97033)"><g clip-path="url(#4c71353f73)"><path fill="#323232" d="M 693.441406 138.242188 C 693.660156 142.191406 690.675781 139.640625 690.675781 139.640625 C 692.84375 139.710938 690.621094 135.398438 690.621094 135.398438 C 680.03125 128.242188 677.066406 130.78125 675.519531 133.136719 C 675.042969 133.867188 674.597656 135.25 674.597656 136.828125 C 674.597656 138.714844 674.597656 140.152344 674.597656 140.152344 C 674.597656 140.152344 675.769531 135.15625 684.800781 140.464844 C 687.890625 142.28125 692.386719 146.359375 694.320312 151.542969 L 694.320312 147.832031 C 698.097656 144.308594 693.441406 138.242188 693.441406 138.242188 " fill-opacity="1" fill-rule="nonzero"/></g></g><path fill="#1e8061" d="M 735.175781 131.046875 C 732.515625 129.515625 729.125 129.667969 726.875 131.65625 L 738.363281 149.195312 C 740.746094 148.839844 743.117188 145.914062 743.117188 143.585938 C 743.117188 139.195312 739.558594 133.582031 735.175781 131.046875 " fill-opacity="1" fill-rule="nonzero"/><path fill="#39bc92" d="M 733.058594 132.269531 C 728.667969 129.738281 725.117188 131.242188 725.117188 135.632812 C 725.117188 140.015625 728.667969 145.628906 733.058594 148.164062 C 737.445312 150.699219 741.003906 149.195312 741.003906 144.804688 C 741.003906 140.417969 737.445312 134.804688 733.058594 132.269531 " fill-opacity="1" fill-rule="nonzero"/><path fill="#21745a" d="M 741 144.890625 C 741.003906 144.863281 741.003906 144.832031 741.003906 144.804688 C 741.003906 144.789062 741.003906 144.773438 741.003906 144.761719 L 741.003906 144.804688 C 741.003906 144.832031 741.003906 144.863281 741 144.890625 " fill-opacity="1" fill-rule="nonzero"/><path fill="#38a784" d="M 737.027344 149.390625 C 736.53125 149.390625 736.011719 149.324219 735.460938 149.179688 L 732.429688 144.769531 L 729.363281 137.445312 L 732.964844 141.476562 L 738.574219 141.300781 L 741.003906 144.761719 C 741.003906 144.773438 741.003906 144.789062 741.003906 144.804688 C 741.003906 144.832031 741.003906 144.863281 741 144.890625 C 740.96875 147.78125 739.378906 149.390625 737.027344 149.390625 " fill-opacity="1" fill-rule="nonzero"/><path fill="#ffffff" d="M 732.429688 144.769531 L 728.019531 138.113281 L 729.363281 137.445312 L 732.289062 141.859375 L 737.089844 139.144531 L 738.574219 141.300781 L 732.429688 144.769531 " fill-opacity="1" fill-rule="nonzero"/><path fill="#fd7415" d="M 521.019531 130.402344 C 522.078125 129.402344 524.246094 128.28125 521.535156 126.652344 C 518.949219 125.09375 519.617188 122.257812 520.410156 119.367188 C 521.226562 116.324219 523.632812 114.339844 524.890625 113.332031 C 526.164062 112.320312 527.386719 110.363281 525.992188 108.644531 C 524.300781 106.566406 525.308594 103.824219 525.300781 103.824219 C 527.730469 94.613281 531.601562 89.195312 535.675781 86.648438 C 539.765625 84.148438 547.628906 84.09375 551.390625 85.542969 C 555.132812 87.042969 559.238281 90.402344 560.171875 99.164062 C 560.167969 99.164062 560.773438 101.445312 559.546875 103.765625 C 558.304688 106.082031 558.792969 108.371094 559.933594 109.054688 C 561.046875 109.746094 562.105469 111.296875 562.433594 114.183594 C 562.753906 116.921875 561.007812 119.0625 559.210938 119.402344 C 556.023438 120.007812 558.863281 123.621094 561.128906 124.535156 C 563.042969 125.304688 565.589844 126.632812 565.949219 130.347656 C 566.355469 134.070312 560.902344 137.261719 560.875 137.25 C 553.769531 140.132812 546.519531 142.59375 539.152344 144.59375 C 531.960938 144.539062 527.890625 147.5625 521.109375 146.539062 C 521.082031 146.554688 515.46875 138.71875 516.511719 134.804688 C 517.5 130.910156 519.15625 132.15625 521.019531 130.402344 " fill-opacity="1" fill-rule="nonzero"/><path fill="#1a1a1a" d="M 571.660156 301.019531 C 569.359375 302.730469 563.101562 305.382812 558.464844 301.898438 C 556.484375 300.410156 555.316406 295.671875 553.371094 292.015625 L 553.3125 296.683594 C 553.0625 297.800781 552.722656 298.71875 551.59375 298.523438 C 550.707031 298.371094 550.144531 297.277344 550.203125 296.378906 C 550.296875 294.957031 550.042969 291.644531 549.089844 290.441406 C 547.527344 288.457031 545.582031 282.027344 549.992188 278.46875 L 565.320312 292.894531 L 571.734375 298.09375 C 572.675781 298.859375 572.632812 300.300781 571.660156 301.019531 " fill-opacity="1" fill-rule="nonzero"/><path fill="#ffcdbc" d="M 562.230469 227.84375 C 562.230469 227.84375 555.339844 276.683594 558.257812 281.476562 C 561.171875 286.273438 565.753906 292.730469 565.96875 294.609375 C 566.175781 296.484375 561.800781 298.148438 558.675781 294.609375 C 555.546875 291.0625 548.464844 283.558594 549.71875 279.597656 C 550.96875 275.640625 550.070312 266.949219 548.78125 261.050781 C 547.773438 256.457031 545.34375 233.042969 547.636719 225.582031 L 562.230469 227.84375 " fill-opacity="1" fill-rule="nonzero"/><path fill="#1a1a1a" d="M 554.121094 308.996094 C 551.820312 310.703125 545.5625 313.355469 540.929688 309.871094 C 538.945312 308.382812 537.78125 303.644531 535.835938 299.988281 L 535.773438 304.660156 C 535.523438 305.777344 535.183594 306.691406 534.058594 306.496094 C 533.167969 306.34375 532.601562 305.25 532.667969 304.351562 C 532.757812 302.929688 532.507812 299.617188 531.554688 298.414062 C 529.992188 296.429688 528.046875 290 532.453125 286.441406 L 547.785156 300.871094 L 554.195312 306.074219 C 555.136719 306.832031 555.097656 308.273438 554.121094 308.996094 " fill-opacity="1" fill-rule="nonzero"/><path fill="#ffcdbc" d="M 544.695312 235.816406 C 544.695312 235.816406 537.804688 284.65625 540.71875 289.449219 C 543.636719 294.246094 548.21875 300.707031 548.425781 302.582031 C 548.636719 304.457031 544.261719 306.125 541.140625 302.582031 C 538.011719 299.039062 530.929688 291.53125 532.179688 287.578125 C 533.429688 283.617188 532.53125 274.925781 531.242188 269.023438 C 530.234375 264.429688 527.804688 241.015625 530.09375 233.558594 L 544.695312 235.816406 " fill-opacity="1" fill-rule="nonzero"/><path fill="#ffcdbc" d="M 564.382812 157.972656 C 567.527344 161.152344 581.050781 171.96875 581.050781 171.96875 C 581.050781 171.96875 585.472656 188.15625 593.78125 181.835938 C 602.109375 175.507812 584.847656 168.234375 584.847656 168.234375 C 584.847656 168.234375 573.402344 154.996094 571.242188 152.800781 C 569.859375 151.402344 567.773438 138.90625 563.339844 130.558594 C 560.808594 125.796875 556.933594 122.148438 553.445312 123.285156 C 550.066406 124.382812 548.808594 126.917969 550.601562 132.53125 C 553.597656 141.902344 562.417969 155.988281 564.382812 157.972656 " fill-opacity="1" fill-rule="nonzero"/><path fill="#d3d6df" d="M 578.316406 173.070312 C 578.316406 173.070312 567.078125 162.890625 564.027344 160.324219 C 560.980469 157.761719 554.957031 146.109375 550.898438 137.472656 C 546.835938 128.84375 549.15625 123.875 553.210938 121.570312 C 557.261719 119.269531 563.238281 125.960938 564.429688 129.558594 C 565.4375 132.597656 568.929688 144.078125 569.929688 146.824219 C 570.9375 149.570312 585.078125 164.859375 585.078125 164.859375 C 585.078125 164.859375 583.71875 169.921875 578.316406 173.070312 " fill-opacity="1" fill-rule="nonzero"/><path fill="#e75f84" d="M 532.585938 178.394531 C 532.585938 178.394531 524.277344 194.25 526.695312 207.875 C 529.113281 221.496094 527.242188 236.828125 527.242188 236.828125 C 527.242188 236.828125 550.71875 248.070312 563.761719 233.558594 C 563.761719 233.558594 567.988281 190.109375 560.042969 174.074219 L 532.585938 178.394531 " fill-opacity="1" fill-rule="nonzero"/><path fill="#ecedf4" d="M 525.359375 133.710938 C 525.359375 133.710938 531.296875 126.503906 539.664062 123.902344 C 548.03125 121.292969 557.996094 120.148438 560.777344 123.902344 C 563.550781 127.648438 562.578125 136.679688 562.578125 139.320312 L 564.757812 144.378906 C 565.738281 146.660156 565.796875 149.230469 564.917969 151.554688 L 563.320312 155.324219 L 560.042969 174.074219 C 560.042969 174.074219 550.84375 188.761719 532.585938 178.394531 C 532.585938 178.394531 532.691406 171.601562 532.214844 165.441406 L 531.332031 164.707031 C 519.03125 142.03125 525.359375 133.710938 525.359375 133.710938 " fill-opacity="1" fill-rule="nonzero"/><path fill="#eeb8a7" d="M 545.527344 114.171875 L 549.390625 121.773438 L 550.414062 126.226562 L 540.828125 129.417969 L 536.609375 125.007812 C 536.609375 125.007812 539.371094 118.378906 537.460938 112.917969 L 545.527344 114.171875 " fill-opacity="1" fill-rule="nonzero"/><path fill="#e3e3e3" d="M 549.390625 121.773438 C 549.390625 121.773438 549.390625 128.234375 536.609375 125.007812 L 533.160156 126.984375 C 533.304688 130.835938 548.03125 131.265625 551.660156 126.445312 C 555.285156 121.625 552.796875 121.066406 549.390625 121.773438 " fill-opacity="1" fill-rule="nonzero"/><path fill="#ffcdbc" d="M 558.558594 101.511719 C 558.558594 101.511719 557.515625 117.34375 551.632812 121.9375 C 548.726562 124.207031 538.40625 117.578125 537.214844 112.460938 C 536.621094 109.921875 532.980469 92.554688 540.917969 91.15625 C 552.859375 89.058594 558.730469 95.671875 558.558594 101.511719 " fill-opacity="1" fill-rule="nonzero"/><path fill="#df6116" d="M 536.445312 108.375 C 536.445312 108.375 542.65625 104.296875 543.261719 96.527344 C 543.261719 96.527344 542.988281 100.839844 551.40625 101.652344 C 558.808594 102.363281 557.128906 104.785156 557.808594 107.398438 C 557.808594 107.398438 562.453125 90.257812 550.070312 87.988281 C 542.917969 86.679688 531.589844 88.660156 536.445312 108.375 " fill-opacity="1" fill-rule="nonzero"/><path fill="#ffcdbc" d="M 537.140625 106.121094 C 537.285156 108.058594 538.71875 109.535156 540.328125 109.414062 C 541.941406 109.292969 543.128906 107.621094 542.984375 105.679688 C 542.839844 103.742188 541.414062 102.269531 539.800781 102.390625 C 538.1875 102.507812 536.996094 104.179688 537.140625 106.121094 " fill-opacity="1" fill-rule="nonzero"/><path fill="#b6bcca" d="M 544.425781 182.386719 C 554.277344 182.386719 560.390625 177.125 561.109375 176.585938 L 560.355469 172.265625 C 560.355469 172.265625 556.847656 175.28125 552.050781 176.9375 C 545.871094 179.070312 538.414062 178.640625 532.785156 174.714844 L 532.179688 179.214844 C 536.109375 181.953125 540.613281 182.386719 544.425781 182.386719 " fill-opacity="1" fill-rule="nonzero"/><path fill="#5b79cc" d="M 575.734375 231.519531 C 569.363281 231.519531 564.207031 226.355469 564.207031 219.984375 L 564.207031 151.75 C 564.207031 145.378906 569.363281 140.214844 575.734375 140.214844 C 582.101562 140.214844 587.261719 145.378906 587.261719 151.75 L 587.261719 219.984375 C 587.261719 226.355469 582.101562 231.519531 575.734375 231.519531 " fill-opacity="1" fill-rule="nonzero"/><path fill="#ffffff" d="M 570.820312 167.085938 L 583.210938 167.085938 L 583.210938 168.722656 L 572.285156 168.722656 L 572.285156 174.828125 L 570.820312 174.828125 L 570.820312 167.085938 " fill-opacity="1" fill-rule="nonzero"/><path fill="#ffffff" d="M 575.308594 177.585938 C 574.160156 177.585938 573.300781 177.835938 572.730469 178.339844 C 572.152344 178.84375 571.867188 179.472656 571.867188 180.234375 C 571.867188 180.988281 572.160156 181.617188 572.734375 182.117188 C 573.308594 182.621094 574.183594 182.871094 575.363281 182.871094 C 576.46875 182.871094 577.3125 182.621094 577.886719 182.117188 C 578.457031 181.609375 578.742188 180.980469 578.742188 180.234375 C 578.742188 179.472656 578.457031 178.84375 577.886719 178.339844 C 577.320312 177.835938 576.460938 177.585938 575.308594 177.585938 Z M 575.308594 176.019531 C 576.972656 176.019531 578.207031 176.484375 579.003906 177.40625 C 579.667969 178.179688 580.003906 179.125 580.003906 180.234375 C 580.003906 181.46875 579.597656 182.472656 578.785156 183.257812 C 577.976562 184.046875 576.863281 184.4375 575.4375 184.4375 C 574.28125 184.4375 573.371094 184.261719 572.710938 183.914062 C 572.046875 183.566406 571.535156 183.0625 571.167969 182.402344 C 570.800781 181.738281 570.617188 181.019531 570.617188 180.234375 C 570.617188 178.972656 571.023438 177.957031 571.824219 177.183594 C 572.632812 176.410156 573.792969 176.019531 575.308594 176.019531 " fill-opacity="1" fill-rule="nonzero"/><path fill="#ffffff" d="M 575.46875 187.203125 C 574.289062 187.203125 573.433594 187.433594 572.894531 187.90625 C 572.351562 188.375 572.082031 188.957031 572.082031 189.664062 C 572.082031 190.359375 572.347656 190.945312 572.886719 191.417969 C 573.425781 191.894531 574.269531 192.128906 575.421875 192.128906 C 576.519531 192.128906 577.34375 191.890625 577.90625 191.398438 C 578.460938 190.910156 578.742188 190.320312 578.742188 189.636719 C 578.742188 188.957031 578.464844 188.382812 577.914062 187.910156 C 577.367188 187.433594 576.550781 187.203125 575.46875 187.203125 Z M 570.074219 185.941406 L 569.859375 187.421875 C 569.398438 187.484375 569.070312 187.652344 568.863281 187.9375 C 568.578125 188.316406 568.4375 188.828125 568.4375 189.484375 C 568.4375 190.191406 568.578125 190.734375 568.863281 191.113281 C 569.144531 191.496094 569.539062 191.757812 570.042969 191.894531 C 570.355469 191.972656 571.003906 192.007812 571.996094 192.003906 C 571.210938 191.335938 570.820312 190.511719 570.820312 189.519531 C 570.820312 188.28125 571.265625 187.328125 572.160156 186.652344 C 573.046875 185.976562 574.117188 185.636719 575.363281 185.636719 C 576.214844 185.636719 577.007812 185.792969 577.730469 186.101562 C 578.457031 186.410156 579.015625 186.859375 579.410156 187.449219 C 579.804688 188.039062 580.003906 188.730469 580.003906 189.527344 C 580.003906 190.589844 579.574219 191.457031 578.71875 192.148438 L 579.800781 192.148438 L 579.800781 193.550781 L 572.039062 193.550781 C 570.640625 193.550781 569.648438 193.40625 569.066406 193.125 C 568.484375 192.839844 568.019531 192.386719 567.6875 191.773438 C 567.34375 191.152344 567.175781 190.394531 567.175781 189.492188 C 567.175781 188.421875 567.417969 187.554688 567.902344 186.898438 C 568.382812 186.238281 569.109375 185.917969 570.074219 185.941406 " fill-opacity="1" fill-rule="nonzero"/><path fill="#ffffff" d="M 570.820312 195.859375 L 579.800781 195.859375 L 579.800781 197.382812 L 570.820312 197.382812 Z M 581.460938 195.859375 L 583.210938 195.859375 L 583.210938 197.382812 L 581.460938 197.382812 L 581.460938 195.859375 " fill-opacity="1" fill-rule="nonzero"/><path fill="#ffffff" d="M 570.820312 199.699219 L 579.800781 199.699219 L 579.800781 201.070312 L 578.519531 201.070312 C 579.503906 201.726562 580.003906 202.679688 580.003906 203.929688 C 580.003906 204.46875 579.90625 204.96875 579.707031 205.417969 C 579.515625 205.871094 579.257812 206.214844 578.945312 206.4375 C 578.625 206.664062 578.253906 206.820312 577.820312 206.910156 C 577.539062 206.96875 577.046875 207 576.339844 207 L 570.820312 207 L 570.820312 205.476562 L 576.28125 205.476562 C 576.898438 205.476562 577.363281 205.417969 577.671875 205.296875 C 577.976562 205.179688 578.222656 204.96875 578.40625 204.667969 C 578.59375 204.367188 578.683594 204.011719 578.683594 203.605469 C 578.683594 202.957031 578.476562 202.402344 578.066406 201.925781 C 577.652344 201.457031 576.871094 201.21875 575.726562 201.21875 L 570.820312 201.21875 L 570.820312 199.699219 " fill-opacity="1" fill-rule="nonzero"/><path fill="#ffcdbc" d="M 559.25 162.292969 C 559.25 162.292969 545.722656 163.8125 540.453125 164.535156 L 543.789062 172.265625 C 550.316406 170.53125 560.183594 167.535156 560.183594 167.535156 C 560.183594 167.535156 576.023438 173.046875 575.519531 162.617188 C 575.015625 152.167969 559.25 162.292969 559.25 162.292969 " fill-opacity="1" fill-rule="nonzero"/><path fill="#d3d6df" d="M 524.351562 133.953125 C 532.417969 130.378906 534.730469 138.914062 535.300781 145.457031 C 535.875 152 533.757812 163.46875 535.421875 163.84375 C 537.664062 164.347656 557.015625 160.859375 557.015625 160.859375 C 557.015625 160.859375 562.285156 166.476562 557.703125 170.109375 C 557.703125 170.109375 528.289062 178.84375 525.957031 174.417969 C 523.632812 170 517.242188 137.105469 524.351562 133.953125 " fill-opacity="1" fill-rule="nonzero"/><path fill="#323232" d="M 621.78125 331.371094 L 639.175781 341.417969 L 570.320312 381.1875 L 552.925781 371.140625 L 621.78125 331.371094 " fill-opacity="1" fill-rule="nonzero"/><path fill="#ffffff" d="M 584.230469 367.285156 L 574.882812 361.886719 L 576.117188 361.167969 L 584.363281 365.933594 L 588.96875 363.273438 L 590.070312 363.910156 L 584.230469 367.285156 " fill-opacity="1" fill-rule="nonzero"/><path fill="#ffffff" d="M 588.765625 360.753906 C 589.636719 361.257812 590.472656 361.523438 591.285156 361.550781 C 592.089844 361.582031 592.78125 361.429688 593.355469 361.101562 C 593.925781 360.773438 594.183594 360.371094 594.128906 359.902344 C 594.074219 359.433594 593.605469 358.945312 592.714844 358.429688 C 591.875 357.945312 591.050781 357.6875 590.238281 357.660156 C 589.429688 357.628906 588.738281 357.78125 588.171875 358.109375 C 587.597656 358.4375 587.335938 358.835938 587.386719 359.304688 C 587.4375 359.765625 587.902344 360.25 588.765625 360.753906 Z M 587.585938 361.4375 C 586.335938 360.710938 585.75 359.976562 585.847656 359.222656 C 585.929688 358.597656 586.386719 358.042969 587.222656 357.558594 C 588.152344 357.019531 589.21875 356.753906 590.421875 356.765625 C 591.621094 356.78125 592.757812 357.09375 593.835938 357.71875 C 594.707031 358.21875 595.261719 358.6875 595.5 359.128906 C 595.738281 359.570312 595.746094 360.015625 595.523438 360.457031 C 595.300781 360.910156 594.894531 361.304688 594.300781 361.644531 C 593.351562 362.195312 592.285156 362.460938 591.089844 362.445312 C 589.898438 362.433594 588.726562 362.097656 587.585938 361.4375 " fill-opacity="1" fill-rule="nonzero"/><path fill="#ffffff" d="M 595.894531 356.492188 C 596.785156 357.011719 597.605469 357.28125 598.371094 357.316406 C 599.132812 357.34375 599.777344 357.210938 600.308594 356.898438 C 600.835938 356.59375 601.074219 356.222656 601.027344 355.785156 C 600.980469 355.34375 600.519531 354.871094 599.648438 354.371094 C 598.824219 353.894531 598.011719 353.636719 597.222656 353.609375 C 596.4375 353.574219 595.785156 353.710938 595.265625 354.007812 C 594.753906 354.304688 594.527344 354.675781 594.585938 355.121094 C 594.644531 355.566406 595.078125 356.023438 595.894531 356.492188 Z M 599.011719 359.394531 L 600.292969 358.84375 C 600.6875 359.019531 601.066406 359.085938 601.4375 359.058594 C 601.929688 359.011719 602.429688 358.847656 602.921875 358.570312 C 603.453125 358.257812 603.757812 357.960938 603.835938 357.667969 C 603.910156 357.382812 603.8125 357.097656 603.527344 356.816406 C 603.355469 356.648438 602.894531 356.347656 602.140625 355.917969 C 602.226562 356.546875 601.898438 357.078125 601.148438 357.515625 C 600.21875 358.050781 599.164062 358.273438 597.976562 358.179688 C 596.796875 358.085938 595.738281 357.765625 594.796875 357.230469 C 594.148438 356.851562 593.671875 356.441406 593.363281 355.992188 C 593.046875 355.542969 592.964844 355.101562 593.109375 354.671875 C 593.261719 354.242188 593.632812 353.855469 594.230469 353.511719 C 595.03125 353.046875 596.011719 352.851562 597.175781 352.925781 L 596.359375 352.457031 L 597.421875 351.84375 L 603.273438 355.226562 C 604.328125 355.835938 604.96875 356.328125 605.195312 356.707031 C 605.421875 357.082031 605.425781 357.480469 605.21875 357.902344 C 605.003906 358.3125 604.5625 358.71875 603.878906 359.109375 C 603.070312 359.578125 602.234375 359.851562 601.375 359.925781 C 600.515625 360.003906 599.726562 359.824219 599.011719 359.394531 " fill-opacity="1" fill-rule="nonzero"/><path fill="#ffffff" d="M 605.933594 354.753906 L 599.164062 350.835938 L 600.308594 350.175781 L 607.078125 354.085938 Z M 597.90625 350.113281 L 596.585938 349.351562 L 597.730469 348.683594 L 599.050781 349.449219 L 597.90625 350.113281 " fill-opacity="1" fill-rule="nonzero"/><path fill="#ffffff" d="M 608.828125 353.082031 L 602.058594 349.167969 L 603.089844 348.570312 L 604.054688 349.125 C 603.808594 348.410156 604.148438 347.78125 605.09375 347.234375 C 605.5 347.003906 605.949219 346.828125 606.4375 346.710938 C 606.925781 346.601562 607.375 346.5625 607.785156 346.605469 C 608.191406 346.640625 608.589844 346.738281 608.988281 346.886719 C 609.246094 346.984375 609.636719 347.1875 610.167969 347.496094 L 614.332031 349.898438 L 613.183594 350.5625 L 609.066406 348.183594 C 608.597656 347.910156 608.207031 347.738281 607.882812 347.65625 C 607.558594 347.574219 607.21875 347.558594 606.851562 347.605469 C 606.484375 347.660156 606.152344 347.777344 605.839844 347.949219 C 605.351562 348.234375 605.085938 348.5625 605.042969 348.949219 C 605 349.339844 605.410156 349.777344 606.277344 350.28125 L 609.972656 352.414062 L 608.828125 353.082031 " fill-opacity="1" fill-rule="nonzero"/><path fill="#ee6a4a" d="M 610.742188 337.746094 L 578.546875 376.433594 L 590.070312 369.78125 L 619.171875 333.527344 L 610.742188 337.746094 " fill-opacity="1" fill-rule="nonzero"/><path fill="#d5d9e5" d="M 714.003906 394.769531 L 661.132812 425.308594 L 607.507812 394.769531 L 607.507812 387.589844 L 660.339844 364.042969 L 714.003906 387.589844 L 714.003906 394.769531 " fill-opacity="1" fill-rule="nonzero"/><path fill="#ffffff" d="M 714.003906 387.589844 L 661.132812 418.128906 L 607.507812 387.589844 L 660.339844 356.855469 L 714.003906 387.589844 " fill-opacity="1" fill-rule="nonzero"/><g clip-path="url(#8c1a0fce6b)"><g clip-path="url(#49d8caaa75)"><path fill="#edab95" d="M 676.703125 411.921875 L 671.785156 407.890625 C 670.421875 406.777344 667.996094 406.40625 666.367188 407.070312 C 664.738281 407.738281 664.527344 409.179688 665.894531 410.296875 L 671.527344 414.910156 L 676.703125 411.921875 " fill-opacity="1" fill-rule="nonzero"/></g></g><g clip-path="url(#82c8c4abe3)"><g clip-path="url(#5f407c99eb)"><path fill="#323232" d="M 665.785156 396.050781 C 654.699219 402.660156 662.140625 408.660156 664.289062 410.421875 L 667.925781 413.40625 L 676.496094 409.921875 L 671.019531 405.425781 C 669.074219 403.835938 665.785156 396.050781 665.785156 396.050781 " fill-opacity="1" fill-rule="nonzero"/></g></g><g clip-path="url(#b0fd66ecc0)"><g clip-path="url(#3ebece5544)"><path fill="#edab95" d="M 702.882812 396.796875 L 708.058594 393.808594 L 700.074219 390.554688 C 698.140625 389.765625 695.644531 389.886719 694.492188 390.828125 C 693.347656 391.765625 693.984375 393.167969 695.914062 393.957031 L 702.882812 396.796875 " fill-opacity="1" fill-rule="nonzero"/></g></g><g clip-path="url(#acf602f5ad)"><g clip-path="url(#f086a8c56f)"><path fill="#323232" d="M 675.386719 390.496094 C 686.835938 384.09375 697.242188 388.386719 700.292969 389.625 L 705.460938 391.726562 L 699.429688 396.675781 L 691.644531 393.511719 C 688.890625 392.390625 675.386719 390.496094 675.386719 390.496094 " fill-opacity="1" fill-rule="nonzero"/></g></g><g clip-path="url(#7392927499)"><g clip-path="url(#4c8ef85de6)"><path fill="#323232" d="M 700.492188 398.179688 L 690.855469 392.609375 C 684.941406 389.195312 675.363281 389.195312 669.453125 392.609375 C 663.546875 396.023438 663.546875 401.554688 669.453125 404.96875 L 679.09375 410.539062 L 700.492188 398.179688 " fill-opacity="1" fill-rule="nonzero"/></g></g><g clip-path="url(#aa271d00de)"><g clip-path="url(#a11dcf9c8b)"><path fill="#f3b39d" d="M 650.632812 387.136719 C 652.039062 387.945312 652.375 389.070312 650.96875 389.882812 C 649.5625 390.695312 647.285156 390.695312 645.878906 389.882812 C 644.472656 389.070312 643.9375 388.0625 645.339844 387.25 C 646.746094 386.445312 649.226562 386.324219 650.632812 387.136719 " fill-opacity="1" fill-rule="nonzero"/></g></g><g clip-path="url(#1a220eae28)"><g clip-path="url(#ea39a4a0f6)"><path fill="#e8a896" d="M 649.636719 387.710938 C 650.5625 388.246094 650.902344 388.925781 649.972656 389.460938 C 649.046875 389.996094 647.539062 389.996094 646.609375 389.460938 C 645.683594 388.925781 645.140625 388.367188 646.070312 387.832031 C 646.996094 387.292969 648.707031 387.171875 649.636719 387.710938 " fill-opacity="1" fill-rule="nonzero"/></g></g><g clip-path="url(#4604e0082c)"><g clip-path="url(#3eb41c14bb)"><path fill="#f3b39d" d="M 664.714844 379.003906 C 666.121094 379.8125 666.121094 381.128906 664.714844 381.941406 C 663.3125 382.753906 661.371094 382.554688 659.964844 381.742188 C 658.5625 380.929688 658.761719 379.5 660.167969 378.6875 C 661.574219 377.875 663.3125 378.191406 664.714844 379.003906 " fill-opacity="1" fill-rule="nonzero"/></g></g><g clip-path="url(#be8a7ab0c6)"><g clip-path="url(#d2b42460c2)"><path fill="#e8a896" d="M 663.992188 379.421875 C 664.917969 379.960938 664.917969 380.828125 663.992188 381.367188 C 663.0625 381.902344 661.894531 381.703125 660.960938 381.167969 C 660.03125 380.632812 660.234375 379.644531 661.164062 379.109375 C 662.097656 378.570312 663.0625 378.886719 663.992188 379.421875 " fill-opacity="1" fill-rule="nonzero"/></g></g><g clip-path="url(#a8ec068075)"><g clip-path="url(#47d0cf1c41)"><path fill="#181818" d="M 640.886719 385.566406 L 643.863281 387.289062 C 646.480469 388.804688 648.640625 389 649.765625 388.351562 L 642.917969 384.398438 L 640.886719 385.566406 " fill-opacity="1" fill-rule="nonzero"/></g></g><g clip-path="url(#4378582d20)"><g clip-path="url(#151efe3333)"><path fill="#181818" d="M 655.222656 377.289062 L 662.070312 381.246094 C 663.191406 380.597656 662.53125 379.167969 660.230469 377.835938 L 657.253906 376.117188 L 655.222656 377.289062 " fill-opacity="1" fill-rule="nonzero"/></g></g><g clip-path="url(#731e590724)"><g clip-path="url(#549ed94d2d)"><path fill="#edab95" d="M 659.890625 390.707031 L 665.183594 393.765625 C 666.910156 394.765625 669.714844 394.765625 671.445312 393.765625 C 673.171875 392.769531 673.171875 391.148438 671.445312 390.148438 L 666.15625 387.089844 L 659.890625 390.707031 " fill-opacity="1" fill-rule="nonzero"/></g></g><g clip-path="url(#de6ad7c6fd)"><g clip-path="url(#29d12a80e9)"><path fill="#de897c" d="M 659.890625 390.707031 L 663.636719 392.875 C 665.042969 392.589844 666.359375 392.125 667.484375 391.476562 C 668.601562 390.828125 669.410156 390.070312 669.898438 389.257812 L 666.15625 387.089844 L 659.890625 390.707031 " fill-opacity="1" fill-rule="nonzero"/></g></g><g clip-path="url(#c37c48da4e)"><g clip-path="url(#fd01f6a92f)"><path fill="#fbb89e" d="M 644.636719 378.28125 C 640.65625 380.582031 640.65625 384.3125 644.636719 386.613281 L 652.390625 391.089844 C 656.375 393.390625 662.832031 393.390625 666.8125 391.089844 C 670.796875 388.792969 670.796875 385.058594 666.8125 382.757812 L 659.0625 378.28125 C 655.078125 375.984375 648.621094 375.984375 644.636719 378.28125 " fill-opacity="1" fill-rule="nonzero"/></g></g><g clip-path="url(#46871c90d1)"><g clip-path="url(#967894e7f1)"><path fill="#282828" d="M 675.464844 390.515625 L 672.914062 394.609375 L 665.816406 396.089844 L 663.761719 393.839844 L 667.488281 392.859375 L 670.0625 392.964844 L 669.878906 391.480469 L 671.578125 389.328125 L 675.464844 390.515625 " fill-opacity="1" fill-rule="nonzero"/></g></g><g clip-path="url(#e19551bc50)"><g clip-path="url(#82677dc1bb)"><path fill="#323232" d="M 648.667969 372 C 652.023438 373.726562 648.859375 374.761719 648.859375 374.761719 C 649.679688 373.15625 645.320312 372.769531 645.320312 372.769531 C 635.667969 377.347656 636.734375 380.804688 638.148438 383.101562 C 638.582031 383.8125 639.574219 384.808594 640.886719 385.566406 C 642.449219 386.472656 643.640625 387.164062 643.640625 387.164062 C 643.640625 387.164062 639.910156 383.878906 647.480469 379.597656 C 650.070312 378.132812 655.03125 376.6875 660.011719 377.707031 L 656.929688 375.933594 C 655.335938 371.386719 648.667969 372 648.667969 372 " fill-opacity="1" fill-rule="nonzero"/></g></g><path fill="#ee6a4a" d="M 669.554688 362.132812 L 653.097656 413.550781 L 658.6875 416.734375 L 674.894531 365.191406 L 669.554688 362.132812 " fill-opacity="1" fill-rule="nonzero"/><path fill="#4168d4" d="M 461.292969 320.105469 C 458.242188 323.667969 458.65625 360.410156 455.214844 358.394531 C 438.84375 348.785156 444.976562 320.207031 445.085938 317.710938 C 446.0625 295.835938 450.78125 292.132812 450.78125 292.132812 C 452.4375 291.523438 468.457031 300.019531 467.210938 303.453125 C 464.339844 311.355469 461.292969 320.105469 461.292969 320.105469 " fill-opacity="1" fill-rule="nonzero"/><path fill="#1d0f0f" d="M 460.503906 460.84375 C 462.003906 466.886719 466.996094 466.824219 472.496094 463.269531 C 477.996094 459.714844 482.300781 460.8125 486.5 458.300781 C 496.113281 452.554688 490.109375 446.667969 490.109375 446.667969 L 462.609375 460.894531 L 460.503906 460.84375 " fill-opacity="1" fill-rule="nonzero"/><path fill="#ffffff" d="M 464.441406 464.238281 C 463.464844 464.234375 462.636719 463.875 461.964844 463.160156 C 459.707031 460.75 460.042969 455.140625 460.054688 454.90625 L 460.0625 454.816406 L 473.464844 444.992188 L 473.554688 445.023438 C 473.605469 445.035156 478.863281 446.519531 484.410156 446.519531 C 486 446.519531 487.484375 446.394531 488.8125 446.152344 C 488.949219 446.128906 489.078125 446.121094 489.207031 446.121094 C 489.824219 446.121094 490.292969 446.425781 490.558594 446.996094 C 491.371094 448.730469 490.183594 452.613281 488.066406 455.140625 C 485.835938 457.804688 480.761719 458.441406 477.054688 458.902344 C 475.765625 459.0625 474.652344 459.199219 473.933594 459.398438 C 472.863281 459.6875 472.351562 460.183594 471.703125 460.820312 C 470.722656 461.78125 469.5 462.980469 465.773438 464.035156 C 465.304688 464.167969 464.855469 464.238281 464.441406 464.238281 " fill-opacity="1" fill-rule="nonzero"/><path fill="#1d0f0f" d="M 473.429688 444.789062 L 473.28125 444.894531 L 460.023438 454.613281 L 459.882812 454.714844 L 459.867188 454.890625 C 459.851562 455.132812 459.519531 460.824219 461.832031 463.289062 C 462.535156 464.042969 463.410156 464.421875 464.441406 464.421875 C 464.875 464.421875 465.339844 464.351562 465.828125 464.214844 C 469.597656 463.144531 470.839844 461.929688 471.835938 460.953125 C 472.464844 460.339844 472.960938 459.855469 473.980469 459.574219 C 474.6875 459.386719 475.792969 459.246094 477.074219 459.085938 C 480.816406 458.625 485.933594 457.984375 488.210938 455.261719 C 490.402344 452.636719 491.582031 448.742188 490.734375 446.917969 C 490.433594 446.277344 489.890625 445.929688 489.207031 445.929688 C 489.070312 445.929688 488.925781 445.945312 488.78125 445.96875 C 487.460938 446.210938 485.992188 446.332031 484.410156 446.332031 C 478.886719 446.332031 473.65625 444.851562 473.605469 444.839844 Z M 473.503906 445.199219 C 473.503906 445.199219 478.765625 446.703125 484.410156 446.703125 C 485.890625 446.703125 487.402344 446.601562 488.847656 446.34375 C 488.972656 446.316406 489.09375 446.308594 489.207031 446.308594 C 491.660156 446.308594 490.757812 451.632812 487.925781 455.019531 C 484.957031 458.566406 476.652344 458.464844 473.882812 459.214844 C 471.113281 459.96875 471.886719 462.105469 465.722656 463.855469 C 465.257812 463.984375 464.832031 464.046875 464.441406 464.046875 C 459.65625 464.046875 460.246094 454.914062 460.246094 454.914062 L 473.503906 445.199219 " fill-opacity="1" fill-rule="nonzero"/><path fill="#1d0f0f" d="M 485.042969 462.714844 C 485.738281 469.25 491.425781 470.164062 498.160156 467.597656 C 504.898438 465.027344 509.535156 467 514.648438 465.261719 C 524.914062 461.785156 520.589844 453.980469 520.589844 453.980469 L 487.476562 463.171875 L 485.042969 462.714844 " fill-opacity="1" fill-rule="nonzero"/><path fill="#ffffff" d="M 489.964844 467.054688 C 488.507812 467.054688 487.351562 466.542969 486.507812 465.53125 C 484.046875 462.5625 485.179688 456.371094 485.226562 456.109375 L 485.246094 456.011719 L 501.804688 448.988281 L 501.878906 449.019531 C 501.976562 449.058594 511.371094 453.121094 519.230469 453.203125 C 520.371094 453.21875 520.824219 453.847656 521.003906 454.367188 C 521.660156 456.3125 519.703125 460.097656 516.894531 462.3125 C 515.269531 463.589844 512.671875 464.183594 508.707031 464.183594 C 507.054688 464.183594 505.417969 464.078125 503.964844 463.992188 C 502.824219 463.917969 501.839844 463.855469 501.058594 463.855469 C 500.808594 463.855469 500.589844 463.863281 500.390625 463.878906 C 499.132812 463.960938 498.480469 464.378906 497.648438 464.90625 C 496.394531 465.699219 494.832031 466.6875 490.496094 467.03125 C 490.3125 467.050781 490.136719 467.054688 489.964844 467.054688 " fill-opacity="1" fill-rule="nonzero"/><path fill="#1d0f0f" d="M 501.804688 448.785156 L 501.660156 448.847656 L 485.265625 455.800781 L 485.082031 455.878906 L 485.042969 456.074219 C 484.996094 456.339844 483.851562 462.617188 486.363281 465.652344 C 487.238281 466.707031 488.453125 467.246094 489.964844 467.246094 C 490.144531 467.246094 490.328125 467.234375 490.511719 467.21875 C 494.894531 466.871094 496.476562 465.867188 497.75 465.0625 C 498.558594 464.550781 499.195312 464.144531 500.402344 464.0625 C 500.589844 464.054688 500.804688 464.042969 501.050781 464.042969 C 501.828125 464.042969 502.816406 464.105469 503.957031 464.179688 C 505.40625 464.265625 507.046875 464.367188 508.707031 464.367188 C 512.714844 464.367188 515.355469 463.761719 517.011719 462.457031 C 519.925781 460.160156 521.875 456.355469 521.183594 454.304688 C 520.898438 453.488281 520.207031 453.027344 519.230469 453.019531 C 511.410156 452.933594 502.046875 448.890625 501.957031 448.847656 Z M 501.804688 449.191406 C 501.804688 449.191406 511.242188 453.308594 519.226562 453.390625 C 522.554688 453.429688 520.671875 459.097656 516.773438 462.164062 C 514.902344 463.636719 511.792969 463.992188 508.707031 463.992188 C 505.769531 463.992188 502.855469 463.671875 501.050781 463.671875 C 500.804688 463.671875 500.578125 463.675781 500.375 463.691406 C 497.152344 463.914062 497.667969 466.273438 490.480469 466.847656 C 490.304688 466.863281 490.128906 466.867188 489.964844 466.867188 C 483.394531 466.867188 485.410156 456.144531 485.410156 456.144531 L 501.804688 449.191406 " fill-opacity="1" fill-rule="nonzero"/><path fill="#2c3984" d="M 475.34375 445.652344 C 475.34375 445.652344 473.660156 437.242188 474.828125 428.789062 C 476.140625 419.273438 479.148438 408.332031 478.433594 403.589844 C 477.152344 395.089844 476.476562 387.382812 476.476562 387.382812 C 476.476562 387.382812 483.15625 393.488281 483.976562 402.195312 C 484.796875 410.90625 484.828125 458.875 484.828125 458.875 C 484.828125 458.875 499.820312 461.761719 502.230469 449.15625 C 502.230469 449.15625 499.308594 447.328125 499.308594 441.304688 C 499.308594 435.277344 504.507812 413.917969 503.410156 405.15625 C 502.316406 396.390625 497.386719 360.789062 497.386719 360.789062 L 456.082031 350.769531 C 456.082031 350.769531 454.9375 362.347656 456.082031 376.585938 C 456.773438 385.214844 460.238281 397.53125 459.769531 401.046875 C 458.515625 410.359375 458.300781 449.664062 460.0625 455.414062 C 460.0625 455.414062 470.347656 454.785156 475.34375 445.652344 " fill-opacity="1" fill-rule="nonzero"/><path fill="#849ef7" d="M 457.589844 365.660156 C 455.730469 364.5 454.605469 361.640625 454.613281 359.449219 C 454.648438 351.132812 454.125 326.304688 448.234375 307.714844 C 445.828125 300.132812 449.578125 286.195312 457.019531 287.566406 C 467.265625 289.457031 477.34375 292.140625 486.039062 296.929688 C 489.625 298.90625 493.382812 302.808594 496.175781 304.683594 C 500.570312 307.640625 499.800781 311.148438 499.640625 313.8125 C 498.335938 336.09375 498.457031 353.804688 498.890625 361.714844 C 499.144531 366.179688 496.542969 370.132812 492.261719 371.429688 C 477.804688 375.796875 463.625 369.417969 457.589844 365.660156 " fill-opacity="1" fill-rule="nonzero"/><path fill="#4168d4" d="M 488.238281 323.703125 C 488.238281 323.703125 494.351562 341.128906 498.625 353.007812 L 498.824219 332.324219 L 499.796875 324.765625 L 488.238281 323.703125 " fill-opacity="1" fill-rule="nonzero"/><path fill="#ffcdbc" d="M 504.289062 320.015625 C 504.289062 320.015625 506.957031 321.351562 512.824219 323.574219 C 521.675781 326.929688 522.699219 309.164062 523.609375 303.179688 C 522.769531 299.640625 529.117188 284.433594 534.175781 283.140625 C 539.226562 281.84375 536.605469 295.1875 530.796875 305.433594 C 530.796875 305.433594 529.542969 337.390625 513.082031 337.488281 C 502.988281 337.550781 498.941406 329.570312 498.941406 329.570312 L 504.289062 320.015625 " fill-opacity="1" fill-rule="nonzero"/><path fill="#ffffff" d="M 522.058594 307.804688 L 522.058594 304.714844 C 522.058594 304.714844 529.363281 304.738281 531.449219 307.847656 L 531.011719 311.894531 L 522.058594 307.804688 " fill-opacity="1" fill-rule="nonzero"/><path fill="#849ef7" d="M 531.660156 310.25 C 531.660156 310.25 531.777344 334.703125 519.683594 338.636719 C 507.589844 342.574219 498.308594 333.320312 498.308594 333.320312 L 504.230469 314.960938 C 504.230469 314.960938 511.296875 325.460938 516.527344 321.417969 C 521.144531 317.855469 521.070312 306.121094 521.070312 306.121094 C 521.070312 306.121094 528.890625 306.042969 531.660156 310.25 " fill-opacity="1" fill-rule="nonzero"/><path fill="#849ef7" d="M 507.621094 319.566406 C 511.417969 325.09375 503.640625 337.070312 499.394531 334.078125 C 494.261719 330.453125 487.671875 326.652344 486.84375 322.566406 C 484.984375 313.398438 492.410156 302.90625 497.117188 305.394531 C 499.722656 306.773438 502.230469 312.4375 504.40625 315.183594 C 506.304688 317.574219 507.621094 319.566406 507.621094 319.566406 " fill-opacity="1" fill-rule="nonzero"/><path fill="#1a1b1d" d="M 497.332031 273.183594 L 492.75 269.890625 L 492.609375 271.097656 L 496.199219 273.679688 C 496.199219 273.679688 496.429688 277.074219 494.675781 277.035156 C 492.921875 276.992188 491.980469 275.6875 491.980469 275.6875 L 491.675781 276.796875 C 491.675781 276.796875 494.339844 278.953125 495.589844 278.070312 C 496.84375 277.195312 497.457031 274.929688 497.332031 273.183594 " fill-opacity="1" fill-rule="nonzero"/><path fill="#fdcbba" d="M 480.320312 289.511719 L 482.886719 288.0625 L 469.375 279.523438 C 469.457031 280.546875 469.585938 281.628906 469.484375 282.292969 C 468.738281 286.945312 464.6875 289.511719 464.6875 289.511719 C 460.699219 299.167969 480.210938 296.363281 480.210938 296.363281 C 476.910156 292.175781 480.320312 289.511719 480.320312 289.511719 " fill-opacity="1" fill-rule="nonzero"/><path fill="#fdcbba" d="M 469.375 279.523438 C 469.929688 274.839844 466.394531 264.050781 472.519531 259.730469 C 483.773438 251.796875 496.601562 258.769531 495.179688 269.992188 C 493.761719 281.214844 491.738281 289.066406 488.546875 289.875 C 485.402344 290.675781 480.1875 289.65625 480.1875 289.65625 C 474.914062 288.757812 468.789062 284.472656 469.375 279.523438 " fill-opacity="1" fill-rule="nonzero"/><path fill="#1e1e1e" d="M 470.972656 282.496094 C 476.238281 285.417969 480.71875 284.6875 483.207031 281.363281 C 485.703125 278.042969 483.117188 271.679688 490.925781 270.523438 C 493.328125 270.171875 496.070312 270.183594 497.324219 266.316406 C 497.914062 264.515625 498.015625 261.492188 496.347656 258.714844 C 494.445312 255.539062 490.214844 252.683594 481.734375 252.328125 C 462.71875 251.539062 463.59375 278.40625 470.972656 282.496094 " fill-opacity="1" fill-rule="nonzero"/><path fill="#1a1b1d" d="M 484.308594 275.664062 L 496.199219 273.679688 L 496.511719 274.691406 L 496.367188 275.445312 L 484.074219 276.878906 L 484.308594 275.664062 " fill-opacity="1" fill-rule="nonzero"/><path fill="#fdcbba" d="M 485.910156 278.144531 C 485.769531 280.375 484.199219 282.828125 482.34375 282.707031 C 480.488281 282.585938 479.054688 279.941406 479.195312 277.714844 C 479.339844 275.484375 480.960938 273.773438 482.816406 273.894531 C 484.667969 274.011719 486.054688 275.914062 485.910156 278.144531 " fill-opacity="1" fill-rule="nonzero"/><path fill="#4168d4" d="M 460.867188 288.164062 C 460.867188 288.164062 456.59375 295.773438 469.476562 299.820312 C 480.605469 303.3125 482.429688 296.140625 482.429688 296.140625 L 469.859375 295.828125 L 460.867188 288.164062 " fill-opacity="1" fill-rule="nonzero"/><path fill="#ffffff" d="M 460.867188 288.164062 C 460.867188 288.164062 457.761719 293.402344 468.824219 297.738281 C 479.484375 301.910156 482.429688 296.140625 482.429688 296.140625 C 482.429688 296.140625 482.324219 292.273438 478.261719 293.785156 C 475.125 294.953125 468.066406 292.808594 465.460938 287.890625 C 464.246094 285.601562 460.867188 288.164062 460.867188 288.164062 " fill-opacity="1" fill-rule="nonzero"/><path fill="#ffffff" d="M 518.433594 297 L 529.191406 299.835938 C 529.75 299.984375 530.367188 299.636719 530.535156 299.066406 L 537.566406 275.800781 C 537.734375 275.253906 537.433594 274.707031 536.886719 274.574219 L 525.851562 271.917969 C 525.289062 271.78125 524.695312 272.132812 524.527344 272.695312 L 517.765625 295.792969 C 517.605469 296.328125 517.902344 296.859375 518.433594 297 " fill-opacity="1" fill-rule="nonzero"/><path fill="#202b76" d="M 518.984375 295.71875 L 529.492188 298.636719 L 536.359375 275.910156 L 525.542969 273.328125 L 518.984375 295.71875 " fill-opacity="1" fill-rule="nonzero"/><path fill="#ffcdbc" d="M 524.304688 301.628906 C 524.304688 301.628906 517.652344 295.605469 521.050781 294.804688 C 522.679688 294.425781 527.128906 299.292969 527.128906 299.292969 L 524.304688 301.628906 " fill-opacity="1" fill-rule="nonzero"/><path fill="#000000" d="M 459.4375 206.308594 C 457.882812 206.210938 456.792969 205.421875 456.171875 203.941406 C 455.546875 202.46875 455.234375 200.308594 455.234375 197.472656 L 455.234375 171.855469 L 461.960938 167.96875 L 461.960938 194.378906 C 461.960938 196.558594 462.222656 198.097656 462.734375 198.980469 C 463.246094 199.871094 464.300781 199.855469 465.886719 198.9375 C 467.507812 198 468.574219 196.796875 469.089844 195.3125 C 469.601562 193.832031 469.859375 192 469.859375 189.820312 L 469.859375 163.410156 L 476.542969 159.550781 L 476.542969 185.164062 C 476.542969 187.972656 476.226562 190.480469 475.609375 192.691406 C 474.984375 194.90625 473.894531 196.964844 472.335938 198.859375 C 470.777344 200.757812 468.628906 202.496094 465.886719 204.078125 C 463.144531 205.664062 461 206.402344 459.4375 206.308594 " fill-opacity="1" fill-rule="nonzero"/><path fill="#000000" d="M 487.195312 171.160156 L 479.808594 157.660156 L 486.261719 153.9375 L 491.167969 162.882812 L 495.464844 148.617188 L 501.398438 145.191406 L 494.160156 168.449219 L 501.960938 182.730469 L 495.5625 186.429688 L 490.1875 176.769531 L 485.511719 192.230469 L 479.578125 195.660156 L 487.195312 171.160156 " fill-opacity="1" fill-rule="nonzero"/><path fill="#e7e7e7" d="M 484.390625 209.53125 L 482.703125 209.53125 L 482.703125 207 L 484.390625 207 L 484.390625 209.53125 " fill-opacity="1" fill-rule="nonzero"/><path fill="#e7e7e7" d="M 484.390625 218 L 482.703125 218 L 482.703125 213.769531 L 484.390625 213.769531 Z M 484.390625 226.460938 L 482.703125 226.460938 L 482.703125 222.230469 L 484.390625 222.230469 L 484.390625 226.460938 " fill-opacity="1" fill-rule="nonzero"/><path fill="#e7e7e7" d="M 482.703125 234.675781 L 482.703125 230.691406 L 484.390625 230.691406 L 484.390625 231.777344 L 485.34375 231.246094 L 486.175781 232.722656 L 482.703125 234.675781 " fill-opacity="1" fill-rule="nonzero"/><path fill="#e7e7e7" d="M 555 193.992188 L 554.175781 192.515625 L 558.761719 189.933594 L 559.585938 191.40625 Z M 545.824219 199.152344 L 544.996094 197.679688 L 549.582031 195.097656 L 550.414062 196.570312 Z M 536.648438 204.320312 L 535.816406 202.84375 L 540.410156 200.257812 L 541.234375 201.738281 Z M 527.46875 209.484375 L 526.640625 208.007812 L 531.230469 205.425781 L 532.058594 206.902344 Z M 518.292969 214.648438 L 517.464844 213.171875 L 522.050781 210.589844 L 522.882812 212.066406 Z M 509.117188 219.8125 L 508.289062 218.335938 L 512.875 215.753906 L 513.707031 217.230469 Z M 499.941406 224.976562 L 499.109375 223.5 L 503.699219 220.917969 L 504.527344 222.394531 Z M 490.761719 230.140625 L 489.933594 228.664062 L 494.523438 226.082031 L 495.347656 227.558594 L 490.761719 230.140625 " fill-opacity="1" fill-rule="nonzero"/><path fill="#e7e7e7" d="M 564.179688 188.824219 L 563.347656 187.347656 L 565.5625 186.105469 L 566.386719 187.582031 L 564.179688 188.824219 " fill-opacity="1" fill-rule="nonzero"/><path fill="#ececec" d="M 488.070312 204.386719 C 488.070312 206.882812 486.042969 210.078125 483.550781 211.519531 C 481.050781 212.960938 479.027344 212.105469 479.027344 209.609375 C 479.027344 207.109375 481.050781 203.917969 483.550781 202.472656 C 486.042969 201.03125 488.070312 201.886719 488.070312 204.386719 " fill-opacity="1" fill-rule="nonzero"/><path fill="#ececec" d="M 534.269531 418.496094 C 534.269531 420.996094 536.292969 424.1875 538.789062 425.632812 C 541.285156 427.074219 543.308594 426.21875 543.308594 423.71875 C 543.308594 421.222656 541.285156 418.027344 538.789062 416.585938 C 536.292969 415.144531 534.269531 416 534.269531 418.496094 " fill-opacity="1" fill-rule="nonzero"/><path fill="#ffffff" d="M 525.605469 300.730469 L 523.917969 300.730469 L 523.917969 295.65625 L 525.605469 295.65625 Z M 525.605469 310.878906 L 523.917969 310.878906 L 523.917969 305.800781 L 525.605469 305.800781 Z M 525.605469 321.027344 L 523.917969 321.027344 L 523.917969 315.949219 L 525.605469 315.949219 Z M 525.605469 331.175781 L 523.917969 331.175781 L 523.917969 326.101562 L 525.605469 326.101562 Z M 525.605469 341.324219 L 523.917969 341.324219 L 523.917969 336.25 L 525.605469 336.25 Z M 525.605469 351.476562 L 523.917969 351.476562 L 523.917969 346.398438 L 525.605469 346.398438 Z M 525.605469 361.621094 L 523.917969 361.621094 L 523.917969 356.546875 L 525.605469 356.546875 Z M 525.605469 371.773438 L 523.917969 371.773438 L 523.917969 366.695312 L 525.605469 366.695312 Z M 525.605469 381.917969 L 523.917969 381.917969 L 523.917969 376.84375 L 525.605469 376.84375 Z M 525.605469 392.066406 L 523.917969 392.066406 L 523.917969 386.996094 L 525.605469 386.996094 Z M 525.605469 402.214844 L 523.917969 402.214844 L 523.917969 397.144531 L 525.605469 397.144531 Z M 525.605469 412.363281 L 523.917969 412.363281 L 523.917969 407.289062 L 525.605469 407.289062 Z M 532.769531 418.46875 L 528.421875 415.847656 L 529.296875 414.394531 L 533.640625 417.015625 Z M 538.355469 421.832031 L 537.113281 421.082031 L 537.988281 419.636719 L 539.226562 420.382812 L 538.355469 421.832031 " fill-opacity="1" fill-rule="nonzero"/><path fill="#1e8061" d="M 437.535156 73.488281 C 420.292969 83.445312 406.320312 105.492188 406.320312 122.734375 C 406.320312 134.527344 417.820312 144.6875 427.460938 144.429688 C 431.921875 144.316406 432.078125 139.082031 437.535156 135.933594 C 454.769531 125.980469 468.742188 103.925781 468.742188 86.683594 C 468.742188 83.808594 473.21875 81.230469 472.3125 79.074219 C 468.179688 69.203125 451.894531 65.191406 437.535156 73.488281 " fill-opacity="1" fill-rule="nonzero"/><path fill="#39bc92" d="M 443.871094 77.148438 C 426.632812 87.105469 412.660156 109.15625 412.660156 126.402344 C 412.660156 143.644531 426.632812 149.550781 443.871094 139.597656 C 461.109375 129.640625 475.082031 107.589844 475.082031 90.34375 C 475.082031 73.101562 461.109375 67.191406 443.871094 77.148438 " fill-opacity="1" fill-rule="nonzero"/><path fill="#ffffff" d="M 441.398438 129.113281 L 424.078125 122.960938 L 429.351562 114.253906 L 440.839844 118.332031 L 459.714844 85.871094 L 465.53125 87.613281 L 441.398438 129.113281 " fill-opacity="1" fill-rule="nonzero"/><path fill="#d74f41" d="M 414.773438 187.195312 C 403.871094 193.492188 395.023438 207.449219 395.023438 218.355469 C 395.023438 225.855469 400.910156 231.652344 408.234375 232.175781 C 411.027344 232.378906 411.359375 228.679688 414.773438 226.710938 C 425.683594 220.410156 434.527344 206.457031 434.527344 195.542969 C 434.527344 193.746094 437.746094 192.511719 437.179688 191.160156 C 434.300781 184.273438 423.882812 181.933594 414.773438 187.195312 " fill-opacity="1" fill-rule="nonzero"/><path fill="#fc7660" d="M 419.003906 189.636719 C 408.09375 195.9375 399.253906 209.890625 399.253906 220.796875 C 399.253906 231.710938 408.09375 235.449219 419.003906 229.148438 C 429.910156 222.847656 438.75 208.898438 438.75 197.984375 C 438.75 187.074219 429.910156 183.335938 419.003906 189.636719 " fill-opacity="1" fill-rule="nonzero"/><path fill="#ffffff" d="M 430.523438 194.671875 L 427.066406 193.207031 L 419.003906 205.929688 L 410.941406 202.519531 L 407.480469 207.984375 L 415.542969 211.394531 L 407.480469 224.117188 L 410.941406 225.574219 L 419.003906 212.855469 L 427.066406 216.261719 L 430.523438 210.800781 L 422.464844 207.390625 L 430.523438 194.671875 " fill-opacity="1" fill-rule="nonzero"/></svg>