<svg xmlns="http://www.w3.org/2000/svg" xmlns:xlink="http://www.w3.org/1999/xlink" width="1368" zoomAndPan="magnify" viewBox="0 0 1026 525.000007" height="700" preserveAspectRatio="xMidYMid meet" version="1.0"><defs><clipPath id="db96ec6604"><path d="M 680 258 L 767.984375 258 L 767.984375 346 L 680 346 Z M 680 258 " clip-rule="nonzero"/></clipPath><clipPath id="e25108e5e6"><path d="M 258.203125 240 L 344 240 L 344 326 L 258.203125 326 Z M 258.203125 240 " clip-rule="nonzero"/></clipPath></defs><path fill="#ffffff" d="M 615.378906 147.628906 L 615.378906 152.039062 C 615.378906 153.496094 616.566406 154.683594 618.023438 154.683594 C 619.488281 154.683594 620.671875 153.496094 620.671875 152.039062 L 620.671875 147.628906 C 620.671875 146.171875 619.488281 144.988281 618.023438 144.988281 C 616.566406 144.988281 615.378906 146.171875 615.378906 147.628906 " fill-opacity="1" fill-rule="nonzero"/><path fill="#ffffff" d="M 615.378906 160.820312 L 615.378906 169.597656 C 615.378906 171.0625 616.566406 172.242188 618.023438 172.242188 C 619.488281 172.242188 620.671875 171.0625 620.671875 169.597656 L 620.671875 160.820312 C 620.671875 159.355469 619.488281 158.175781 618.023438 158.175781 C 616.566406 158.175781 615.378906 159.355469 615.378906 160.820312 Z M 615.378906 178.382812 L 615.378906 187.164062 C 615.378906 188.621094 616.566406 189.808594 618.023438 189.808594 C 619.488281 189.808594 620.671875 188.621094 620.671875 187.164062 L 620.671875 178.382812 C 620.671875 176.921875 619.488281 175.734375 618.023438 175.734375 C 616.566406 175.734375 615.378906 176.921875 615.378906 178.382812 Z M 615.378906 195.941406 L 615.378906 204.722656 C 615.378906 206.183594 616.566406 207.371094 618.023438 207.371094 C 619.488281 207.371094 620.671875 206.183594 620.671875 204.722656 L 620.671875 195.941406 C 620.671875 194.484375 619.488281 193.300781 618.023438 193.300781 C 616.566406 193.300781 615.378906 194.484375 615.378906 195.941406 Z M 615.378906 213.507812 L 615.378906 222.285156 C 615.378906 223.75 616.566406 224.929688 618.023438 224.929688 C 619.488281 224.929688 620.671875 223.75 620.671875 222.285156 L 620.671875 213.507812 C 620.671875 212.042969 619.488281 210.863281 618.023438 210.863281 C 616.566406 210.863281 615.378906 212.042969 615.378906 213.507812 Z M 615.378906 231.066406 L 615.378906 239.851562 C 615.378906 241.308594 616.566406 242.496094 618.023438 242.496094 C 619.488281 242.496094 620.671875 241.308594 620.671875 239.851562 L 620.671875 231.066406 C 620.671875 229.609375 619.488281 228.421875 618.023438 228.421875 C 616.566406 228.421875 615.378906 229.609375 615.378906 231.066406 Z M 615.378906 248.628906 L 615.378906 257.410156 C 615.378906 258.871094 616.566406 260.054688 618.023438 260.054688 C 619.488281 260.054688 620.671875 258.871094 620.671875 257.410156 L 620.671875 248.628906 C 620.671875 247.171875 619.488281 245.988281 618.023438 245.988281 C 616.566406 245.988281 615.378906 247.171875 615.378906 248.628906 Z M 615.378906 266.195312 L 615.378906 274.972656 C 615.378906 276.433594 616.566406 277.617188 618.023438 277.617188 C 619.488281 277.617188 620.671875 276.433594 620.671875 274.972656 L 620.671875 266.195312 C 620.671875 264.730469 619.488281 263.550781 618.023438 263.550781 C 616.566406 263.550781 615.378906 264.730469 615.378906 266.195312 Z M 615.378906 283.753906 L 615.378906 292.539062 C 615.378906 293.996094 616.566406 295.183594 618.023438 295.183594 C 619.488281 295.183594 620.671875 293.996094 620.671875 292.539062 L 620.671875 283.753906 C 620.671875 282.296875 619.488281 281.109375 618.023438 281.109375 C 616.566406 281.109375 615.378906 282.296875 615.378906 283.753906 Z M 615.378906 301.316406 L 615.378906 310.097656 C 615.378906 311.554688 616.566406 312.742188 618.023438 312.742188 C 619.488281 312.742188 620.671875 311.554688 620.671875 310.097656 L 620.671875 301.316406 C 620.671875 299.855469 619.488281 298.675781 618.023438 298.675781 C 616.566406 298.675781 615.378906 299.855469 615.378906 301.316406 " fill-opacity="1" fill-rule="nonzero"/><path fill="#ffffff" d="M 615.378906 318.882812 L 615.378906 323.285156 C 615.378906 324.746094 616.566406 325.929688 618.023438 325.929688 C 619.488281 325.929688 620.671875 324.746094 620.671875 323.285156 L 620.671875 318.882812 C 620.671875 317.417969 619.488281 316.234375 618.023438 316.234375 C 616.566406 316.234375 615.378906 317.417969 615.378906 318.882812 " fill-opacity="1" fill-rule="nonzero"/><path fill="#ffffff" d="M 430.917969 343.65625 L 430.917969 348.058594 C 430.917969 349.523438 432.097656 350.707031 433.5625 350.707031 C 435.023438 350.707031 436.210938 349.523438 436.210938 348.058594 L 436.210938 343.65625 C 436.210938 342.191406 435.023438 341.011719 433.5625 341.011719 C 432.097656 341.011719 430.917969 342.191406 430.917969 343.65625 " fill-opacity="1" fill-rule="nonzero"/><path fill="#ffffff" d="M 430.917969 356.84375 L 430.917969 365.625 C 430.917969 367.085938 432.097656 368.269531 433.5625 368.269531 C 435.023438 368.269531 436.210938 367.085938 436.210938 365.625 L 436.210938 356.84375 C 436.210938 355.386719 435.023438 354.199219 433.5625 354.199219 C 432.097656 354.199219 430.917969 355.386719 430.917969 356.84375 Z M 430.917969 374.402344 L 430.917969 383.1875 C 430.917969 384.644531 432.097656 385.832031 433.5625 385.832031 C 435.023438 385.832031 436.210938 384.644531 436.210938 383.1875 L 436.210938 374.402344 C 436.210938 372.945312 435.023438 371.765625 433.5625 371.765625 C 432.097656 371.765625 430.917969 372.945312 430.917969 374.402344 Z M 430.917969 391.96875 L 430.917969 400.746094 C 430.917969 402.210938 432.097656 403.390625 433.5625 403.390625 C 435.023438 403.390625 436.210938 402.210938 436.210938 400.746094 L 436.210938 391.96875 C 436.210938 390.503906 435.023438 389.324219 433.5625 389.324219 C 432.097656 389.324219 430.917969 390.503906 430.917969 391.96875 Z M 430.917969 409.53125 L 430.917969 418.3125 C 430.917969 419.769531 432.097656 420.957031 433.5625 420.957031 C 435.023438 420.957031 436.210938 419.769531 436.210938 418.3125 L 436.210938 409.53125 C 436.210938 408.070312 435.023438 406.882812 433.5625 406.882812 C 432.097656 406.882812 430.917969 408.070312 430.917969 409.53125 Z M 430.917969 427.097656 L 430.917969 435.871094 C 430.917969 437.332031 432.097656 438.519531 433.5625 438.519531 C 435.023438 438.519531 436.210938 437.332031 436.210938 435.871094 L 436.210938 427.097656 C 436.210938 425.632812 435.023438 424.449219 433.5625 424.449219 C 432.097656 424.449219 430.917969 425.632812 430.917969 427.097656 Z M 430.917969 444.65625 L 430.917969 453.433594 C 430.917969 454.898438 432.097656 456.078125 433.5625 456.078125 C 435.023438 456.078125 436.210938 454.898438 436.210938 453.433594 L 436.210938 444.65625 C 436.210938 443.199219 435.023438 442.011719 433.5625 442.011719 C 432.097656 442.011719 430.917969 443.199219 430.917969 444.65625 Z M 430.917969 462.214844 L 430.917969 471 C 430.917969 472.457031 432.097656 473.644531 433.5625 473.644531 C 435.023438 473.644531 436.210938 472.457031 436.210938 471 L 436.210938 462.214844 C 436.210938 460.757812 435.023438 459.570312 433.5625 459.570312 C 432.097656 459.570312 430.917969 460.757812 430.917969 462.214844 Z M 430.917969 479.78125 L 430.917969 488.558594 C 430.917969 490.023438 432.097656 491.203125 433.5625 491.203125 C 435.023438 491.203125 436.210938 490.023438 436.210938 488.558594 L 436.210938 479.78125 C 436.210938 478.320312 435.023438 477.136719 433.5625 477.136719 C 432.097656 477.136719 430.917969 478.320312 430.917969 479.78125 Z M 430.917969 497.34375 L 430.917969 506.121094 C 430.917969 507.582031 432.097656 508.765625 433.5625 508.765625 C 435.023438 508.765625 436.210938 507.582031 436.210938 506.121094 L 436.210938 497.34375 C 436.210938 495.878906 435.023438 494.699219 433.5625 494.699219 C 432.097656 494.699219 430.917969 495.878906 430.917969 497.34375 " fill-opacity="1" fill-rule="nonzero"/><path fill="#ffffff" d="M 430.917969 514.902344 L 430.917969 519.3125 C 430.917969 520.769531 432.097656 521.957031 433.5625 521.957031 C 435.023438 521.957031 436.210938 520.769531 436.210938 519.3125 L 436.210938 514.902344 C 436.210938 513.445312 435.023438 512.257812 433.5625 512.257812 C 432.097656 512.257812 430.917969 513.445312 430.917969 514.902344 " fill-opacity="1" fill-rule="nonzero"/><path fill="#ffffff" d="M 552.523438 16.367188 L 552.523438 20.777344 C 552.523438 22.234375 553.710938 23.421875 555.171875 23.421875 C 556.636719 23.421875 557.816406 22.234375 557.816406 20.777344 L 557.816406 16.367188 C 557.816406 14.910156 556.636719 13.722656 555.171875 13.722656 C 553.710938 13.722656 552.523438 14.910156 552.523438 16.367188 " fill-opacity="1" fill-rule="nonzero"/><path fill="#ffffff" d="M 552.523438 29.257812 L 552.523438 37.742188 C 552.523438 39.207031 553.710938 40.386719 555.171875 40.386719 C 556.636719 40.386719 557.816406 39.207031 557.816406 37.742188 L 557.816406 29.257812 C 557.816406 27.800781 556.636719 26.613281 555.171875 26.613281 C 553.710938 26.613281 552.523438 27.800781 552.523438 29.257812 Z M 552.523438 46.226562 L 552.523438 54.710938 C 552.523438 56.171875 553.710938 57.355469 555.171875 57.355469 C 556.636719 57.355469 557.816406 56.171875 557.816406 54.710938 L 557.816406 46.226562 C 557.816406 44.769531 556.636719 43.582031 555.171875 43.582031 C 553.710938 43.582031 552.523438 44.769531 552.523438 46.226562 " fill-opacity="1" fill-rule="nonzero"/><path fill="#ffffff" d="M 552.523438 63.191406 L 552.523438 67.601562 C 552.523438 69.066406 553.710938 70.246094 555.171875 70.246094 C 556.636719 70.246094 557.816406 69.066406 557.816406 67.601562 L 557.816406 63.191406 C 557.816406 61.734375 556.636719 60.554688 555.171875 60.554688 C 553.710938 60.554688 552.523438 61.734375 552.523438 63.191406 " fill-opacity="1" fill-rule="nonzero"/><path fill="#ffffff" d="M 668.050781 193.375 L 668.050781 197.78125 C 668.050781 199.238281 669.238281 200.425781 670.695312 200.425781 C 672.160156 200.425781 673.339844 199.238281 673.339844 197.78125 L 673.339844 193.375 C 673.339844 191.914062 672.160156 190.730469 670.695312 190.730469 C 669.238281 190.730469 668.050781 191.914062 668.050781 193.375 " fill-opacity="1" fill-rule="nonzero"/><path fill="#ffffff" d="M 668.050781 206.296875 L 668.050781 214.808594 C 668.050781 216.269531 669.238281 217.457031 670.695312 217.457031 C 672.160156 217.457031 673.339844 216.269531 673.339844 214.808594 L 673.339844 206.296875 C 673.339844 204.832031 672.160156 203.652344 670.695312 203.652344 C 669.238281 203.652344 668.050781 204.832031 668.050781 206.296875 Z M 668.050781 223.320312 L 668.050781 231.835938 C 668.050781 233.296875 669.238281 234.480469 670.695312 234.480469 C 672.160156 234.480469 673.339844 233.296875 673.339844 231.835938 L 673.339844 223.320312 C 673.339844 221.863281 672.160156 220.675781 670.695312 220.675781 C 669.238281 220.675781 668.050781 221.863281 668.050781 223.320312 Z M 668.050781 240.351562 L 668.050781 248.863281 C 668.050781 250.324219 669.238281 251.507812 670.695312 251.507812 C 672.160156 251.507812 673.339844 250.324219 673.339844 248.863281 L 673.339844 240.351562 C 673.339844 238.886719 672.160156 237.707031 670.695312 237.707031 C 669.238281 237.707031 668.050781 238.886719 668.050781 240.351562 Z M 668.050781 257.375 L 668.050781 265.894531 C 668.050781 267.351562 669.238281 268.535156 670.695312 268.535156 C 672.160156 268.535156 673.339844 267.351562 673.339844 265.894531 L 673.339844 257.375 C 673.339844 255.917969 672.160156 254.738281 670.695312 254.738281 C 669.238281 254.738281 668.050781 255.917969 668.050781 257.375 Z M 668.050781 274.40625 L 668.050781 282.917969 C 668.050781 284.382812 669.238281 285.5625 670.695312 285.5625 C 672.160156 285.5625 673.339844 284.382812 673.339844 282.917969 L 673.339844 274.40625 C 673.339844 272.941406 672.160156 271.761719 670.695312 271.761719 C 669.238281 271.761719 668.050781 272.941406 668.050781 274.40625 " fill-opacity="1" fill-rule="nonzero"/><path fill="#ffffff" d="M 668.050781 291.4375 L 668.050781 295.839844 C 668.050781 297.296875 669.238281 298.484375 670.695312 298.484375 C 672.160156 298.484375 673.339844 297.296875 673.339844 295.839844 L 673.339844 291.4375 C 673.339844 289.972656 672.160156 288.792969 670.695312 288.792969 C 669.238281 288.792969 668.050781 289.972656 668.050781 291.4375 " fill-opacity="1" fill-rule="nonzero"/><path fill="#ffffff" d="M 701.832031 262.902344 L 701.832031 267.3125 C 701.832031 268.769531 703.015625 269.953125 704.480469 269.953125 C 705.9375 269.953125 707.121094 268.769531 707.121094 267.3125 L 707.121094 262.902344 C 707.121094 261.445312 705.9375 260.257812 704.480469 260.257812 C 703.015625 260.257812 701.832031 261.445312 701.832031 262.902344 " fill-opacity="1" fill-rule="nonzero"/><path fill="#ffffff" d="M 701.832031 276.585938 L 701.832031 285.863281 C 701.832031 287.320312 703.015625 288.507812 704.480469 288.507812 C 705.9375 288.507812 707.121094 287.320312 707.121094 285.863281 L 707.121094 276.585938 C 707.121094 275.128906 705.9375 273.941406 704.480469 273.941406 C 703.015625 273.941406 701.832031 275.128906 701.832031 276.585938 Z M 701.832031 295.136719 L 701.832031 304.414062 C 701.832031 305.878906 703.015625 307.0625 704.480469 307.0625 C 705.9375 307.0625 707.121094 305.878906 707.121094 304.414062 L 707.121094 295.136719 C 707.121094 293.679688 705.9375 292.496094 704.480469 292.496094 C 703.015625 292.496094 701.832031 293.679688 701.832031 295.136719 Z M 701.832031 313.695312 L 701.832031 322.96875 C 701.832031 324.429688 703.015625 325.613281 704.480469 325.613281 C 705.9375 325.613281 707.121094 324.429688 707.121094 322.96875 L 707.121094 313.695312 C 707.121094 312.230469 705.9375 311.050781 704.480469 311.050781 C 703.015625 311.050781 701.832031 312.230469 701.832031 313.695312 Z M 701.832031 332.246094 L 701.832031 341.519531 C 701.832031 342.984375 703.015625 344.164062 704.480469 344.164062 C 705.9375 344.164062 707.121094 342.984375 707.121094 341.519531 L 707.121094 332.246094 C 707.121094 330.78125 705.9375 329.601562 704.480469 329.601562 C 703.015625 329.601562 701.832031 330.78125 701.832031 332.246094 Z M 701.832031 350.796875 L 701.832031 360.070312 C 701.832031 361.535156 703.015625 362.714844 704.480469 362.714844 C 705.9375 362.714844 707.121094 361.535156 707.121094 360.070312 L 707.121094 350.796875 C 707.121094 349.339844 705.9375 348.152344 704.480469 348.152344 C 703.015625 348.152344 701.832031 349.339844 701.832031 350.796875 Z M 701.832031 369.347656 L 701.832031 378.628906 C 701.832031 380.085938 703.015625 381.265625 704.480469 381.265625 C 705.9375 381.265625 707.121094 380.085938 707.121094 378.628906 L 707.121094 369.347656 C 707.121094 367.890625 705.9375 366.703125 704.480469 366.703125 C 703.015625 366.703125 701.832031 367.890625 701.832031 369.347656 Z M 701.832031 387.902344 L 701.832031 397.179688 C 701.832031 398.636719 703.015625 399.820312 704.480469 399.820312 C 705.9375 399.820312 707.121094 398.636719 707.121094 397.179688 L 707.121094 387.902344 C 707.121094 386.441406 705.9375 385.253906 704.480469 385.253906 C 703.015625 385.253906 701.832031 386.441406 701.832031 387.902344 Z M 701.832031 406.453125 L 701.832031 415.730469 C 701.832031 417.1875 703.015625 418.375 704.480469 418.375 C 705.9375 418.375 707.121094 417.1875 707.121094 415.730469 L 707.121094 406.453125 C 707.121094 404.992188 705.9375 403.808594 704.480469 403.808594 C 703.015625 403.808594 701.832031 404.992188 701.832031 406.453125 " fill-opacity="1" fill-rule="nonzero"/><path fill="#ffffff" d="M 701.832031 425.003906 L 701.832031 429.414062 C 701.832031 430.871094 703.015625 432.058594 704.480469 432.058594 C 705.9375 432.058594 707.121094 430.871094 707.121094 429.414062 L 707.121094 425.003906 C 707.121094 423.546875 705.9375 422.363281 704.480469 422.363281 C 703.015625 422.363281 701.832031 423.546875 701.832031 425.003906 " fill-opacity="1" fill-rule="nonzero"/><path fill="#ffffff" d="M 550.605469 354.273438 L 550.605469 358.679688 C 550.605469 360.140625 551.792969 361.320312 553.25 361.320312 C 554.714844 361.320312 555.898438 360.140625 555.898438 358.679688 L 555.898438 354.273438 C 555.898438 352.808594 554.714844 351.628906 553.25 351.628906 C 551.792969 351.628906 550.605469 352.808594 550.605469 354.273438 " fill-opacity="1" fill-rule="nonzero"/><path fill="#ffffff" d="M 550.605469 367.953125 L 550.605469 377.234375 C 550.605469 378.691406 551.792969 379.878906 553.25 379.878906 C 554.714844 379.878906 555.898438 378.691406 555.898438 377.234375 L 555.898438 367.953125 C 555.898438 366.496094 554.714844 365.308594 553.25 365.308594 C 551.792969 365.308594 550.605469 366.496094 550.605469 367.953125 Z M 550.605469 386.503906 L 550.605469 395.785156 C 550.605469 397.242188 551.792969 398.429688 553.25 398.429688 C 554.714844 398.429688 555.898438 397.242188 555.898438 395.785156 L 555.898438 386.503906 C 555.898438 385.046875 554.714844 383.859375 553.25 383.859375 C 551.792969 383.859375 550.605469 385.046875 550.605469 386.503906 Z M 550.605469 405.058594 L 550.605469 414.335938 C 550.605469 415.792969 551.792969 416.980469 553.25 416.980469 C 554.714844 416.980469 555.898438 415.792969 555.898438 414.335938 L 555.898438 405.058594 C 555.898438 403.597656 554.714844 402.417969 553.25 402.417969 C 551.792969 402.417969 550.605469 403.597656 550.605469 405.058594 Z M 550.605469 423.609375 L 550.605469 432.886719 C 550.605469 434.351562 551.792969 435.53125 553.25 435.53125 C 554.714844 435.53125 555.898438 434.351562 555.898438 432.886719 L 555.898438 423.609375 C 555.898438 422.152344 554.714844 420.96875 553.25 420.96875 C 551.792969 420.96875 550.605469 422.152344 550.605469 423.609375 Z M 550.605469 442.167969 L 550.605469 451.4375 C 550.605469 452.898438 551.792969 454.085938 553.25 454.085938 C 554.714844 454.085938 555.898438 452.898438 555.898438 451.4375 L 555.898438 442.167969 C 555.898438 440.703125 554.714844 439.519531 553.25 439.519531 C 551.792969 439.519531 550.605469 440.703125 550.605469 442.167969 Z M 550.605469 460.71875 L 550.605469 469.992188 C 550.605469 471.453125 551.792969 472.636719 553.25 472.636719 C 554.714844 472.636719 555.898438 471.453125 555.898438 469.992188 L 555.898438 460.71875 C 555.898438 459.253906 554.714844 458.074219 553.25 458.074219 C 551.792969 458.074219 550.605469 459.253906 550.605469 460.71875 Z M 550.605469 479.269531 L 550.605469 488.546875 C 550.605469 490.007812 551.792969 491.1875 553.25 491.1875 C 554.714844 491.1875 555.898438 490.007812 555.898438 488.546875 L 555.898438 479.269531 C 555.898438 477.804688 554.714844 476.625 553.25 476.625 C 551.792969 476.625 550.605469 477.804688 550.605469 479.269531 Z M 550.605469 497.820312 L 550.605469 507.101562 C 550.605469 508.558594 551.792969 509.738281 553.25 509.738281 C 554.714844 509.738281 555.898438 508.558594 555.898438 507.101562 L 555.898438 497.820312 C 555.898438 496.355469 554.714844 495.175781 553.25 495.175781 C 551.792969 495.175781 550.605469 496.355469 550.605469 497.820312 " fill-opacity="1" fill-rule="nonzero"/><path fill="#ffffff" d="M 550.605469 516.371094 L 550.605469 520.78125 C 550.605469 522.238281 551.792969 523.425781 553.25 523.425781 C 554.714844 523.425781 555.898438 522.238281 555.898438 520.78125 L 555.898438 516.371094 C 555.898438 514.914062 554.714844 513.726562 553.25 513.726562 C 551.792969 513.726562 550.605469 514.914062 550.605469 516.371094 " fill-opacity="1" fill-rule="nonzero"/><path fill="#ffffff" d="M 721.792969 90.90625 L 721.792969 95.316406 C 721.792969 96.773438 722.976562 97.957031 724.4375 97.957031 C 725.898438 97.957031 727.085938 96.773438 727.085938 95.316406 L 727.085938 90.90625 C 727.085938 89.445312 725.898438 88.261719 724.4375 88.261719 C 722.976562 88.261719 721.792969 89.445312 721.792969 90.90625 " fill-opacity="1" fill-rule="nonzero"/><path fill="#ffffff" d="M 721.792969 104.25 L 721.792969 113.183594 C 721.792969 114.644531 722.976562 115.828125 724.4375 115.828125 C 725.898438 115.828125 727.085938 114.644531 727.085938 113.183594 L 727.085938 104.25 C 727.085938 102.792969 725.898438 101.605469 724.4375 101.605469 C 722.976562 101.605469 721.792969 102.792969 721.792969 104.25 Z M 721.792969 122.121094 L 721.792969 131.054688 C 721.792969 132.519531 722.976562 133.699219 724.4375 133.699219 C 725.898438 133.699219 727.085938 132.519531 727.085938 131.054688 L 727.085938 122.121094 C 727.085938 120.65625 725.898438 119.476562 724.4375 119.476562 C 722.976562 119.476562 721.792969 120.65625 721.792969 122.121094 Z M 721.792969 139.992188 L 721.792969 148.925781 C 721.792969 150.382812 722.976562 151.570312 724.4375 151.570312 C 725.898438 151.570312 727.085938 150.382812 727.085938 148.925781 L 727.085938 139.992188 C 727.085938 138.527344 725.898438 137.347656 724.4375 137.347656 C 722.976562 137.347656 721.792969 138.527344 721.792969 139.992188 " fill-opacity="1" fill-rule="nonzero"/><path fill="#ffffff" d="M 721.792969 157.863281 L 721.792969 162.265625 C 721.792969 163.726562 722.976562 164.914062 724.4375 164.914062 C 725.898438 164.914062 727.085938 163.726562 727.085938 162.265625 L 727.085938 157.863281 C 727.085938 156.402344 725.898438 155.21875 724.4375 155.21875 C 722.976562 155.21875 721.792969 156.402344 721.792969 157.863281 " fill-opacity="1" fill-rule="nonzero"/><path fill="#ffffff" d="M 665.5625 396.476562 L 665.5625 400.886719 C 665.5625 402.34375 666.75 403.523438 668.210938 403.523438 C 669.675781 403.523438 670.855469 402.34375 670.855469 400.886719 L 670.855469 396.476562 C 670.855469 395.019531 669.675781 393.832031 668.210938 393.832031 C 666.75 393.832031 665.5625 395.019531 665.5625 396.476562 " fill-opacity="1" fill-rule="nonzero"/><path fill="#ffffff" d="M 665.5625 408.265625 L 665.5625 415.65625 C 665.5625 417.113281 666.75 418.300781 668.210938 418.300781 C 669.675781 418.300781 670.855469 417.113281 670.855469 415.65625 L 670.855469 408.265625 C 670.855469 406.808594 669.675781 405.621094 668.210938 405.621094 C 666.75 405.621094 665.5625 406.808594 665.5625 408.265625 Z M 665.5625 423.042969 L 665.5625 430.425781 C 665.5625 431.886719 666.75 433.070312 668.210938 433.070312 C 669.675781 433.070312 670.855469 431.886719 670.855469 430.425781 L 670.855469 423.042969 C 670.855469 421.582031 669.675781 420.398438 668.210938 420.398438 C 666.75 420.398438 665.5625 421.582031 665.5625 423.042969 " fill-opacity="1" fill-rule="nonzero"/><path fill="#ffffff" d="M 665.5625 437.816406 L 665.5625 442.21875 C 665.5625 443.683594 666.75 444.863281 668.210938 444.863281 C 669.675781 444.863281 670.855469 443.683594 670.855469 442.21875 L 670.855469 437.816406 C 670.855469 436.355469 669.675781 435.167969 668.210938 435.167969 C 666.75 435.167969 665.5625 436.355469 665.5625 437.816406 " fill-opacity="1" fill-rule="nonzero"/><path fill="#ffffff" d="M 648.636719 56.140625 L 648.636719 60.546875 C 648.636719 62.011719 649.824219 63.191406 651.285156 63.191406 C 652.746094 63.191406 653.929688 62.011719 653.929688 60.546875 L 653.929688 56.140625 C 653.929688 54.679688 652.746094 53.5 651.285156 53.5 C 649.824219 53.5 648.636719 54.679688 648.636719 56.140625 " fill-opacity="1" fill-rule="nonzero"/><path fill="#ffffff" d="M 648.636719 69.894531 L 648.636719 79.238281 C 648.636719 80.703125 649.824219 81.882812 651.285156 81.882812 C 652.746094 81.882812 653.929688 80.703125 653.929688 79.238281 L 653.929688 69.894531 C 653.929688 68.429688 652.746094 67.25 651.285156 67.25 C 649.824219 67.25 648.636719 68.429688 648.636719 69.894531 Z M 648.636719 88.585938 L 648.636719 97.933594 C 648.636719 99.390625 649.824219 100.574219 651.285156 100.574219 C 652.746094 100.574219 653.929688 99.390625 653.929688 97.933594 L 653.929688 88.585938 C 653.929688 87.128906 652.746094 85.941406 651.285156 85.941406 C 649.824219 85.941406 648.636719 87.128906 648.636719 88.585938 Z M 648.636719 107.273438 L 648.636719 116.625 C 648.636719 118.082031 649.824219 119.269531 651.285156 119.269531 C 652.746094 119.269531 653.929688 118.082031 653.929688 116.625 L 653.929688 107.273438 C 653.929688 105.816406 652.746094 104.628906 651.285156 104.628906 C 649.824219 104.628906 648.636719 105.816406 648.636719 107.273438 Z M 648.636719 125.964844 L 648.636719 135.3125 C 648.636719 136.769531 649.824219 137.957031 651.285156 137.957031 C 652.746094 137.957031 653.929688 136.769531 653.929688 135.3125 L 653.929688 125.964844 C 653.929688 124.507812 652.746094 123.324219 651.285156 123.324219 C 649.824219 123.324219 648.636719 124.507812 648.636719 125.964844 Z M 648.636719 144.660156 L 648.636719 154.003906 C 648.636719 155.464844 649.824219 156.648438 651.285156 156.648438 C 652.746094 156.648438 653.929688 155.464844 653.929688 154.003906 L 653.929688 144.660156 C 653.929688 143.195312 652.746094 142.015625 651.285156 142.015625 C 649.824219 142.015625 648.636719 143.195312 648.636719 144.660156 " fill-opacity="1" fill-rule="nonzero"/><path fill="#ffffff" d="M 648.636719 163.351562 L 648.636719 167.757812 C 648.636719 169.21875 649.824219 170.398438 651.285156 170.398438 C 652.746094 170.398438 653.929688 169.21875 653.929688 167.757812 L 653.929688 163.351562 C 653.929688 161.894531 652.746094 160.707031 651.285156 160.707031 C 649.824219 160.707031 648.636719 161.894531 648.636719 163.351562 " fill-opacity="1" fill-rule="nonzero"/><path fill="#ffffff" d="M 676.546875 6.738281 L 676.546875 11.144531 C 676.546875 12.605469 677.730469 13.792969 679.191406 13.792969 C 680.652344 13.792969 681.839844 12.605469 681.839844 11.144531 L 681.839844 6.738281 C 681.839844 5.277344 680.652344 4.097656 679.191406 4.097656 C 677.730469 4.097656 676.546875 5.277344 676.546875 6.738281 " fill-opacity="1" fill-rule="nonzero"/><path fill="#ffffff" d="M 676.546875 19.628906 L 676.546875 28.113281 C 676.546875 29.570312 677.730469 30.757812 679.191406 30.757812 C 680.652344 30.757812 681.839844 29.570312 681.839844 28.113281 L 681.839844 19.628906 C 681.839844 18.171875 680.652344 16.984375 679.191406 16.984375 C 677.730469 16.984375 676.546875 18.171875 676.546875 19.628906 Z M 676.546875 36.597656 L 676.546875 45.078125 C 676.546875 46.542969 677.730469 47.726562 679.191406 47.726562 C 680.652344 47.726562 681.839844 46.542969 681.839844 45.078125 L 681.839844 36.597656 C 681.839844 35.136719 680.652344 33.949219 679.191406 33.949219 C 677.730469 33.949219 676.546875 35.136719 676.546875 36.597656 " fill-opacity="1" fill-rule="nonzero"/><path fill="#ffffff" d="M 676.546875 53.5625 L 676.546875 57.972656 C 676.546875 59.429688 677.730469 60.617188 679.191406 60.617188 C 680.652344 60.617188 681.839844 59.429688 681.839844 57.972656 L 681.839844 53.5625 C 681.839844 52.105469 680.652344 50.917969 679.191406 50.917969 C 677.730469 50.917969 676.546875 52.105469 676.546875 53.5625 " fill-opacity="1" fill-rule="nonzero"/><path fill="#ffffff" d="M 747.898438 209.84375 L 747.898438 214.246094 C 747.898438 215.710938 749.078125 216.890625 750.542969 216.890625 C 752.003906 216.890625 753.183594 215.710938 753.183594 214.246094 L 753.183594 209.84375 C 753.183594 208.382812 752.003906 207.195312 750.542969 207.195312 C 749.078125 207.195312 747.898438 208.382812 747.898438 209.84375 " fill-opacity="1" fill-rule="nonzero"/><path fill="#ffffff" d="M 747.898438 222.71875 L 747.898438 231.1875 C 747.898438 232.652344 749.078125 233.835938 750.542969 233.835938 C 752.003906 233.835938 753.183594 232.652344 753.183594 231.1875 L 753.183594 222.71875 C 753.183594 221.257812 752.003906 220.078125 750.542969 220.078125 C 749.078125 220.078125 747.898438 221.257812 747.898438 222.71875 Z M 747.898438 239.660156 L 747.898438 248.132812 C 747.898438 249.589844 749.078125 250.777344 750.542969 250.777344 C 752.003906 250.777344 753.183594 249.589844 753.183594 248.132812 L 753.183594 239.660156 C 753.183594 238.203125 752.003906 237.015625 750.542969 237.015625 C 749.078125 237.015625 747.898438 238.203125 747.898438 239.660156 Z M 747.898438 256.605469 L 747.898438 265.078125 C 747.898438 266.535156 749.078125 267.714844 750.542969 267.714844 C 752.003906 267.714844 753.183594 266.535156 753.183594 265.078125 L 753.183594 256.605469 C 753.183594 255.140625 752.003906 253.960938 750.542969 253.960938 C 749.078125 253.960938 747.898438 255.140625 747.898438 256.605469 Z M 747.898438 273.542969 L 747.898438 282.015625 C 747.898438 283.472656 749.078125 284.660156 750.542969 284.660156 C 752.003906 284.660156 753.183594 283.472656 753.183594 282.015625 L 753.183594 273.542969 C 753.183594 272.085938 752.003906 270.902344 750.542969 270.902344 C 749.078125 270.902344 747.898438 272.085938 747.898438 273.542969 Z M 747.898438 290.484375 L 747.898438 298.957031 C 747.898438 300.414062 749.078125 301.601562 750.542969 301.601562 C 752.003906 301.601562 753.183594 300.414062 753.183594 298.957031 L 753.183594 290.484375 C 753.183594 289.027344 752.003906 287.839844 750.542969 287.839844 C 749.078125 287.839844 747.898438 289.027344 747.898438 290.484375 Z M 747.898438 307.429688 L 747.898438 315.902344 C 747.898438 317.359375 749.078125 318.539062 750.542969 318.539062 C 752.003906 318.539062 753.183594 317.359375 753.183594 315.902344 L 753.183594 307.429688 C 753.183594 305.964844 752.003906 304.785156 750.542969 304.785156 C 749.078125 304.785156 747.898438 305.964844 747.898438 307.429688 " fill-opacity="1" fill-rule="nonzero"/><path fill="#ffffff" d="M 747.898438 324.367188 L 747.898438 328.777344 C 747.898438 330.234375 749.078125 331.421875 750.542969 331.421875 C 752.003906 331.421875 753.183594 330.234375 753.183594 328.777344 L 753.183594 324.367188 C 753.183594 322.910156 752.003906 321.726562 750.542969 321.726562 C 749.078125 321.726562 747.898438 322.910156 747.898438 324.367188 " fill-opacity="1" fill-rule="nonzero"/><path fill="#ffffff" d="M 717.210938 460.523438 L 717.210938 464.925781 C 717.210938 466.382812 718.398438 467.570312 719.855469 467.570312 C 721.320312 467.570312 722.503906 466.382812 722.503906 464.925781 L 722.503906 460.523438 C 722.503906 459.058594 721.320312 457.871094 719.855469 457.871094 C 718.398438 457.871094 717.210938 459.058594 717.210938 460.523438 " fill-opacity="1" fill-rule="nonzero"/><path fill="#ffffff" d="M 717.210938 472.675781 L 717.210938 480.429688 C 717.210938 481.890625 718.398438 483.074219 719.855469 483.074219 C 721.320312 483.074219 722.503906 481.890625 722.503906 480.429688 L 722.503906 472.675781 C 722.503906 471.21875 721.320312 470.03125 719.855469 470.03125 C 718.398438 470.03125 717.210938 471.21875 717.210938 472.675781 Z M 717.210938 488.179688 L 717.210938 495.9375 C 717.210938 497.394531 718.398438 498.574219 719.855469 498.574219 C 721.320312 498.574219 722.503906 497.394531 722.503906 495.9375 L 722.503906 488.179688 C 722.503906 486.722656 721.320312 485.535156 719.855469 485.535156 C 718.398438 485.535156 717.210938 486.722656 717.210938 488.179688 " fill-opacity="1" fill-rule="nonzero"/><path fill="#ffffff" d="M 717.210938 503.6875 L 717.210938 508.089844 C 717.210938 509.554688 718.398438 510.738281 719.855469 510.738281 C 721.320312 510.738281 722.503906 509.554688 722.503906 508.089844 L 722.503906 503.6875 C 722.503906 502.222656 721.320312 501.042969 719.855469 501.042969 C 718.398438 501.042969 717.210938 502.222656 717.210938 503.6875 " fill-opacity="1" fill-rule="nonzero"/><path fill="#ffffff" d="M 405.515625 147.628906 L 405.515625 152.039062 C 405.515625 153.496094 406.699219 154.683594 408.164062 154.683594 C 409.621094 154.683594 410.808594 153.496094 410.808594 152.039062 L 410.808594 147.628906 C 410.808594 146.171875 409.621094 144.988281 408.164062 144.988281 C 406.699219 144.988281 405.515625 146.171875 405.515625 147.628906 " fill-opacity="1" fill-rule="nonzero"/><path fill="#ffffff" d="M 405.515625 160.820312 L 405.515625 169.597656 C 405.515625 171.0625 406.699219 172.242188 408.164062 172.242188 C 409.621094 172.242188 410.808594 171.0625 410.808594 169.597656 L 410.808594 160.820312 C 410.808594 159.355469 409.621094 158.175781 408.164062 158.175781 C 406.699219 158.175781 405.515625 159.355469 405.515625 160.820312 Z M 405.515625 178.382812 L 405.515625 187.164062 C 405.515625 188.621094 406.699219 189.808594 408.164062 189.808594 C 409.621094 189.808594 410.808594 188.621094 410.808594 187.164062 L 410.808594 178.382812 C 410.808594 176.921875 409.621094 175.734375 408.164062 175.734375 C 406.699219 175.734375 405.515625 176.921875 405.515625 178.382812 Z M 405.515625 195.941406 L 405.515625 204.722656 C 405.515625 206.183594 406.699219 207.371094 408.164062 207.371094 C 409.621094 207.371094 410.808594 206.183594 410.808594 204.722656 L 410.808594 195.941406 C 410.808594 194.484375 409.621094 193.300781 408.164062 193.300781 C 406.699219 193.300781 405.515625 194.484375 405.515625 195.941406 Z M 405.515625 213.507812 L 405.515625 222.285156 C 405.515625 223.75 406.699219 224.929688 408.164062 224.929688 C 409.621094 224.929688 410.808594 223.75 410.808594 222.285156 L 410.808594 213.507812 C 410.808594 212.042969 409.621094 210.863281 408.164062 210.863281 C 406.699219 210.863281 405.515625 212.042969 405.515625 213.507812 Z M 405.515625 231.066406 L 405.515625 239.851562 C 405.515625 241.308594 406.699219 242.496094 408.164062 242.496094 C 409.621094 242.496094 410.808594 241.308594 410.808594 239.851562 L 410.808594 231.066406 C 410.808594 229.609375 409.621094 228.421875 408.164062 228.421875 C 406.699219 228.421875 405.515625 229.609375 405.515625 231.066406 Z M 405.515625 248.628906 L 405.515625 257.410156 C 405.515625 258.871094 406.699219 260.054688 408.164062 260.054688 C 409.621094 260.054688 410.808594 258.871094 410.808594 257.410156 L 410.808594 248.628906 C 410.808594 247.171875 409.621094 245.988281 408.164062 245.988281 C 406.699219 245.988281 405.515625 247.171875 405.515625 248.628906 Z M 405.515625 266.195312 L 405.515625 274.972656 C 405.515625 276.433594 406.699219 277.617188 408.164062 277.617188 C 409.621094 277.617188 410.808594 276.433594 410.808594 274.972656 L 410.808594 266.195312 C 410.808594 264.730469 409.621094 263.550781 408.164062 263.550781 C 406.699219 263.550781 405.515625 264.730469 405.515625 266.195312 Z M 405.515625 283.753906 L 405.515625 292.539062 C 405.515625 293.996094 406.699219 295.183594 408.164062 295.183594 C 409.621094 295.183594 410.808594 293.996094 410.808594 292.539062 L 410.808594 283.753906 C 410.808594 282.296875 409.621094 281.109375 408.164062 281.109375 C 406.699219 281.109375 405.515625 282.296875 405.515625 283.753906 Z M 405.515625 301.316406 L 405.515625 310.097656 C 405.515625 311.554688 406.699219 312.742188 408.164062 312.742188 C 409.621094 312.742188 410.808594 311.554688 410.808594 310.097656 L 410.808594 301.316406 C 410.808594 299.855469 409.621094 298.675781 408.164062 298.675781 C 406.699219 298.675781 405.515625 299.855469 405.515625 301.316406 " fill-opacity="1" fill-rule="nonzero"/><path fill="#ffffff" d="M 405.515625 318.882812 L 405.515625 323.285156 C 405.515625 324.746094 406.699219 325.929688 408.164062 325.929688 C 409.621094 325.929688 410.808594 324.746094 410.808594 323.285156 L 410.808594 318.882812 C 410.808594 317.417969 409.621094 316.234375 408.164062 316.234375 C 406.699219 316.234375 405.515625 317.417969 405.515625 318.882812 " fill-opacity="1" fill-rule="nonzero"/><path fill="#ffffff" d="M 468.363281 3.078125 L 468.363281 7.484375 C 468.363281 8.945312 469.550781 10.132812 471.007812 10.132812 C 472.472656 10.132812 473.65625 8.945312 473.65625 7.484375 L 473.65625 3.078125 C 473.65625 1.621094 472.472656 0.433594 471.007812 0.433594 C 469.550781 0.433594 468.363281 1.621094 468.363281 3.078125 " fill-opacity="1" fill-rule="nonzero"/><path fill="#ffffff" d="M 468.363281 15.96875 L 468.363281 24.453125 C 468.363281 25.917969 469.550781 27.097656 471.007812 27.097656 C 472.472656 27.097656 473.65625 25.917969 473.65625 24.453125 L 473.65625 15.96875 C 473.65625 14.511719 472.472656 13.324219 471.007812 13.324219 C 469.550781 13.324219 468.363281 14.511719 468.363281 15.96875 Z M 468.363281 32.9375 L 468.363281 41.417969 C 468.363281 42.882812 469.550781 44.066406 471.007812 44.066406 C 472.472656 44.066406 473.65625 42.882812 473.65625 41.417969 L 473.65625 32.9375 C 473.65625 31.476562 472.472656 30.292969 471.007812 30.292969 C 469.550781 30.292969 468.363281 31.476562 468.363281 32.9375 " fill-opacity="1" fill-rule="nonzero"/><path fill="#ffffff" d="M 468.363281 49.910156 L 468.363281 54.3125 C 468.363281 55.769531 469.550781 56.957031 471.007812 56.957031 C 472.472656 56.957031 473.65625 55.769531 473.65625 54.3125 L 473.65625 49.910156 C 473.65625 48.445312 472.472656 47.261719 471.007812 47.261719 C 469.550781 47.261719 468.363281 48.445312 468.363281 49.910156 " fill-opacity="1" fill-rule="nonzero"/><path fill="#ffffff" d="M 352.839844 193.375 L 352.839844 197.78125 C 352.839844 199.238281 354.027344 200.425781 355.484375 200.425781 C 356.949219 200.425781 358.132812 199.238281 358.132812 197.78125 L 358.132812 193.375 C 358.132812 191.914062 356.949219 190.730469 355.484375 190.730469 C 354.027344 190.730469 352.839844 191.914062 352.839844 193.375 " fill-opacity="1" fill-rule="nonzero"/><path fill="#ffffff" d="M 352.839844 206.296875 L 352.839844 214.808594 C 352.839844 216.269531 354.027344 217.457031 355.484375 217.457031 C 356.949219 217.457031 358.132812 216.269531 358.132812 214.808594 L 358.132812 206.296875 C 358.132812 204.832031 356.949219 203.652344 355.484375 203.652344 C 354.027344 203.652344 352.839844 204.832031 352.839844 206.296875 Z M 352.839844 223.320312 L 352.839844 231.835938 C 352.839844 233.296875 354.027344 234.480469 355.484375 234.480469 C 356.949219 234.480469 358.132812 233.296875 358.132812 231.835938 L 358.132812 223.320312 C 358.132812 221.863281 356.949219 220.675781 355.484375 220.675781 C 354.027344 220.675781 352.839844 221.863281 352.839844 223.320312 Z M 352.839844 240.351562 L 352.839844 248.863281 C 352.839844 250.324219 354.027344 251.507812 355.484375 251.507812 C 356.949219 251.507812 358.132812 250.324219 358.132812 248.863281 L 358.132812 240.351562 C 358.132812 238.886719 356.949219 237.707031 355.484375 237.707031 C 354.027344 237.707031 352.839844 238.886719 352.839844 240.351562 Z M 352.839844 257.375 L 352.839844 265.894531 C 352.839844 267.351562 354.027344 268.535156 355.484375 268.535156 C 356.949219 268.535156 358.132812 267.351562 358.132812 265.894531 L 358.132812 257.375 C 358.132812 255.917969 356.949219 254.738281 355.484375 254.738281 C 354.027344 254.738281 352.839844 255.917969 352.839844 257.375 Z M 352.839844 274.40625 L 352.839844 282.917969 C 352.839844 284.382812 354.027344 285.5625 355.484375 285.5625 C 356.949219 285.5625 358.132812 284.382812 358.132812 282.917969 L 358.132812 274.40625 C 358.132812 272.941406 356.949219 271.761719 355.484375 271.761719 C 354.027344 271.761719 352.839844 272.941406 352.839844 274.40625 " fill-opacity="1" fill-rule="nonzero"/><path fill="#ffffff" d="M 352.839844 291.4375 L 352.839844 295.839844 C 352.839844 297.296875 354.027344 298.484375 355.484375 298.484375 C 356.949219 298.484375 358.132812 297.296875 358.132812 295.839844 L 358.132812 291.4375 C 358.132812 289.972656 356.949219 288.792969 355.484375 288.792969 C 354.027344 288.792969 352.839844 289.972656 352.839844 291.4375 " fill-opacity="1" fill-rule="nonzero"/><path fill="#ffffff" d="M 319.058594 262.902344 L 319.058594 267.3125 C 319.058594 268.769531 320.242188 269.953125 321.707031 269.953125 C 323.164062 269.953125 324.351562 268.769531 324.351562 267.3125 L 324.351562 262.902344 C 324.351562 261.445312 323.164062 260.257812 321.707031 260.257812 C 320.242188 260.257812 319.058594 261.445312 319.058594 262.902344 " fill-opacity="1" fill-rule="nonzero"/><path fill="#ffffff" d="M 319.058594 276.585938 L 319.058594 285.863281 C 319.058594 287.320312 320.242188 288.507812 321.707031 288.507812 C 323.164062 288.507812 324.351562 287.320312 324.351562 285.863281 L 324.351562 276.585938 C 324.351562 275.128906 323.164062 273.941406 321.707031 273.941406 C 320.242188 273.941406 319.058594 275.128906 319.058594 276.585938 Z M 319.058594 295.136719 L 319.058594 304.414062 C 319.058594 305.878906 320.242188 307.0625 321.707031 307.0625 C 323.164062 307.0625 324.351562 305.878906 324.351562 304.414062 L 324.351562 295.136719 C 324.351562 293.679688 323.164062 292.496094 321.707031 292.496094 C 320.242188 292.496094 319.058594 293.679688 319.058594 295.136719 Z M 319.058594 313.695312 L 319.058594 322.96875 C 319.058594 324.429688 320.242188 325.613281 321.707031 325.613281 C 323.164062 325.613281 324.351562 324.429688 324.351562 322.96875 L 324.351562 313.695312 C 324.351562 312.230469 323.164062 311.050781 321.707031 311.050781 C 320.242188 311.050781 319.058594 312.230469 319.058594 313.695312 Z M 319.058594 332.246094 L 319.058594 341.519531 C 319.058594 342.984375 320.242188 344.164062 321.707031 344.164062 C 323.164062 344.164062 324.351562 342.984375 324.351562 341.519531 L 324.351562 332.246094 C 324.351562 330.78125 323.164062 329.601562 321.707031 329.601562 C 320.242188 329.601562 319.058594 330.78125 319.058594 332.246094 Z M 319.058594 350.796875 L 319.058594 360.070312 C 319.058594 361.535156 320.242188 362.714844 321.707031 362.714844 C 323.164062 362.714844 324.351562 361.535156 324.351562 360.070312 L 324.351562 350.796875 C 324.351562 349.339844 323.164062 348.152344 321.707031 348.152344 C 320.242188 348.152344 319.058594 349.339844 319.058594 350.796875 Z M 319.058594 369.347656 L 319.058594 378.628906 C 319.058594 380.085938 320.242188 381.265625 321.707031 381.265625 C 323.164062 381.265625 324.351562 380.085938 324.351562 378.628906 L 324.351562 369.347656 C 324.351562 367.890625 323.164062 366.703125 321.707031 366.703125 C 320.242188 366.703125 319.058594 367.890625 319.058594 369.347656 Z M 319.058594 387.902344 L 319.058594 397.179688 C 319.058594 398.636719 320.242188 399.820312 321.707031 399.820312 C 323.164062 399.820312 324.351562 398.636719 324.351562 397.179688 L 324.351562 387.902344 C 324.351562 386.441406 323.164062 385.253906 321.707031 385.253906 C 320.242188 385.253906 319.058594 386.441406 319.058594 387.902344 Z M 319.058594 406.453125 L 319.058594 415.730469 C 319.058594 417.1875 320.242188 418.375 321.707031 418.375 C 323.164062 418.375 324.351562 417.1875 324.351562 415.730469 L 324.351562 406.453125 C 324.351562 404.992188 323.164062 403.808594 321.707031 403.808594 C 320.242188 403.808594 319.058594 404.992188 319.058594 406.453125 " fill-opacity="1" fill-rule="nonzero"/><path fill="#ffffff" d="M 319.058594 425.003906 L 319.058594 429.414062 C 319.058594 430.871094 320.242188 432.058594 321.707031 432.058594 C 323.164062 432.058594 324.351562 430.871094 324.351562 429.414062 L 324.351562 425.003906 C 324.351562 423.546875 323.164062 422.363281 321.707031 422.363281 C 320.242188 422.363281 319.058594 423.546875 319.058594 425.003906 " fill-opacity="1" fill-rule="nonzero"/><path fill="#ffffff" d="M 299.101562 90.90625 L 299.101562 95.316406 C 299.101562 96.773438 300.28125 97.957031 301.746094 97.957031 C 303.207031 97.957031 304.394531 96.773438 304.394531 95.316406 L 304.394531 90.90625 C 304.394531 89.445312 303.207031 88.261719 301.746094 88.261719 C 300.28125 88.261719 299.101562 89.445312 299.101562 90.90625 " fill-opacity="1" fill-rule="nonzero"/><path fill="#ffffff" d="M 299.101562 104.25 L 299.101562 113.183594 C 299.101562 114.644531 300.28125 115.828125 301.746094 115.828125 C 303.207031 115.828125 304.394531 114.644531 304.394531 113.183594 L 304.394531 104.25 C 304.394531 102.792969 303.207031 101.605469 301.746094 101.605469 C 300.28125 101.605469 299.101562 102.792969 299.101562 104.25 Z M 299.101562 122.121094 L 299.101562 131.054688 C 299.101562 132.519531 300.28125 133.699219 301.746094 133.699219 C 303.207031 133.699219 304.394531 132.519531 304.394531 131.054688 L 304.394531 122.121094 C 304.394531 120.65625 303.207031 119.476562 301.746094 119.476562 C 300.28125 119.476562 299.101562 120.65625 299.101562 122.121094 Z M 299.101562 139.992188 L 299.101562 148.925781 C 299.101562 150.382812 300.28125 151.570312 301.746094 151.570312 C 303.207031 151.570312 304.394531 150.382812 304.394531 148.925781 L 304.394531 139.992188 C 304.394531 138.527344 303.207031 137.347656 301.746094 137.347656 C 300.28125 137.347656 299.101562 138.527344 299.101562 139.992188 " fill-opacity="1" fill-rule="nonzero"/><path fill="#ffffff" d="M 299.101562 157.863281 L 299.101562 162.265625 C 299.101562 163.726562 300.28125 164.914062 301.746094 164.914062 C 303.207031 164.914062 304.394531 163.726562 304.394531 162.265625 L 304.394531 157.863281 C 304.394531 156.402344 303.207031 155.21875 301.746094 155.21875 C 300.28125 155.21875 299.101562 156.402344 299.101562 157.863281 " fill-opacity="1" fill-rule="nonzero"/><path fill="#ffffff" d="M 355.324219 396.476562 L 355.324219 400.886719 C 355.324219 402.34375 356.511719 403.523438 357.96875 403.523438 C 359.433594 403.523438 360.617188 402.34375 360.617188 400.886719 L 360.617188 396.476562 C 360.617188 395.019531 359.433594 393.832031 357.96875 393.832031 C 356.511719 393.832031 355.324219 395.019531 355.324219 396.476562 " fill-opacity="1" fill-rule="nonzero"/><path fill="#ffffff" d="M 355.324219 408.265625 L 355.324219 415.65625 C 355.324219 417.113281 356.511719 418.300781 357.96875 418.300781 C 359.433594 418.300781 360.617188 417.113281 360.617188 415.65625 L 360.617188 408.265625 C 360.617188 406.808594 359.433594 405.621094 357.96875 405.621094 C 356.511719 405.621094 355.324219 406.808594 355.324219 408.265625 Z M 355.324219 423.042969 L 355.324219 430.425781 C 355.324219 431.886719 356.511719 433.070312 357.96875 433.070312 C 359.433594 433.070312 360.617188 431.886719 360.617188 430.425781 L 360.617188 423.042969 C 360.617188 421.582031 359.433594 420.398438 357.96875 420.398438 C 356.511719 420.398438 355.324219 421.582031 355.324219 423.042969 " fill-opacity="1" fill-rule="nonzero"/><path fill="#ffffff" d="M 355.324219 437.816406 L 355.324219 442.21875 C 355.324219 443.683594 356.511719 444.863281 357.96875 444.863281 C 359.433594 444.863281 360.617188 443.683594 360.617188 442.21875 L 360.617188 437.816406 C 360.617188 436.355469 359.433594 435.167969 357.96875 435.167969 C 356.511719 435.167969 355.324219 436.355469 355.324219 437.816406 " fill-opacity="1" fill-rule="nonzero"/><path fill="#ffffff" d="M 372.25 56.140625 L 372.25 60.546875 C 372.25 62.011719 373.4375 63.191406 374.898438 63.191406 C 376.359375 63.191406 377.542969 62.011719 377.542969 60.546875 L 377.542969 56.140625 C 377.542969 54.679688 376.359375 53.5 374.898438 53.5 C 373.4375 53.5 372.25 54.679688 372.25 56.140625 " fill-opacity="1" fill-rule="nonzero"/><path fill="#ffffff" d="M 372.25 69.894531 L 372.25 79.238281 C 372.25 80.703125 373.4375 81.882812 374.898438 81.882812 C 376.359375 81.882812 377.542969 80.703125 377.542969 79.238281 L 377.542969 69.894531 C 377.542969 68.429688 376.359375 67.25 374.898438 67.25 C 373.4375 67.25 372.25 68.429688 372.25 69.894531 Z M 372.25 88.585938 L 372.25 97.933594 C 372.25 99.390625 373.4375 100.574219 374.898438 100.574219 C 376.359375 100.574219 377.542969 99.390625 377.542969 97.933594 L 377.542969 88.585938 C 377.542969 87.128906 376.359375 85.941406 374.898438 85.941406 C 373.4375 85.941406 372.25 87.128906 372.25 88.585938 Z M 372.25 107.273438 L 372.25 116.625 C 372.25 118.082031 373.4375 119.269531 374.898438 119.269531 C 376.359375 119.269531 377.542969 118.082031 377.542969 116.625 L 377.542969 107.273438 C 377.542969 105.816406 376.359375 104.628906 374.898438 104.628906 C 373.4375 104.628906 372.25 105.816406 372.25 107.273438 Z M 372.25 125.964844 L 372.25 135.3125 C 372.25 136.769531 373.4375 137.957031 374.898438 137.957031 C 376.359375 137.957031 377.542969 136.769531 377.542969 135.3125 L 377.542969 125.964844 C 377.542969 124.507812 376.359375 123.324219 374.898438 123.324219 C 373.4375 123.324219 372.25 124.507812 372.25 125.964844 Z M 372.25 144.660156 L 372.25 154.003906 C 372.25 155.464844 373.4375 156.648438 374.898438 156.648438 C 376.359375 156.648438 377.542969 155.464844 377.542969 154.003906 L 377.542969 144.660156 C 377.542969 143.195312 376.359375 142.015625 374.898438 142.015625 C 373.4375 142.015625 372.25 143.195312 372.25 144.660156 " fill-opacity="1" fill-rule="nonzero"/><path fill="#ffffff" d="M 372.25 163.351562 L 372.25 167.757812 C 372.25 169.21875 373.4375 170.398438 374.898438 170.398438 C 376.359375 170.398438 377.542969 169.21875 377.542969 167.757812 L 377.542969 163.351562 C 377.542969 161.894531 376.359375 160.707031 374.898438 160.707031 C 373.4375 160.707031 372.25 161.894531 372.25 163.351562 " fill-opacity="1" fill-rule="nonzero"/><path fill="#ffffff" d="M 344.347656 6.738281 L 344.347656 11.144531 C 344.347656 12.605469 345.535156 13.792969 346.992188 13.792969 C 348.457031 13.792969 349.640625 12.605469 349.640625 11.144531 L 349.640625 6.738281 C 349.640625 5.277344 348.457031 4.097656 346.992188 4.097656 C 345.535156 4.097656 344.347656 5.277344 344.347656 6.738281 " fill-opacity="1" fill-rule="nonzero"/><path fill="#ffffff" d="M 344.347656 19.628906 L 344.347656 28.113281 C 344.347656 29.570312 345.535156 30.757812 346.992188 30.757812 C 348.457031 30.757812 349.640625 29.570312 349.640625 28.113281 L 349.640625 19.628906 C 349.640625 18.171875 348.457031 16.984375 346.992188 16.984375 C 345.535156 16.984375 344.347656 18.171875 344.347656 19.628906 Z M 344.347656 36.597656 L 344.347656 45.078125 C 344.347656 46.542969 345.535156 47.726562 346.992188 47.726562 C 348.457031 47.726562 349.640625 46.542969 349.640625 45.078125 L 349.640625 36.597656 C 349.640625 35.136719 348.457031 33.949219 346.992188 33.949219 C 345.535156 33.949219 344.347656 35.136719 344.347656 36.597656 " fill-opacity="1" fill-rule="nonzero"/><path fill="#ffffff" d="M 344.347656 53.5625 L 344.347656 57.972656 C 344.347656 59.429688 345.535156 60.617188 346.992188 60.617188 C 348.457031 60.617188 349.640625 59.429688 349.640625 57.972656 L 349.640625 53.5625 C 349.640625 52.105469 348.457031 50.917969 346.992188 50.917969 C 345.535156 50.917969 344.347656 52.105469 344.347656 53.5625 " fill-opacity="1" fill-rule="nonzero"/><path fill="#ffffff" d="M 272.996094 209.84375 L 272.996094 214.246094 C 272.996094 215.710938 274.175781 216.890625 275.640625 216.890625 C 277.101562 216.890625 278.289062 215.710938 278.289062 214.246094 L 278.289062 209.84375 C 278.289062 208.382812 277.101562 207.195312 275.640625 207.195312 C 274.175781 207.195312 272.996094 208.382812 272.996094 209.84375 " fill-opacity="1" fill-rule="nonzero"/><path fill="#ffffff" d="M 272.996094 222.71875 L 272.996094 231.1875 C 272.996094 232.652344 274.175781 233.835938 275.640625 233.835938 C 277.101562 233.835938 278.289062 232.652344 278.289062 231.1875 L 278.289062 222.71875 C 278.289062 221.257812 277.101562 220.078125 275.640625 220.078125 C 274.175781 220.078125 272.996094 221.257812 272.996094 222.71875 Z M 272.996094 239.660156 L 272.996094 248.132812 C 272.996094 249.589844 274.175781 250.777344 275.640625 250.777344 C 277.101562 250.777344 278.289062 249.589844 278.289062 248.132812 L 278.289062 239.660156 C 278.289062 238.203125 277.101562 237.015625 275.640625 237.015625 C 274.175781 237.015625 272.996094 238.203125 272.996094 239.660156 Z M 272.996094 256.605469 L 272.996094 265.078125 C 272.996094 266.535156 274.175781 267.714844 275.640625 267.714844 C 277.101562 267.714844 278.289062 266.535156 278.289062 265.078125 L 278.289062 256.605469 C 278.289062 255.140625 277.101562 253.960938 275.640625 253.960938 C 274.175781 253.960938 272.996094 255.140625 272.996094 256.605469 Z M 272.996094 273.542969 L 272.996094 282.015625 C 272.996094 283.472656 274.175781 284.660156 275.640625 284.660156 C 277.101562 284.660156 278.289062 283.472656 278.289062 282.015625 L 278.289062 273.542969 C 278.289062 272.085938 277.101562 270.902344 275.640625 270.902344 C 274.175781 270.902344 272.996094 272.085938 272.996094 273.542969 Z M 272.996094 290.484375 L 272.996094 298.957031 C 272.996094 300.414062 274.175781 301.601562 275.640625 301.601562 C 277.101562 301.601562 278.289062 300.414062 278.289062 298.957031 L 278.289062 290.484375 C 278.289062 289.027344 277.101562 287.839844 275.640625 287.839844 C 274.175781 287.839844 272.996094 289.027344 272.996094 290.484375 Z M 272.996094 307.429688 L 272.996094 315.902344 C 272.996094 317.359375 274.175781 318.539062 275.640625 318.539062 C 277.101562 318.539062 278.289062 317.359375 278.289062 315.902344 L 278.289062 307.429688 C 278.289062 305.964844 277.101562 304.785156 275.640625 304.785156 C 274.175781 304.785156 272.996094 305.964844 272.996094 307.429688 " fill-opacity="1" fill-rule="nonzero"/><path fill="#ffffff" d="M 272.996094 324.367188 L 272.996094 328.777344 C 272.996094 330.234375 274.175781 331.421875 275.640625 331.421875 C 277.101562 331.421875 278.289062 330.234375 278.289062 328.777344 L 278.289062 324.367188 C 278.289062 322.910156 277.101562 321.726562 275.640625 321.726562 C 274.175781 321.726562 272.996094 322.910156 272.996094 324.367188 " fill-opacity="1" fill-rule="nonzero"/><path fill="#ffffff" d="M 303.683594 460.523438 L 303.683594 464.925781 C 303.683594 466.382812 304.867188 467.570312 306.332031 467.570312 C 307.789062 467.570312 308.972656 466.382812 308.972656 464.925781 L 308.972656 460.523438 C 308.972656 459.058594 307.789062 457.871094 306.332031 457.871094 C 304.867188 457.871094 303.683594 459.058594 303.683594 460.523438 " fill-opacity="1" fill-rule="nonzero"/><path fill="#ffffff" d="M 303.683594 472.675781 L 303.683594 480.429688 C 303.683594 481.890625 304.867188 483.074219 306.332031 483.074219 C 307.789062 483.074219 308.972656 481.890625 308.972656 480.429688 L 308.972656 472.675781 C 308.972656 471.21875 307.789062 470.03125 306.332031 470.03125 C 304.867188 470.03125 303.683594 471.21875 303.683594 472.675781 Z M 303.683594 488.179688 L 303.683594 495.9375 C 303.683594 497.394531 304.867188 498.574219 306.332031 498.574219 C 307.789062 498.574219 308.972656 497.394531 308.972656 495.9375 L 308.972656 488.179688 C 308.972656 486.722656 307.789062 485.535156 306.332031 485.535156 C 304.867188 485.535156 303.683594 486.722656 303.683594 488.179688 " fill-opacity="1" fill-rule="nonzero"/><path fill="#ffffff" d="M 303.683594 503.6875 L 303.683594 508.089844 C 303.683594 509.554688 304.867188 510.738281 306.332031 510.738281 C 307.789062 510.738281 308.972656 509.554688 308.972656 508.089844 L 308.972656 503.6875 C 308.972656 502.222656 307.789062 501.042969 306.332031 501.042969 C 304.867188 501.042969 303.683594 502.222656 303.683594 503.6875 " fill-opacity="1" fill-rule="nonzero"/><path fill="#ffffff" d="M 652.886719 471.535156 C 652.886719 483.816406 642.929688 493.769531 630.648438 493.769531 L 395.535156 493.769531 C 383.257812 493.769531 373.292969 483.816406 373.292969 471.535156 L 373.292969 236.507812 C 373.292969 224.234375 383.257812 214.28125 395.535156 214.28125 L 630.648438 214.28125 C 642.929688 214.28125 652.886719 224.234375 652.886719 236.507812 L 652.886719 471.535156 " fill-opacity="1" fill-rule="nonzero"/><path fill="#282321" d="M 652.886719 271.207031 L 652.886719 236.507812 C 652.886719 224.234375 642.929688 214.28125 630.648438 214.28125 L 395.535156 214.28125 C 383.257812 214.28125 373.292969 224.234375 373.292969 236.507812 L 373.292969 271.207031 L 652.886719 271.207031 " fill-opacity="1" fill-rule="nonzero"/><path fill="#f1eeee" d="M 564.765625 245.007812 C 564.765625 250.519531 560.296875 254.984375 554.785156 254.984375 C 549.273438 254.984375 544.804688 250.519531 544.804688 245.007812 C 544.804688 239.5 549.273438 235.027344 554.785156 235.027344 C 560.296875 235.027344 564.765625 239.5 564.765625 245.007812 " fill-opacity="1" fill-rule="nonzero"/><path fill="#f1eeee" d="M 598.425781 245.007812 C 598.425781 250.519531 593.953125 254.984375 588.441406 254.984375 C 582.929688 254.984375 578.460938 250.519531 578.460938 245.007812 C 578.460938 239.5 582.929688 235.027344 588.441406 235.027344 C 593.953125 235.027344 598.425781 239.5 598.425781 245.007812 " fill-opacity="1" fill-rule="nonzero"/><path fill="#f1eeee" d="M 632.078125 245.007812 C 632.078125 250.519531 627.613281 254.984375 622.09375 254.984375 C 616.582031 254.984375 612.113281 250.519531 612.113281 245.007812 C 612.113281 239.5 616.582031 235.027344 622.09375 235.027344 C 627.613281 235.027344 632.078125 239.5 632.078125 245.007812 " fill-opacity="1" fill-rule="nonzero"/><path fill="#231f20" d="M 600.203125 354.242188 L 640.40625 371.613281 L 640.40625 380.390625 L 600.203125 397.566406 L 600.203125 387.53125 L 627.894531 375.976562 L 600.203125 364.4375 L 600.203125 354.242188 " fill-opacity="1" fill-rule="nonzero"/><path fill="#231f20" d="M 425.984375 364.4375 L 398.292969 375.976562 L 425.984375 387.53125 L 425.984375 397.566406 L 385.78125 380.390625 L 385.78125 371.613281 L 425.984375 354.242188 L 425.984375 364.4375 " fill-opacity="1" fill-rule="nonzero"/><path fill="#231f20" d="M 431.695312 419.804688 L 421.8125 419.804688 L 455.410156 332.007812 L 465.222656 332.007812 L 431.695312 419.804688 " fill-opacity="1" fill-rule="nonzero"/><path fill="#231f20" d="M 473.292969 405.070312 C 469.503906 405.070312 466.292969 403.75 463.640625 401.105469 C 460.988281 398.453125 459.667969 395.253906 459.667969 391.496094 L 459.667969 360.449219 C 459.667969 356.664062 460.996094 353.449219 463.660156 350.804688 C 466.328125 348.15625 469.539062 346.832031 473.292969 346.832031 C 477.074219 346.832031 480.285156 348.164062 482.914062 350.824219 C 485.550781 353.488281 486.871094 356.699219 486.871094 360.449219 L 486.871094 366.941406 L 477.96875 366.941406 L 477.96875 360.265625 C 477.96875 358.90625 477.484375 357.742188 476.515625 356.773438 C 475.546875 355.804688 474.382812 355.316406 473.015625 355.316406 C 471.65625 355.316406 470.496094 355.804688 469.546875 356.773438 C 468.589844 357.742188 468.109375 358.90625 468.109375 360.265625 L 468.109375 391.40625 C 468.109375 392.769531 468.589844 393.929688 469.546875 394.878906 C 470.496094 395.835938 471.65625 396.308594 473.015625 396.308594 C 474.382812 396.308594 475.546875 395.835938 476.515625 394.878906 C 477.484375 393.929688 477.96875 392.769531 477.96875 391.40625 L 477.96875 383.554688 L 486.871094 383.554688 L 486.871094 391.496094 C 486.871094 395.28125 485.539062 398.488281 482.867188 401.121094 C 480.203125 403.753906 477.011719 405.070312 473.292969 405.070312 " fill-opacity="1" fill-rule="nonzero"/><path fill="#231f20" d="M 512.023438 360.175781 C 512.023438 358.8125 511.546875 357.65625 510.59375 356.703125 C 509.640625 355.746094 508.484375 355.273438 507.117188 355.273438 C 505.757812 355.273438 504.59375 355.746094 503.625 356.703125 C 502.65625 357.65625 502.171875 358.8125 502.171875 360.175781 L 502.171875 391.316406 C 502.171875 392.679688 502.65625 393.835938 503.625 394.789062 C 504.59375 395.746094 505.757812 396.214844 507.117188 396.214844 C 508.484375 396.214844 509.640625 395.746094 510.59375 394.789062 C 511.546875 393.835938 512.023438 392.679688 512.023438 391.316406 Z M 507.347656 346.738281 C 511.128906 346.738281 514.347656 348.070312 516.992188 350.734375 C 519.644531 353.398438 520.972656 356.605469 520.972656 360.359375 L 520.972656 391.40625 C 520.972656 395.191406 519.640625 398.40625 516.976562 401.058594 C 514.3125 403.703125 511.101562 405.027344 507.347656 405.027344 C 503.558594 405.027344 500.355469 403.691406 497.71875 401.027344 C 495.085938 398.371094 493.769531 395.160156 493.769531 391.40625 L 493.769531 360.359375 C 493.769531 356.570312 495.097656 353.363281 497.765625 350.710938 C 500.429688 348.066406 503.625 346.738281 507.347656 346.738281 " fill-opacity="1" fill-rule="nonzero"/><path fill="#231f20" d="M 537.089844 395.859375 L 542.269531 395.859375 C 543.628906 395.859375 544.777344 395.363281 545.722656 394.378906 C 546.65625 393.398438 547.121094 392.238281 547.121094 390.910156 L 547.121094 361.128906 C 547.121094 359.769531 546.648438 358.601562 545.699219 357.636719 C 544.742188 356.664062 543.601562 356.179688 542.269531 356.179688 L 537.089844 356.179688 Z M 555.476562 390.722656 C 555.476562 394.476562 554.160156 397.6875 551.527344 400.347656 C 548.898438 403.015625 545.722656 404.347656 541.996094 404.347656 L 528.507812 404.347656 L 528.507812 347.421875 L 541.996094 347.421875 C 545.75 347.421875 548.933594 348.75 551.554688 351.414062 C 554.171875 354.082031 555.476562 357.273438 555.476562 360.992188 L 555.476562 390.722656 " fill-opacity="1" fill-rule="nonzero"/><path fill="#231f20" d="M 563.023438 404.347656 L 563.023438 347.421875 L 587.449219 347.421875 L 587.449219 356.046875 L 571.601562 356.046875 L 571.601562 371.566406 L 583.183594 371.566406 L 583.183594 380.195312 L 571.601562 380.195312 L 571.601562 395.722656 L 587.449219 395.722656 L 587.449219 404.347656 L 563.023438 404.347656 " fill-opacity="1" fill-rule="nonzero"/><path fill="#80cc28" d="M 577.257812 74.632812 C 577.257812 99.230469 557.304688 119.175781 532.699219 119.175781 C 508.089844 119.175781 488.136719 99.230469 488.136719 74.632812 C 488.136719 50.03125 508.089844 30.089844 532.699219 30.089844 C 557.304688 30.089844 577.257812 50.03125 577.257812 74.632812 " fill-opacity="1" fill-rule="nonzero"/><path fill="#ffffff" d="M 515.707031 65.960938 C 515.707031 65.027344 515.429688 64.269531 514.867188 63.699219 C 514.300781 63.125 513.550781 62.839844 512.617188 62.839844 L 509.347656 62.839844 L 509.347656 74.320312 L 512.617188 74.320312 C 513.476562 74.320312 514.203125 74.015625 514.808594 73.40625 C 515.40625 72.792969 515.707031 72.0625 515.707031 71.203125 Z M 512.472656 57.316406 C 515.109375 57.316406 517.210938 58.144531 518.773438 59.804688 C 520.226562 61.390625 520.953125 63.410156 520.953125 65.878906 L 520.953125 71.089844 C 520.953125 73.457031 520.125 75.480469 518.476562 77.15625 C 516.824219 78.839844 514.824219 79.679688 512.472656 79.679688 L 509.347656 79.679688 L 509.347656 93.195312 L 503.933594 93.195312 L 503.933594 57.316406 L 512.472656 57.316406 " fill-opacity="1" fill-rule="nonzero"/><path fill="#ffffff" d="M 530.695312 77.988281 L 530.695312 93.195312 L 525.277344 93.195312 L 525.277344 57.316406 L 530.695312 57.316406 L 530.695312 72.546875 L 537.222656 72.546875 L 537.222656 57.316406 L 542.644531 57.316406 L 542.644531 93.195312 L 537.222656 93.195312 L 537.222656 77.988281 L 530.695312 77.988281 " fill-opacity="1" fill-rule="nonzero"/><path fill="#ffffff" d="M 559.257812 65.960938 C 559.257812 65.027344 558.976562 64.269531 558.410156 63.699219 C 557.847656 63.125 557.097656 62.839844 556.164062 62.839844 L 552.898438 62.839844 L 552.898438 74.320312 L 556.164062 74.320312 C 557.019531 74.320312 557.753906 74.015625 558.351562 73.40625 C 558.957031 72.792969 559.257812 72.0625 559.257812 71.203125 Z M 556.023438 57.316406 C 558.652344 57.316406 560.757812 58.144531 562.320312 59.804688 C 563.773438 61.390625 564.5 63.410156 564.5 65.878906 L 564.5 71.089844 C 564.5 73.457031 563.675781 75.480469 562.019531 77.15625 C 560.371094 78.839844 558.371094 79.679688 556.023438 79.679688 L 552.898438 79.679688 L 552.898438 93.195312 L 547.484375 93.195312 L 547.484375 57.316406 L 556.023438 57.316406 " fill-opacity="1" fill-rule="nonzero"/><path fill="#f14624" d="M 719.84375 167.28125 C 719.84375 197.785156 695.109375 222.515625 664.589844 222.515625 C 634.078125 222.515625 609.339844 197.785156 609.339844 167.28125 C 609.339844 136.777344 634.078125 112.046875 664.589844 112.046875 C 695.109375 112.046875 719.84375 136.777344 719.84375 167.28125 " fill-opacity="1" fill-rule="nonzero"/><path fill="#ffffff" d="M 631.664062 186.5 C 629.292969 186.5 627.289062 185.671875 625.632812 184.015625 C 623.980469 182.363281 623.148438 180.363281 623.148438 178.019531 L 623.148438 158.609375 C 623.148438 156.246094 623.980469 154.234375 625.644531 152.578125 C 627.3125 150.925781 629.316406 150.09375 631.664062 150.09375 C 634.027344 150.09375 636.035156 150.925781 637.675781 152.589844 C 639.328125 154.257812 640.152344 156.261719 640.152344 158.609375 L 640.152344 162.664062 L 634.585938 162.664062 L 634.585938 158.492188 C 634.585938 157.640625 634.289062 156.914062 633.675781 156.308594 C 633.078125 155.703125 632.34375 155.402344 631.492188 155.402344 C 630.636719 155.402344 629.917969 155.703125 629.324219 156.308594 C 628.722656 156.914062 628.425781 157.640625 628.425781 158.492188 L 628.425781 177.960938 C 628.425781 178.8125 628.722656 179.535156 629.324219 180.128906 C 629.917969 180.726562 630.636719 181.027344 631.492188 181.027344 C 632.34375 181.027344 633.078125 180.726562 633.675781 180.128906 C 634.289062 179.535156 634.585938 178.8125 634.585938 177.960938 L 634.585938 173.050781 L 640.152344 173.050781 L 640.152344 178.019531 C 640.152344 180.382812 639.320312 182.386719 637.65625 184.027344 C 635.988281 185.675781 633.988281 186.5 631.664062 186.5 " fill-opacity="1" fill-rule="nonzero"/><path fill="#ffffff" d="M 661.582031 177.195312 C 661.621094 179.671875 660.976562 181.785156 659.648438 183.550781 C 658.777344 184.738281 657.550781 185.578125 655.960938 186.074219 C 655.113281 186.339844 654.113281 186.472656 652.984375 186.472656 C 650.878906 186.472656 649.140625 185.949219 647.753906 184.910156 C 646.601562 184.058594 645.691406 182.898438 645.015625 181.433594 C 644.347656 179.972656 643.949219 178.289062 643.839844 176.398438 L 648.949219 176.03125 C 649.171875 178.097656 649.726562 179.601562 650.597656 180.535156 C 651.238281 181.238281 651.976562 181.574219 652.8125 181.535156 C 653.980469 181.5 654.921875 180.917969 655.617188 179.804688 C 655.976562 179.25 656.15625 178.46875 656.15625 177.449219 C 656.15625 175.964844 655.488281 174.503906 654.144531 173.042969 C 653.082031 172.042969 651.496094 170.53125 649.375 168.527344 C 647.59375 166.804688 646.335938 165.257812 645.597656 163.898438 C 644.804688 162.367188 644.40625 160.699219 644.40625 158.902344 C 644.40625 155.664062 645.496094 153.207031 647.667969 151.542969 C 649.011719 150.539062 650.679688 150.039062 652.667969 150.039062 C 654.582031 150.039062 656.214844 150.464844 657.578125 151.316406 C 658.632812 151.972656 659.492188 152.902344 660.144531 154.09375 C 660.800781 155.289062 661.195312 156.660156 661.328125 158.210938 L 656.191406 159.148438 C 656.035156 157.691406 655.617188 156.554688 654.9375 155.742188 C 654.441406 155.15625 653.734375 154.863281 652.8125 154.863281 C 651.824219 154.863281 651.082031 155.300781 650.570312 156.167969 C 650.148438 156.867188 649.941406 157.738281 649.941406 158.78125 C 649.941406 160.40625 650.644531 162.058594 652.042969 163.742188 C 652.570312 164.386719 653.371094 165.144531 654.425781 166.011719 C 655.675781 167.054688 656.5 167.78125 656.894531 168.199219 C 658.226562 169.523438 659.238281 170.824219 659.960938 172.117188 C 660.300781 172.722656 660.578125 173.273438 660.785156 173.789062 C 661.296875 175.054688 661.5625 176.191406 661.582031 177.195312 " fill-opacity="1" fill-rule="nonzero"/><path fill="#ffffff" d="M 683.011719 177.195312 C 683.050781 179.671875 682.40625 181.785156 681.078125 183.550781 C 680.207031 184.738281 678.980469 185.578125 677.390625 186.074219 C 676.535156 186.339844 675.542969 186.472656 674.40625 186.472656 C 672.308594 186.472656 670.570312 185.949219 669.183594 184.910156 C 668.03125 184.058594 667.121094 182.898438 666.445312 181.433594 C 665.773438 179.972656 665.378906 178.289062 665.269531 176.398438 L 670.378906 176.03125 C 670.601562 178.097656 671.152344 179.601562 672.027344 180.535156 C 672.667969 181.238281 673.410156 181.574219 674.242188 181.535156 C 675.410156 181.5 676.351562 180.917969 677.046875 179.804688 C 677.40625 179.25 677.589844 178.46875 677.589844 177.449219 C 677.589844 175.964844 676.917969 174.503906 675.578125 173.042969 C 674.511719 172.042969 672.925781 170.53125 670.804688 168.527344 C 669.027344 166.804688 667.765625 165.257812 667.027344 163.898438 C 666.234375 162.367188 665.839844 160.699219 665.839844 158.902344 C 665.839844 155.664062 666.925781 153.207031 669.105469 151.542969 C 670.449219 150.539062 672.109375 150.039062 674.097656 150.039062 C 676.011719 150.039062 677.648438 150.464844 679.007812 151.316406 C 680.0625 151.972656 680.921875 152.902344 681.582031 154.09375 C 682.230469 155.289062 682.625 156.660156 682.757812 158.210938 L 677.621094 159.148438 C 677.464844 157.691406 677.046875 156.554688 676.367188 155.742188 C 675.878906 155.15625 675.164062 154.863281 674.242188 154.863281 C 673.253906 154.863281 672.503906 155.300781 671.992188 156.167969 C 671.578125 156.867188 671.375 157.738281 671.375 158.78125 C 671.375 160.40625 672.074219 162.058594 673.472656 163.742188 C 674 164.386719 674.792969 165.144531 675.855469 166.011719 C 677.105469 167.054688 677.929688 167.78125 678.328125 168.199219 C 679.648438 169.523438 680.675781 170.824219 681.394531 172.117188 C 681.734375 172.722656 682.007812 173.273438 682.214844 173.789062 C 682.726562 175.054688 682.992188 176.191406 683.011719 177.195312 " fill-opacity="1" fill-rule="nonzero"/><path fill="#ffffff" d="M 695.046875 180.941406 C 697.503906 180.941406 698.730469 179.792969 698.730469 177.511719 L 698.730469 175.414062 C 698.730469 171.765625 696.824219 169.945312 693 169.945312 L 693 165.351562 C 695.066406 165.351562 696.585938 164.773438 697.574219 163.621094 C 698.476562 162.585938 698.933594 161.125 698.933594 159.257812 L 698.933594 158.433594 C 698.933594 156.113281 697.914062 154.949219 695.867188 154.949219 C 694.730469 154.949219 693.902344 155.378906 693.371094 156.246094 C 692.972656 156.902344 692.777344 157.761719 692.777344 158.816406 L 692.777344 159.742188 L 687.523438 159.742188 L 687.523438 158.917969 C 687.523438 156.382812 688.167969 154.320312 689.457031 152.734375 C 690.910156 150.917969 692.960938 150.007812 695.613281 150.007812 C 698.132812 150.007812 700.144531 150.863281 701.65625 152.5625 C 703.019531 154.09375 703.703125 156.007812 703.703125 158.296875 L 703.703125 159.800781 C 703.703125 162.015625 703.039062 163.925781 701.71875 165.527344 C 701.148438 166.214844 700.484375 166.792969 699.730469 167.265625 C 701.320312 168.152344 702.546875 169.503906 703.417969 171.320312 C 703.875 172.25 704.097656 173.371094 704.097656 174.699219 L 704.097656 177.503906 C 704.097656 180.132812 703.199219 182.289062 701.402344 183.976562 C 699.675781 185.601562 697.609375 186.414062 695.1875 186.414062 C 692.816406 186.414062 690.816406 185.578125 689.167969 183.917969 C 687.523438 182.253906 686.699219 180.253906 686.699219 177.929688 L 686.699219 177.050781 L 691.808594 176.652344 L 691.921875 177.902344 C 691.996094 178.789062 692.316406 179.515625 692.875 180.085938 C 693.433594 180.652344 694.152344 180.941406 695.046875 180.941406 " fill-opacity="1" fill-rule="nonzero"/><path fill="#80cc28" d="M 495.265625 202.023438 C 495.265625 239.910156 464.546875 270.621094 426.644531 270.621094 C 388.75 270.621094 358.027344 239.910156 358.027344 202.023438 C 358.027344 164.140625 388.75 133.429688 426.644531 133.429688 C 464.546875 133.429688 495.265625 164.140625 495.265625 202.023438 " fill-opacity="1" fill-rule="nonzero"/><path fill="#ffffff" d="M 384.839844 207.140625 L 384.839844 225.0625 L 378.460938 225.0625 L 378.460938 182.765625 L 384.839844 182.765625 L 384.839844 200.726562 L 392.542969 200.726562 L 392.542969 182.765625 L 398.925781 182.765625 L 398.925781 225.0625 L 392.542969 225.0625 L 392.542969 207.140625 L 384.839844 207.140625 " fill-opacity="1" fill-rule="nonzero"/><path fill="#ffffff" d="M 410.84375 189.175781 L 404.058594 189.175781 L 404.058594 182.765625 L 423.980469 182.765625 L 423.980469 189.175781 L 417.226562 189.175781 L 417.226562 225.0625 L 410.84375 225.0625 L 410.84375 189.175781 " fill-opacity="1" fill-rule="nonzero"/><path fill="#ffffff" d="M 435.496094 225.0625 L 429.113281 225.0625 L 429.113281 182.730469 L 438.273438 182.730469 L 444.21875 213.136719 L 449.929688 182.730469 L 458.730469 182.730469 L 458.730469 225.0625 L 452.347656 225.0625 L 452.347656 198.460938 L 446.808594 225.0625 L 441.675781 225.0625 L 435.496094 198.527344 L 435.496094 225.0625 " fill-opacity="1" fill-rule="nonzero"/><path fill="#ffffff" d="M 481.824219 225.0625 L 464.4375 225.0625 L 464.4375 182.765625 L 470.820312 182.765625 L 470.820312 218.71875 L 481.824219 218.71875 L 481.824219 225.0625 " fill-opacity="1" fill-rule="nonzero"/><g clip-path="url(#db96ec6604)"><path fill="#80cc28" d="M 767.972656 301.800781 C 767.972656 325.90625 748.421875 345.453125 724.300781 345.453125 C 700.183594 345.453125 680.632812 325.90625 680.632812 301.800781 C 680.632812 277.691406 700.183594 258.148438 724.300781 258.148438 C 748.421875 258.148438 767.972656 277.691406 767.972656 301.800781 " fill-opacity="1" fill-rule="nonzero"/></g><path fill="#ffffff" d="M 707.839844 283.269531 C 707.839844 279.355469 708.867188 276.632812 710.917969 275.082031 C 712.863281 273.59375 716.15625 272.851562 720.800781 272.851562 L 720.800781 278.371094 C 718.351562 278.371094 716.691406 278.710938 715.820312 279.386719 C 714.945312 280.058594 714.503906 281.445312 714.503906 283.523438 L 714.503906 294.832031 C 714.503906 296.179688 714.160156 297.488281 713.457031 298.757812 C 712.695312 300.132812 711.726562 301.0625 710.539062 301.539062 C 711.640625 301.960938 712.585938 302.847656 713.371094 304.203125 C 714.128906 305.433594 714.503906 306.789062 714.503906 308.246094 L 714.503906 319.601562 C 714.503906 321.710938 714.945312 323.089844 715.820312 323.734375 C 716.691406 324.386719 718.351562 324.707031 720.800781 324.707031 L 720.800781 330.234375 C 716.15625 330.234375 712.863281 329.492188 710.917969 328 C 708.867188 326.453125 707.839844 323.722656 707.839844 319.816406 L 707.839844 311.671875 C 707.839844 308.742188 707.714844 306.929688 707.460938 306.226562 C 706.871094 304.621094 705.605469 303.746094 703.660156 303.609375 L 703.660156 299.515625 C 705.605469 299.34375 706.871094 298.460938 707.460938 296.855469 C 707.714844 296.179688 707.839844 294.382812 707.839844 291.453125 L 707.839844 283.269531 " fill-opacity="1" fill-rule="nonzero"/><path fill="#ffffff" d="M 740.21875 298.375 C 740.726562 299.25 741.792969 299.753906 743.425781 299.898438 L 743.425781 303.988281 C 742.214844 304.097656 741.371094 304.347656 740.894531 304.726562 C 740.414062 305.105469 740.011719 305.730469 739.664062 306.605469 C 739.496094 307.054688 739.386719 307.730469 739.332031 308.628906 C 739.300781 309.050781 739.289062 310.191406 739.289062 312.046875 L 739.289062 320.1875 C 739.289062 324.101562 738.246094 326.828125 736.160156 328.378906 C 734.28125 329.84375 730.988281 330.574219 726.289062 330.574219 L 726.289062 325.089844 C 728.761719 325.089844 730.429688 324.765625 731.289062 324.113281 C 732.148438 323.46875 732.574219 322.089844 732.574219 319.980469 L 732.574219 308.628906 C 732.574219 307.335938 732.949219 306.007812 733.691406 304.640625 C 734.441406 303.28125 735.386719 302.371094 736.546875 301.921875 C 735.449219 301.46875 734.511719 300.582031 733.738281 299.261719 C 732.964844 297.945312 732.574219 296.589844 732.574219 295.210938 L 732.574219 283.859375 C 732.574219 281.75 732.148438 280.371094 731.289062 279.726562 C 730.429688 279.082031 728.761719 278.757812 726.289062 278.757812 L 726.289062 273.226562 C 730.929688 273.226562 734.222656 273.972656 736.160156 275.460938 C 738.246094 277.011719 739.289062 279.738281 739.289062 283.652344 L 739.289062 291.835938 C 739.289062 293.660156 739.300781 294.789062 739.332031 295.210938 C 739.417969 296.449219 739.710938 297.503906 740.21875 298.375 " fill-opacity="1" fill-rule="nonzero"/><g clip-path="url(#e25108e5e6)"><path fill="#f14624" d="M 343.765625 283.089844 C 343.765625 306.710938 324.617188 325.855469 300.992188 325.855469 C 277.367188 325.855469 258.214844 306.710938 258.214844 283.089844 C 258.214844 259.472656 277.367188 240.328125 300.992188 240.328125 C 324.617188 240.328125 343.765625 259.472656 343.765625 283.089844 " fill-opacity="1" fill-rule="nonzero"/></g><path fill="#ffffff" d="M 310.554688 271.109375 L 334.589844 281.496094 L 334.589844 286.746094 L 310.554688 297.011719 L 310.554688 291.011719 L 327.113281 284.105469 L 310.554688 277.203125 L 310.554688 271.109375 " fill-opacity="1" fill-rule="nonzero"/><path fill="#ffffff" d="M 288.722656 277.203125 L 272.171875 284.105469 L 288.722656 291.011719 L 288.722656 297.011719 L 264.6875 286.746094 L 264.6875 281.496094 L 288.722656 271.109375 L 288.722656 277.203125 " fill-opacity="1" fill-rule="nonzero"/><path fill="#ffffff" d="M 290.976562 310.304688 L 285.066406 310.304688 L 305.152344 257.816406 L 311.015625 257.816406 L 290.976562 310.304688 " fill-opacity="1" fill-rule="nonzero"/></svg>